<mxfile host="app.diagrams.net" modified="2022-05-25T10:57:51.426Z" agent="5.0 (Windows NT 10.0; Win64; x64) AppleWebKit/537.36 (KHTML, like Gecko) Chrome/101.0.4951.41 Safari/537.36 Edg/101.0.1210.32" etag="keDbZHlgE5IXv_YtA26e" version="18.1.1" type="github" pages="3">
  <diagram id="1NGhEgUYT_hdI-dk5AY8" name="Page-1">
    <mxGraphModel dx="2029" dy="796" grid="1" gridSize="10" guides="1" tooltips="1" connect="1" arrows="1" fold="1" page="1" pageScale="1" pageWidth="827" pageHeight="1169" math="0" shadow="0">
      <root>
        <mxCell id="0" />
        <mxCell id="1" parent="0" />
        <mxCell id="VZC6QLjZsNQ3-OKfmuwu-1" value="" style="shape=image;verticalLabelPosition=bottom;labelBackgroundColor=default;verticalAlign=top;aspect=fixed;imageAspect=0;image=data:image/png,iVBORw0KGgoAAAANSUhEUgAAAtwAAADeCAYAAAAO/tdLAAAAAXNSR0IArs4c6QAAAARnQU1BAACxjwv8YQUAAAAJcEhZcwAADsMAAA7DAcdvqGQAAGFRSURBVHhe7d0PWFTnvS/6b0YBUUB0JBREFEWgRKEEZ2uE1EI8EXNatWk1Nwd9cqs5PdXbEz292eTsE9251mTvhp2dg31yTa+3MTsn+uRG3d2Sdhu0CjWKfzqhFCQE8A+K/HHEUQQUZtDJfdefgWFYM/ybBZh8P8+zmJk1w8yatd71vr/3Xe/7ziNfCSAiIiIiIl0Y1FsiIiIiItLBI19++SVbuImIiIiIdMIuJUREREREOmKXEiIiIiIiHTHgJiIiIiLSEQNuIiIiIiIdMeAmIiIiItIRA24iIiIiIh0x4CYiIiIi0hEDbiIiIiIiHTHgJiIiIiLSEQNuIiIiIiIdMeAmIiIiItIRA24iIiIiIh0x4CYiIiIi0hEDbiIiIiIiHTHgJiIiIiLSEQNuIiIiIiIdMeAmIiIiItIRA24iIiIiIh0x4CYiIiIi0hEDbiIiIiIiHTHgJiIiIiLSEQNuIiIiIiIdMeAmIiIiItIRA24iIiIiIh0x4CYiIiIi0hEDbiIiIiIiHT3ylaDe19f9ZlR+mY98y2lUPuhSV05EZPBKvJDwDBKnqqtG0d0rn+H2oWPoKKvCV212da0QOht+S1chNOu7mBKqrvuaszddQdmdQCQnhMNfXUdEvsNzzAeay7A5rwnF8+bi8+fnqCv7Kv+oAOsrQrHnjUVIUtcREY2kkQm4m09jZ/lv8fl9Z6DtbjIWRL+Gzd8OUx+PLIe1BNdy34TtkkuQrckfhu+/gvB1qQgep64aRbWHj2N1cReyvr8Yrz8Roq7trfrQUWSbHUDcLJx+IUG7YHcWWpPDcSAnBTGwIj/PjB3NwPp1WdiUoL5uuNrqUXDkCvKr22G+p6zy9zcgJiwIK5OjkG6KQqR4TL5kwf63SpF7OxCv5yxB1mR1tRtrURGWHbOpj7xbm52FLYnqgwHrSVPugif6wTR7GtY+nYgko5+6dnDbJAuLwJEtyTCqDwfC+Rn9f6dLyHv1AvbCV0GbTufYcFSexYJ9LeqDHtI5mhwxBSsz45EVq53PjBpfBtxe36sL1tIKvHemGcebHLCKLFUSMzkA8bOnYuXCGJhmiH3jYR96NpT05Ew7rEAQPUz0j27uVeKDsne9BNuSO/i8bjs+uKxGYSOos+p9XP75jgEE2xI7HH/Ygab/uhs32tRVoyhm1iQ5gC64rBHFyJpQVqOWDBdbUKXedWeva0OxuI2MM4pgWxKEmCiRNMYHYvZgohdvLKIwy63A1tJ2lN03IH6yn7zEBIiKQ0Mrcg9fwCkLg22fu9aI/NvSnQ58+hervErTBOV4eFyCDWplzYBpk+Q7Q+SHrBQj1qvLmul+iBR5Q2FFE9a/XYQdIqDpprVNE9XnxvekIdfl4eHlHLtoxopXz6JcfTjSIiNCuo/P+rhAxIx3wHzViq3vn8bqDy9gDGR9I6xDBOyiYnZQVF4bHAgJdklvd20oKG3CxsJGUToI43unR3lxnjuGhz3NjpJRPh+IfEXnFu4uVJ77Of6xZaCB9GJsTF6M5suHcaLjLiJD/gNWf3sJZgapT/uY4/phXPlvu+FeF3jk2V9i+g+cLRyXcPPv/h6d19WHTsZnMOXtnyJsWMHHMNmrkLv9CvZPMGLfNhPi1dXd1BabmyJTr77ThbXZT2NLYt+gtvxgAdaXAmufE88n6RH01mPvGxXIu2fAmlWpyDG5RRj2FtRWtSIkKXpQrZPUHweqf3cM2SV+SAuzofh+OD55OQWR6rMD50DjsRNYUWRDZOJcHMyeo32lxCtvrXJdaCstwfqDIh0YApH78hJkemiJ725B7KdFc6BGr4XbM+XK1aSRb71U923aUhN2ZridiVaR1/xG5DUiK/d2RW3EjUALd9u5U1j2STsQEY73X0iWA+geXbA3NaDsfgRMMwLUdW6c7zuEKzDavlkt3KN2PhD5mL5Nim1mHB5wsC05jXfL3sLBtko037+Kslu/xdazH6BSj4bvznJce61vsC15JDQcE4MnqUs4xmmVLdbDaPmXEnSqD0eFfxiSIsRtZzuqLMoqV20XW+SWa9PjU2ESt4U19fL63ppQdVm6DURSjE7JwWJFsXQMZ0Zho3uwLfEPRQyDbd9z1OLTUofY7+HYkOAH3G5GwUX1ucForsSbJ2witwjCKz8aSrDdHz8Ep/wNXk8V6c/RgcLKVnX9N9B9C8w13q4GjhJjAnJWG+XKWsG5WhHyfVM4UHWxHXZRVL6YleIWbEv84B8xy3OwTcMzVs8HoiHQN+C+dQGV6t0he3AMH1xoVB/4TsuR3bANs9T4quh93KxTH4wKI+JnS5ckbTBfdg9SbCiv6RC3IpBeaIRpAtBYY0Wt8mQPqwiG74jbsFAkByurJFKL0IJXi5Dfq7eK1MpXgOzDTaIcakd18VnkvCG9TllW553C3nKN/ottdjRIt8EBcPmIgblvhfmTU9jo/JxtR5G96ywKrkrfzZ2yfZuLpAPrQFtVKbbmOv/vLM4Wn5DvK897UHkWi8VrVvzO7cD6cDu6L42K9ywvEvvwV0flz5SeX7z9KDbuNiO/cvghjb3Mgv0i3s6aH4Wk5KlIEttyqHywCdaKgo/rUSzeR7o6kSbSkT4MmDZFubze1vkwFbBDPCcE93Os8eQprN9Rilz5cQvWq+8hLVJaalPT7/oCjdq107VSZEv/s7vS910/YqciU7pt7lDOZ5X8PfLKlCC87Qr27z6ODHW7d1XJL1GJc6GhCnvF88u2qd/tNSm9l8Bs9XbMpf7T5l7nyWrp3Lvcrj6vp3a03ZVu/WD0dNVlzBh8WnSmqSHlidKYnI9OIHu727G8rdF3UWrlF6/JLREVdzUvXe/8Pw95aX/nQ28ijVSWIW/X0e60J+WlOR9VoLpNqy9lP3l0jdSNRbzHhxeUrkJapCvM0ut3mFGtriLyRt+A+4F0GgxfY+dgBqEMRDVaD2m19iocDV4KtF7qce9IuThdR09MXIjS6uTej9tRD7PUmikH0lFYECvu37kF8zX52W72K0oreHzcowNuYa5uvo7835xCdkErbFHOvp4BaLW2I+/js9h8wi0zDJ+kXAq81oLaweyszkvY9ZYZG8+143Kw2q801g83m1qwdfdJ5FVqBbtA8fUWNJ44iRUfWlDcpfaVnB2CufOMcsBQXFbvoYVOVFxKWuTWrFXzotR1go+3Y7r0pKNZ7EMz1h9rQdnEIKxV+8yuCgMuX7PizZJbnjP6AWlF4ZlW8R6ByJwXAkREY6V478ZSkS4G8cZtZyrwS1F++8+MxsbUQHWtPmwiv5DpmyvpYtDnhIbgWeHY+KMorJUDu0BseW4O3lWXDYlBCE4KQ5Z4pryiEZ6aIGrP35IL/zWpcwZfue2Pt+MigvDLlgrkvCWCkIYHiJT7JwchoXscvEM5F3ZdQd61B0iIVfbR2unjUHW1GRvzPsMuzfPI2X/aisKOcchMVP7PdL8Vv3zvFHJO3B3medIfcb4+Kn1xG8qvaJ/nY81g0mLwUPNE+VhXYGtFBwLUPv/dx/LtE8i3aGf0ZVcrsUfKS0XgHelMAzPGobFByUt3VfUMku7vfOgh0sjBz/CDfU3YaxmHNDWNrJoCnKqoR/ZbJ1HgYXs85tFx4Vg1QZSPNc0o85DA7OdvYr+4jU+N6tudk0iDbkXbvYZj2Fl7Qn00PJETfDwXX105bANu/unCV96ucJ8uEXXvUTRbbXW6rBS03cTjQpHHKIG0AUnJofAX36X4Yu9stfaa0l/HJDK3Aaux4E1HOA68+jR2vmDCph+L5YUMHPl5BNLE08WfXe69LcFzsFKaheFOM9b/ptRDi4O7DhR/fAF72gxY+1w6jry0uOdzcuZi7UQH9n70ZxRKrfPuLHV485gNy59dhKJXn8K+HLH8JBHGydHImimeb76J4yKI7MNeh6IacTthCtLinKeGDtshnrKXXcCbYhvSMlJ73lMsOZuexpHXluCIKFSG1XXjTh0KpWZIUXCky5GXKFhNImB2tKLoiwHO/NFZhXcPd8BuCMDf/zDR9wGcK1EBMVdI2+Un9v1D2LlosOeEhuAZc2FKikCMfOADkJQkPVaWpPCAnvPIY9egJrEPu0SuHoKM+Tp0cWiz4aZ0O1nrSlUH9h6oR23sLJF+n1bSek46Mp2H8mIJNh/tQFtYWK99tOWnT6Ho5VlYM6ELezTOI3tlmQjqHPCPiMAn257C69nqefLSUnGOhKK2tBVm9bV6iV8YJjcY5H9yGnnm/itOo24waXEoeaKjCfs/rBflSwC2/fwp7Pmpkn/Jx1L+DBt2/LYE1RrZfHWJBZ9Ol9JIz7GU/u/Ic1LDkQN7PrvUfWWm3/NB1Xbmz/hZaRemxfV+35yXnsaffhqONEcHtnrYHs95tNgvJj85v8wv0QoAREWkQrrC4oeVKVK/TqL+6RJwd107iH+o+KCfmUkG4W4lKm+p933gXm0VBj5S9BYeuA+YdNVWhc7RzIMNojCQMkypH7dLI3dtTSsaxeF9Kk7NDGJDsUrcFH/Z5HKp2TmLSRBMsYNJCga8+HQyYty7F4QnYE2cuHXbFimzNK2eh5zpYnc1WJD9q6NYv7sExde81GSaqvCeyOgjUxOwJclt1KwIPDZ8TwoeO5CvNfNGswjclqQgJ9W9ohaC9FTpvbpQUNb3Kob9i2Yckiopri0WumyH2A8tNrllLuZRjeByfCCChzk9YuMZCwrF7ZqkmO7A3dmatf/MQGaa6ID5X+vkLilpS+YhS7cZO6VBZ1ew//1SeYq8mHmzsOqhLL8Ge04MhTiPRFryF4GJZtega9eRLwJW/7gwJPu8o70DtSebUCDuJSVFqrMZuZIG5UZgZ3YCjH2SrghOzkjd2fyw5YcpfffRFHFuZQXBX5xHeUWu36sVp061iHzMD5t+MB+R49XVMgOCk8S5NRLTKUYk45+eDRF5Qhf2HjJj8fYisZ1X0GjXiuDGgsGkxcHnifayWuTdBjKzUrEyQukG1i1iPjaliARwz4pPNafFCsSGFX3TiL/Ip+SW7Kutfbs9eiUC+OIOkZcG4ZXnNN53ZjK2PCG2UWzPh+c0yhsveXRk6jS5glJQWtc3v7TXoliqiEyZinTG2zRAwyvVtTgu4mB1Pq6qD32hse0D/KP559j55bBLLNmDu77t+/eV81L4qAhB8lypti8KtYvODKWnpWvBbHWVfyQWSIF5gxVmZ+7RdhvlUotSRCgSBlVAi/ftbgF2FSACRenWJn1MbxOisOZn6Tiwyog08Zryq83Y/JvTcuG1p7RvsGqtaZH7OmfGulzGdBE8RWnhkC4J9hWENd/VjhD954djjdj0vpflbSirkLpg9G6x0Gs7jLND5KBl7+/Pothr/9WhqEOBWTr+ochKdmnpdLZmNTSjsJ9TSWpZzK0UBWZYBF7J9GW03bsv5oJXj2PxO1XIrRuHNUvnYd/zw2zZHzVDOCeGIiESL4pAqvELS58Wu+qS5u7uJD7bhw4b2kSFKH9fEbKLRZqaGIot39O+GrbmyQREau0CRz2Kpb7ck6cibaZ2keM/f5rcINBrnImjWeQT4nZCCEya/xeA5F5dC/RigDF1MfZtSUBOnB8C7DbsPVaFFduPYv0HZQO8YjeSBpcWB5snVl2S1gUgTXNO9p6xGLUWeT7S3sJCYdLsC++PAHnbOtA4mPPEch1F0sfETZPHKfVlQMz8qXJloaBGnbqxF895NMJisFzq/yd2ljzOyUVbiUXuTpKWGj2EWZ/om0o79xuGrot/xGFdAlBlru6P3PogkwjeZgTJJ33hFTWKar4hZxD+cUYkdB9hZ2Degc9r1C4FtS1yi1X8bOOA+2/LwgKVfsheaDb+GIIQYzJh52tPoehnc7oLr10HzVj9XiUaXf6noVHZxr0fH3UJzlwWbz8uERbsuQLhH40MqZXn9i2ccr2E6rx06tZiodt2zExE7pOBCL7Xis1vH8eyX59FfmWz9n4brBoLDnUCkSmR6D3Lo7M1y4Z8UWB4ZL+C3/5bi9wimfOj+dpB1JD1nod77XTlzbOyTMjJiHpIg21hqOfEYBmikTZf7LNOK/LL1PNYVofi8+IDJhixvOekH5LiY+ae9L2tCBmiQrSjsgvB4WHY89LfIEkzsAlAfLRL5c6VtV0JokMDME1eocHfiHgpE7ojAnxlTc//hU/yGNT4Txo/cmnGOAtrXhB512up2PeM2nBQ04Ts3CLskQeojxGDTYuDyhNFhUge/mTDjl+75IMui9cfqwoP6ressQ3mPLF2yF2KIidP9JwOposKm3R72yVtOXnLo0V+mZYijVvpwP4zrvllK8znpeMdiOWPD6rkpG84nxalkgstevaou4M/Xvscw20PnBQxQ73nQcsNtLfdxT1puXGjn0GR4Rg/2lPSSv24xZG0X1T6cTunA1yVGN0rEzLOmypfIjukTg9YLY/yd+l2MmL85P55cuH1C1GITRSx/+U65J1xv+RnQFpCT3CmucwebAuX87J8F/JLe0oX+3llRg/tFgs9tiMQMVlLxPdXWs3slhbs2FeiXK4urtdoiRkoG8znrHJLVWNJZZ/CcPHvlKs75eY6D32KHag+XIM99yAqR+IYzfB1FjEJa6Q+peqyZX203LpWcKwS5UP/0t8ozj7FhyrqetLJRbWS9Vg44od5yHr98I1Ycp5JwIGXM3DkpVQk9ZkWbxC8zlIk3tfTW3v7P2OgEkyNJP8wxKeZsHNbOvalBcDf0YVdH1do9xF+KAwlT+xdcdZa0ty7m+goZrKXH8QYTpJNjezb+t9Wj0Lpyst08R3H/Mw1NJYMIyl68JWvL4/31tX2BS6o94fKEJsksgsvzr2Dxp9ko15aNr3jPcCPS8BEzRafEWSIgkmahaSzHbXWnukAF8S5tTiFPSpnEEpg3oyqy1IJEYT5zm4no0Ga33etKMDE3cLSOreR8g7EpPYEZ5rLwkEM9nRSL8tXV1xXL187B8B4arHQaTskzlaz7SbsWRoqggcb9h6uQPZHl4YWdDtbpTz8EqO8SLWwztsodv4KqatrZXjTLNZPDMW2Z6LVlTqaEIfVUh/LTlHhODzYKQu/oSIikTVFHOoqS/eMM9UVt0VA4DaTxBDFPBbfK22vSZuFGLXr1LC0abQwdhNpTiM5yrz9X6dDGcg5GgxBiH9mEf5Jyj87rTgunXcPq0HniQaYlrjkfxrLmoSRa4mqvSPP3ajNU7oaCNfWf/XqeltFs3xlODM5Wt+B5PS14/OAOyxQ6iQ6xgXPR0Cyel/Lwl8g+uAhxEnLx9u8XrI0LEwaAyddABLky7k2VDVYUC3FLW7zaisikCz17ZMGzVy1olqKbmeGunQ7GSUzpEBTuN/TF2lamFLA11p80fHVjaigpD0mvrRzmkTnABiNFgtdt8PVeCOSMhbh3b9LxCYRTNVW1KFwCB/ZZm6UW6Uyn16kzhShsaxWBt799pxbUC9NVfivFpSLbGHtD5KR5C3h+4wBMUtnYa0o7GvNl9zmfddfcIhS9a5u7OeDnTN0RAT1e7lef+FY/oR0qbsdn8ozKDi7k7jOrjOGhE1WWt0td936CLuwq/mR6wwoxiBlcGaLuu+13O7wcKVmpAQiZqaSR4zZMZQDMeA8cQoi5S7PNtQ2j4EvHB4kX7VtvNHuuVLWoM5kIyqNgy+rA2BaKP3gUxf2lkgFa093kqyk0b60TQ8bn+fOYY8u9tjfzicmzsUs9e7QTcG0Hz6DR9RHfYSGorvRepyf59f5fRchy4bfouQLxthQuZW4+otGlHXC47za8YkiwxSZZfXpFpwSj9Pmho9+hUEjQ4x8LFS+bF4sMrlBzd09IAbEJ0n7oQv555u651PNSunbYqHvdmiYEI2VqUrlyX1q9f5ZUWhWCgN57m1P1Nas3nPMOtBYWCHPFBKZOAebkqSAboT4z8GGpYGiEmDDm4erhtGdZvD8xXkjzdxiPnfFS5cAsW/OWZQZOmLDBjfeQSfOObnlgWBqd5KxOx9wBEzy7BgerqoI0jl4SNxGxhl7ZkBxzsAkBYFaU9aJ41J90bcD4AdPBJ4NUp9lP0SOekY6HAPNEw1ITgyRG6H2m2tG9FzVZAxD2hRxe7W5z8BGhaN7bvqsuEivjWceqXNyywN6nd1JuqdbJRo43zeHfOt7eCFUr45Nk7E02oSJ6qPh8J+XjdBl0pk6VP7we+m/4NHuyHyUzZiCNHE0zZUtInj10i9b+rU48bpTF5VpA5Nn6B8+tF27hOomD4OKRAa2P98iZ4iuU9ghIgEb5Et5FuTsq4K1TzntgP12M6xDzfFjlR9UqK65jkOVUqEdhOWpGkGq3tvhztGMU/JguEAkDLYptalObiH2FwF1prdT0NAzx+wBs9pvXvefb/cueGEMXhQntr2mDnsvjkTNRjU5ERtM4oS4Z8XW97VmnOiC1XwWm4vEvvEyQ4fvBGGanC214nMPwanMOSf3xRYcqpLO5bE8H3AATGK/Sb90uuvAn2F238e3q5BX0A67IRBbMly7MYUg3SQFd13I+9cyNN5XVzs1nceuUr3TihXV5U3i/Nb6HCltlCDPObCwn6FBY94A80T/5Bhskbo01VzB3x7WGm8iTfVp9dJ9aDD6Ox9EMJwRJNJIB375Yd80Yr9ahrwz0uw6RqxbONQWaTW/vCPK1pO35Ip3r7KKaIB8H3CLcDjR9Bo2TvJ10O2H2PC/xeqZXntfD8IkhK3/FSZpDVEu/BfU7tmNq9Lym4MaGYo/DCt3IOIJLwM1RlwEkqV+3CJPsrtOB+hO7e/d2Cle6O11PmS/WIfsd04oP+Gbexw5H5ixa98pbMw9ioxfVSC3CUgyJWJLinJpVhGItOcSsUnUB2qrrmCZ9DO90v8dNCNvdxGyxePFb1XglGarxkBEID1JpKVmi1xg+ieEw6SZg+qzHdaiE1idW4St+5T3UpbT2LyjRG5lTluaiMxBtqBUn2uWpzBcNa/3YFktzjlmC8uUOWbLTyg/3w7DPez69XH5OHladpzRo5tPNNZKczFLQdkfznv41Ts9GBC/IgW5sw2ovdwkzxHvPC7K8T2OZYdaUTsxCLkvepqhw5dEcJokBZliP3zYkz7yTrr/Mm4AkueJ1zlakHdOBBRjfT7gGcl4/ftBiLnXIs77Y9jcfQ6J/fv2Fezv9MP65/+mT0XRPyUFv5lnEAFcE1bsON69P3Kln/B+R2QcT4RhpfpafbTg04/L5PM+4w2R/vNOIU/+fHHfNW2sS9b3yu6IGGCeaIjAmnXRWCkqyMXFFfie2A89x+U4Vr8mTfV5Qe0LPlz9nw/+qal4XwqINdLIst0WFIuK3Osvpg5rMHFk8lRRYbSJ4F1URKQflnrMtawiGhgdAm7BEIbF6e/g7TkrkRww2fsAxX75YXLAYjyf8D/x2ndm+qR1u9u4cEzf/jaCFrq1dHddRtfhw7BJy7Fytx/J8cf4db9C1Lr4nm4nY0IAkuLUbgCx3vplD/R1vmP8Tgy2pQTBJALIxjtdKKyxYk9lO8o6gISZYdi5KR17VmkEiROisX5LujwFlzRIzCz9X6kVe6+JAGNyENYvjUH6MBrolUxUVAhEoOk1SNVhO4Jjw5ARKoL4K8p7yUtZO26GhWLbukXYmTHIua8dPdPCrXSde9uT7jlmLfhUulzvHBl834FqcYy8LTc71df6mH/qt/GK9LWbm/BeiYcrInoQ+VXmhgwcyY7A2ukit7prQ0GlOL5XbbAHBmLt0gQceSUdmeEjcLII/ikm/P7HRmRO6JK3Y0/ZbZRrjAnzT45SugaJwz725wM2IPKJdBz4xRxsmeGHxsvqOdTwAMmx4Xh3y3exKVGrG1Mgkp5/Ep+sEvsj8AEKpf0h/s9sD8KWDenY+UwYpuuaEUdizapwrBHpIvK+SP/N7dgrPn9/Q9eopA29DThPDE/EtldMePfJEKQH9ByX/ZYH8A8PQc6qGPjqN4n6Px8CEb9KnL8borA2/AHMVcq2HGoeh7SUKOx7+UlkDff4RMwRaUDZL/6JnhpniLx75CtBvf+N1vb5PjTvycf9G576BogzLGE5Ql/6CR59VF1FRDRqWlG4+zRyrgbi9ZwlyPL1RcWvkfKPCrC+IhR73lgkB5REg1V96CiyzcCmF5Zi/VgcnExjHgNuN/br1Wj5shwdtc5fyZqE8XELELQgHpPHVpM2EX2T3alATm49CqdHoWjTvNEf/DyGMeCmYXHUibRTiV0wYt+rpmHPdU/fTAy4icYwJVBQH3gzby4+f36O+kB/1qIi778o5xQWgSNbkkdoZo9LyHv1Avaqj7xZm52FLYnqg4dUY8FxrDjZhZUrFmNbnwFh36x90Z+xHHCP1XOcethLT+N7B1sxfeE8HFgxNmYmo4cPA26iMazt2gVUOS+2eDMlHKYZQx2FP3h2yxWUWZwdv72YEIrkuDDPfUF9qhW15ZYB/RDKtJlzEfMwd8GwlGHzO00onmDEvr/TanH7Bu2LARjLAfdYPcdJ1Skqr/8sKq+dgch9eYn3GaCIvGDATUT0EGirKsWHFfcB2z0UV3Wg2mHA2uwnsUVzsCG5YpcSGpSGSuw6I43M7ML5860wi9MubWnq4AezE7lgTyQiooeA/XYrDpRasaeyAzcnh2DbhsUMton0cPcu8suk2U5aUeUfKP9UPYNtGi62cBMRERER6Ygt3EREREREOmLATURERESkIwbcREREREQ6YsBNRERERKQjBtxERERERDpiwE1EREREpCMG3EREREREOmLATURERESkIwbcREREREQ6YsBNRERERKQjBtxERERERDpiwE1EREREpCMG3EREREREOmLATURERESkIwbcREREREQ6YsBNRERERKQjBtxERERERDpiwE1EREREpCMG3EREREREOmLATURERESkIwbcREREREQ6euTLL7/8Sr1PREREREQ+9shXgnqfiIiIiIh8jF1KiIiIiIh0xICbiIiIiEhHDLiJiIiIiHTEgJuIiIiISEcMuImIiIiIdMSAm4iIiIhIRwy4iYiIiIh0xICbiIiIiEhHDLiJiIiIiHTEgJuIiIiISEcMuImIiIiIdMSAm4iIiIhIRwy4iYiIiIh0xICbiIiIiEhHDLiJiIiIiHTEgJuIiIiISEcMuImIiIiIdMSAm4iIiIhIRwy4iYiIiIh0xICbiIiIiEhHDLiJiIiIiHTEgJuIiIiISEcMuImIiIiIdMSAm4iIiIhIRwy4iYiIiIh09MhXgnpfX103UP2X87jYYMXd++o6jINfaAQSv2NC/KN+6rrRc6fxNP505QRO3L2AZkeXuhbwGzcTiVOeweq5izEzRF35NWdvuoKyO4FITgiHv7qOiL5eyj8qwPqKUOx5YxGS1HVEROR7IxJwP2j8C/547iJae2JYN+MQIoLZ/5ASIe6NgpYyfPTXnThs87iBKj/MnLoZm1OSETZeXTWKag8fx+riLmR9fzFef0K7JlB96CiyzQ4gbhZOv5CgHTw3l2FzXhOKJ4fjQE4KYmBFfp4ZO5qB9euysClBfd1wtdWj4MgV5Fe3w3xPWeXvb0BMWBBWJkch3RSFSPGYhuMS8l69gL1hETiyJRlGde3XSxespRV470wzjjc5YBXJWxIzOQDxs6di5cIYmGZ8Q2rGwzSggNuZP8ybi8+fn6OudHKg7XIlPjzWjKIGG2rVxhRjsB+SI6YiMy0KmbPD4F91Fgv2tShPDshQKgHOfIsVCCIae/SPbtq/xJ/Oegu2JQ/QeuE0/vTlXfXxyLlX9xG2nntrAMG2pAtXb72FV058gLJ2ddUoipk1SQ6gCy6LyFhTE8pq1GjkYguq1Lvu7HVtKBa3kXFGEWxLghATJZLG+EDM9lXEZhGFdm4Ftpa2o+y+AfGT/eQlJkBUHBpakXv4Ak5ZGGxTfzpEkFiEZQct2N/gQIgI7JxpCXdtKChtwsbCRtjVV5OeHGgsOoFl79Vjz1UbWgN7jsU0kZ8W1liw9Xf1aJBO6/E9z3UvwQalAcDQkx+4LtSPi2asePUsytWHRDS26dzC3Ykvj/87zlsfqI/7MwXxT3wLd7+sg+XuAwROiUB8yuOImaxTu3fzMWz/ywe4qD4clHFL8XeLX0DiRPXxaLBXIXf7FeyfYMS+bSbEq6u7qS1TN0XhVX2nC2uzn8aWxL5BbfnBAqwvBdY+J55P0iPorcfeNyqQd8+ANatSkWNyi+LtLaitakVIUvTXtEV2JH29W7jbzp3Csk9EbTciHO+/kCwHbT26YG9qEBW6CJhmiJoc9WtYLdxXS7B6dzNqJ4Zg589MSDO6BskO2G9bUGb1hynWQyp0vq/P0uo3q4VbucI5ia35RA8JfZsUWypxecDBtuQ2qs98ifqWu+jq6kTrjVqYj/8JX+rRmtxZiQ/KhhhsSx4cw86yMqg9I0aHfxiSIsRtZzuqLMoqV20XW+SWa9PjU2ESt4U19fL63ppQdVm6DURSjE7JwWJFsbSjZkZho3uwLfEPRQyDbeqXA1UX22EX2daLWSluwbbED/4Rsxhsj5DGC62oFbdZmfPcgm2JAf5TRMXHU7BNw3PfAnPNQK7KEtFYoW8Ld81x7P+rVX0wdH4zFuOHT0Spj3yjsewVvHK9UX00VJH4cdKbWCkFvaPEcz9uG4o/KMLmmkDk/vcYXMmrxK4AZx9tF9YKbH67vk8rk9LyFYBtWzKwMkxdqbaemtOSsS8rWFSOKvDen1pQqNY65L7YovBdmxSqrHCSLn2+b0WjZh/Qfty3wnz4S+w5r/b7li4/R4Rg3X9MRtbMQOU13ZTtq11qws6MKWirKsObn1hQcEc8ZQjFO1k2/PxwB9Lk5z0EApVnsXhfC6alJuKTZ6PVlYIPt2PPDrVFSrxn+ckL2HuuFafaHHI3CKlPe3LEFGSlz8bKxKEEKx5auMX3kvrQev7unloHXY95IMx/qMC7pe0olzZ2vAGZCZHY+MN5iJkgHkt99P9wCe9Vdch9ef39/ZCZEo3/9sxcGN3GPFiLirDsmB92vpaOtLYL2PNxLT5W+2MHTwzEyu/NwQZxzveOqVtRuPs0cq66p8uBkPp9l+N/nhCVv2YH2sQaY3Aglj85B5vSovqMbZDTv0Xdh21XsP+jS3j3apf8f+vXJmLCQXE+2cW+2i72lWY91bk/A/F6zhJkTVZX+3I7usdXiPdpqEH+vzch36UfdczkQJiSwrE6LQ4xfSoniuG0cDvHh6zNzsKWRHXlYIxgC7f8Pa9J+V8ypl2uxHsFjWJfKfs/eGIA0uaLdPr9OTCqu6mt+AQyRiKvUPfB9GczkJMsXi/+r/v88vB/jSdPYesx8ZruyQd69N1ekd4qK/Hhnyzd31fKY9LjIrHh+4kaldZ+0lymEQWFVtxMmIM/rZurPSaovyuvRN9Q2rmwrwymcduLrnvSqe5LF3HixnCDbYnItOsq1fujIyYuRIT9Gv24HfUwS833YaFIDo7Cglhx/84tmK/Jz3azX1FawePjHh1wgVfdfB35vzmF7IJW2KKMWJ8ilrgAtFrbkffxWWwWwUQv4ZOUwu9aC2o99CPX1HkJu94yY+O5dlwODlE+J9YPN5tasHX3SeRVdqgv7K34egsaT5zEig8tKO5S+4TODsHceUZkSs+X1YuiWYsN5pIWuQV11TyXCp6Pt2O69KSjWexDM9Yfa0HZxCCsld5TLKtEEHn5mhVvltwaU/2Qq2/fQP6us9hYYkNkrLStIcia5EBhRT1Wv1OK2iYROORW4Jc1DpjmK8+bRGFfcO4SfrCnUi6s++pCbfFZrH77Ej6+NxHLk8X/JQYh5n4H9h6uwLJdZWjslV7EvntUyrJsKL+ivc+1daD84Gf4wcFmFN7xw3J5X4cgwaZ8TrYIKDT3dXMHLlsqkPOWCCAaHiBS7lschIRHo5D2mNgOh6hsehoY0VSHfOmUnG5EWnew7ePtUCsc9so/Y/2uK8gTAVV8nPSeyn6c1tWB/ScbYG7XJ5uPDFeuJJgva105G4Pu3IX5mDgf36vHp/eDsFrd/0n3bSKdXsAPdlV05wvBI5xXlF2txB7p/7rPLyPWzhiHxgbl/3ZV2dRXim2bFY6NP4rCWjldBWLLc3PwrrpsEMe9h5re9jVhr2Uc0kQFXs5jpgCnxHmb/dZJFFg8pF9Pae474VglKtf2mmaUecig7OdvYr+4jU+NYrBN5GLc/yWo933qbu1ZURhfh20wAZYHftNi8W1fzjrQdBLvX6/0SXcQh11k2HPmY6r6eMSFdsJSdAvlbY9gyZLpmKauxqVL+IfSDkSmzMHauSEIH3cT/3L+Hh6ETsHymJ6O5xf/XIXfNX6F5d9NxqKwR9S1gKXiIvJvjMeSRTFImKSuxG2cLRSfZb2Ls0Hh+P+2pOP5BdNhShTLd2Kw7rG7+EIUNMUNtt7bEhCC4MYr+PeGeyioacMTCeGYFtDzWdo6ULzvL/jHJgPWPpeG/3vFnJ7PMT2Ce3+xYu9fbyA2dZbSuipTt++ru6j7wo7Hf7gQ/+9zifhR2mz8KCUMEydMwLhL1/DHRlGoJc7GY8HqvznZa7Hv327ji4Cp2PJslLr9OmyHeIX9r2X4z3+2YVFGKvY9n6C8p1jSTHOw7rvTseYx8bpx/e0jLepnTwrGukXfkj9L1lyP3ec7ET17eq/j36MD1Wcb8dm9CVj5VBTC1bXd79fcjrPBEfi3v30CK5OlbZ2BzLTpSLl+Df9+rR0Ff2nHg2/Pxe9//ji+K3+XGSJNTUZ4RROKGu8hPE7s7+7AU3zalSvYe9mGs5ft+L60X38Yi0XS/yVFY6X0f1Xi/5raUTeud3qdNrkVZ/98F5/VNOJe8GQsmq71XXqzl5zDj4s6MX3eXBzc9DgyH3Nu37eQIvbL3gorGiY+ikyXrihK+v8KLXW3cS1yFj7+rwuxNl0cv7RoxEx8BNP8buEPf+2AuQtYJyoK7qNMGosrkVfnQNaSeViuvq/vt0N+Bf71A3FuicrIu68swbrHpfcUi9iP3//ubPzvT0QiaarnAYjK+7sfczf3LCg4245rjxrx0/k9OV1AeBdaTt7GZ9du4GLXBCwSlcl+T2tXzvd1T6tD5ikNO7+nHcV147DlP6fjV8tmK/vJNZ1a2hEycw5SpK84UnmFug9Km+7i5mzp+P4Nvi+fX9OxKHU2/lPYDXz6RSc+u+PA86lhkFJGwGQjpoePg8Usfdcg/PQ/JePxcGmdEeFBPZeS2s6cxv/2mQ3T4mbh4Es975u2UOQxsW2oEhWGD8pbsCRd5NUux817mhP7quMqPrragQfBvdOqQpzTf6xBgdUPG1Ym9d1vRN9gujR9dF46iaPmun5mJhmEtnpU3/Bdf7V7LRfgaV6PQXPU4Mot9f5oMIQhaaa4lfpxu3yp2ppWNIrD+1Sc2t8lNhSrxE3xl00urY3OWUyCYIodTFIw4MWnk10CTFV4AtbEiVu3bRFFBEyr5yFnujiUDRZk/+oo1u8uQfG1VvV5DU1VeK8GiExNwJYk11YbIXgONnwvUOz7DuSLQqyPZhuwJAU5qW5dW0RQkp4qvVcXCsr6dnq3f9GMQ2J39GqZ0WU7xH5oscmtmTEiiOljfCCCx9z0iH7YsjIZkb02KxCm1BD5snKbIwQ5P5rT+xKzSJuZC6VL4V0ovqzdTojZ0djkvl/F/61cF6W0MJ66jGplrSIiGf/0bIg4Pl3Ye8iMxduLkFd0BY12TzV7Cw4VtcM+wYjXn5vTu4uKQaT7ZyLlzyk4V6vRkmlD8f0I7MxO6O5q0C1WaWHUbumz4FSFlF8FYbnYPwqdtgPtaLwtbiZNwnT381Gcp/4T3bow+JL/XGx5MRyZIsYrPFmBjO3HsfWTKtTeGbt9i6UGiDXu3TpEelv+pJQGHSi75tz7I5xXiHNpw4q+x9c/KUZpyb6q9JcfOAs+Le4QeUwQXnlO431nJmPLE6Iids+KD89p5cOe01xk6jSkiduC0rq+V65ERaRY7ANMmYr0UexqSTQW9cm+h+3BRZwtaxLZlO90tdSh7E+fyFN++aKXyt37Pp5+cGR+OsiDECTPlVoZbDBfdGacTTBLBb4hBAtmq6v8I7FACswbrDA7c8m22yiX+hVHhCJBszOeJ+J947SSToAIFKVbm/QxvU2IwpqfpePAKiPSxGvKrzZj829OywHTntK+BZC1pkWe7ipTBDZagqcoLStSt42+grDmu9odfP3nh2ON2PTyikZRIXFlQ1lFqyig/LAypaek0Gs7jLND5L70e39/FsXWsRugdDNMQsIM9b4rowi6pdvwEMzWSEPBk9UWMA/xcFpsmHY/0MnRyNKoSEpZljF1MfZtSUBOnB8C7DbsPVaFFdtFJe6DMlS3uX2QtRnFUkA6eyritZLs5EC5S5Z0Cb1BXtHbmicT3CoZThFITxIBi6MVRV/0XO6XNTWiQHymf0I4TM4vp9t2iAq3dI5bm/Dm4XpR8VHWjhT/mSnIfTkFO1MDYHRIXYiuYHXucSz7tRnmMZiuMxNc+lq78A9UWobN1p4QckTzirBQmFyuAPXwR4CchjrQqBWne2K5jiIpvcVNg6lPRUxiQMx8kRbFvYIa7Wk0Paa5sBgsl/rFiUy+WCo/XLSVWOTuJGmp0Up6JqJumln4cHRWXMQNjcEcw6fM1X3yko86hn+NGGcEyZlb4RU1Mmm+IWeE/nFGJHQfYWdg3oHPa9QAobYFBeImfrZxcAOWwgKVfsheaDY4GoIQYzJh52tPoehnc7oDpl0HzVj9XmWv/roNjco27v34KBa8WtB38fYjGmHBnisQ/tHIkFrhb9/CqSZllcxehyKNlhndtmNmInKfDETwvVZsflsKUM4iv7JZe7+NBSKw9nrMxfODSkOqmDBP/xWCafLlaBtqtS5HGWdhzQsiHb2Win3PqJW4miZk54oKXI1LP1lLuzxGAZUXtI+fNMBUfqGWAMRHqxUGDZHJU+WxCYcq6noFLI1lt+TAa9W86J7KhG7bEYLMZ2dhrdhXxcWj1MocHI60ZzNw5LXFOPCcCFJF4Gi1WLHx7SLsOKN18EZLgEhv6l0P7F0u5ctI5hXhQf2eP4PqnmntgFncRE6eqF2hlUyXxlkIt20aYyy8p7m0FOkqQQf2n3Ft/W+F+bx07gVi+eNDyQ2Ivt58HnBftXrpJjBsD3DjUiU61UdDFTaxv3BxMB5FaHcf51EyeyoyxZG0X7wlX353Tge4KtGlwBeM86bKlwIPqdMDVl+W5lt06XYyYvwQPGOuEjD9QgROE0Xsf7kOeWfc044BaQnKQB+Py2y3S7f9CoApNVTsly7kl/aUovbzFuwXBZp2y4we2xGImKwl4vsrLbV2Swt27CtRukgU12u2OJEG/zDEp4lK3LZ07EsLgL+jC7s+rkC1W3ASGaEOYPO4iABffe2ARUTLM6XYqywwdx+wJpwql64uhSIruW/Aost2TEnAlhz16pGhp5U5+zclMN8ewRrc+BDEJKUgJ+cpHFklXcFxIP8PlcrsPA+lsZJXDF3MZC+F0zBK/+DUyL6t/231KLwqbnsNFCYiJ58H3A69u1e03IB0Tg/Lo4lIVu8OW8BczNS8ZDeCDFEwSbOQdLaj1mpDudzCF4gFcW4FftijckaoBObNqLosFcZBmO/sdjIajCLgXCuCJnG3sLTOrf+qAzGpJmz6sZdlocehXp4lROJFccyqK66r/SJtMFdIlQ9PLTM6bYfE2VK73YQ9S0NhEtvidcYK3dhhG40o/76PAkJDEOKfWYR/ktJypxXHpRZIF43GcO3j1r0kDuESuBGZJqmlrx3F59WrRteuI18EmJEpkZrTBeqzHUL31aOnUbRpFrbM8EPttWZsfPsE8j3NRKEbPxhNi5Ar9RFGBz71wdSwo2Ys5RVDUHvHS/fJ4SQL19Z/deartopm+YppZnI0OFaSqC+fB9yhk0Y7+hyA4Mcgl5M+EDklEf1cpRwBAUiQL//ZUNVgQXWduCtPByg/6SICyVLfa6lf7FUrqqVycGaoS7eTUTJDCjSF+z2Xc6eFKZWFWosOhbWooMjTujmnSXQO9NFomdF1O1yNNyIpYxHe/btEbJoiPq+iDoU6fKT9gYdS1nEPjaPQEll9w9OXtIp9Lt323w2gRyBiZirHq7trjrOPuaXdw/Ruw+OcPm5/Ra1cQao9L1Vm3aaKk+i8HT0MCJ6egLU/y8DvnwmEv8OGN09KGcJIMyAmWs1kRzre96WxmFcMRHiQfDWz8Ua7hyk5hYZWudsJpgQMIUAOgGmhUVQOu7C3REpfPd1JspJ8OKMY0deIz0OtiOnT4HkSKh8ImoJH1btDNxmLZy4Vf4drMVbHD6k9yueMsaFyK3H1F40o6/Q8r3Z84hSRSdpQfboFp8TjtLnho98aoZHxRz4WKvePLRaZ+aDm7h4QA+KTpP3QhfzzTd3zxmal9G2Z0Xc7NEyIxspUpfLkPrX6sPiPk1tOzRYPXb4u3kKhenckmWss2gFBcz0Kpe8/oWe+6f7ZUNsgtTT7IdJ5IMO/hQxRgUHzTRy/psMBdA7urLkJs10drDxhCtLcBxXrvR19GGBMi8Iacc9+Xe8gX1ttvdKXfnrIyHWh8L0xnFd4YwxDmpTerjb3GdiocKiVQ/Fd4iI99/P2Jk6Zk7uxRlSOnd1JxLr0US9QiMYm37dtzkhGgtF9VlpfGScCy0RI+chw+c1cjU2hwwm5/bA45gUsGCsN+jNEIS+OprmyRQSvXvplxyr9vU9dVKYNTJ6h/+CWtmuXUN3kMpDNlcio9+db5Ix/TVJMT8YfkYAN8iVLC3L2Vcm/QNibA/bbzbAOtRuEOq1bdc11HKqULhG7TuHmQu/tcOdoxqkyKWgMRIIvhxpEhyJdOtur6vp2Meisw55PrG4zMYyQhka8a3YbTHbfgvyPm+RxCGnps3umXRNhY3V5k9jXWtFMF6zmEuQ5B7N1z6gigoKMILkfbu7/OotirT7N9hY03la7hAyac/q4dpgLr8v9lbV/8EPv7ejLXm6RK1GRUSFDGtDqXat8FaaxU2twpgNtl0uRd0bqyx6CjPlKy+9Da0zmFUGYJheErfhcntrVnTO9deCXH5ah0W0iA/vVMuX4TDRi3cKhtkiLyqbJD7gjypyTt+TuJL3ycCLqxfcBNybh299bjNhg3wfdE6Y/jkVxvopwJyLR9BpemDCU9ng/zDT+D7wQN/yfavCdCCRL/bhF3mt3nQ7Qndrfu7FTvNDb63zIfrEO2e+cwIJtR5Gdexw5H5ixa98pbMw9ioxfVSC3CUgyJWJLimvBHIi05xKxSUQKtVVXsGz7UeX/DpqRt7sI2eLx4rcqcGrI3SDUad2aLXKQ1msKt1702Q5r0Qmszi3C1n3KeynLaWzeUYIdzSLQXJqITF+2FPnPwdpMaVChDTveOYbN6nfY9UERlr1RiU+nR2Ob1FI7ogxY/0QIzIfOYtlbp5Dn3AdvlGKHSBPB06PwyhLXULEFn35cJh+DjDeOIztP+Z/cXeL+9uNYdkgEgRODkLsuWW7Nd/JPTcX7IjDwl2aEeesoVu86rXx3KQ3+Shy/7Wfx5l+lQGpo/NXp4/YXW1Au8gbXqeJc6bMdl7BL7I9s53upS95usT8+FpXqiaF4PUt7Krzh6UL5sUqs2HFcbLd0Xp9Arvy54px4Qxyf9yyiwuSHTetSPJxXD5PRzSu0BcCUJM2B78CuD3vykbyTPb/66UxvaGqSj5PzNbm7jmLZbnF8DIF4/cVU7WkqB0iZqccmgneRbqXK1WMPeeWKSEc6BNzCuAg8vnwFvpcYgZAJww+8x02YgqjvPIX/mBYjwnkfMoRhadrreHHSYFq6/ZD4rdfwPxbE+uCX0XwpAElxap/JWG/9sgf6Ot8xficG21KCYBIBZOOdLhTWWLGnsh1lHUDCzDDs3JSOPat6z6gimxCN9VvS5WnfsqZI3Q/E/5VasfdaFzA5COuXxiB9GE13zmndpAbTXlO4udNhO4Jjw5ARKgrmK8p7yUtZO26GhWLbukXYmeHrkQEGRGak4/c/DkOWSO7O73Cg3oDlWfOwRwQKMSN+KdgB++xF2PfTKCyfeA+flknb1Iry8YFY+8w8fPKzeW7zAEdizSoR3E73Q+T9LlQ3t2Ov+A77G7pgDxT/szQBR15JR2a4e6IORPyqDBzZEIX1Uh9vS6uyv0UavCzO50wRIG/4zjCum6kDyOSGd68/+KHHdoQhfWEQpre3I1/ef8qS32xA2sJZ+OT/XIQkXa7CTUF6VoT8PWLGO1B9pwP7xefuvWrDzXEByBKffSAnA+udec1DbjTzCk/8U0zifDYic0IXCirF55TdRnmvMZI96W1t+AOYq5RtOdQ8DmkpUdj38pPI6nOuDFLEHHE+KvvFP9FTRYSIJI98Jaj3v9GaLx7EB1cPo0wU5Nr8MHHCf8Cm+c9D5L1EY5O1ApvfrkdxRBSO/HyeDl0JfMNaVIRlx2xYm52FLYnqShpx5R8VYH1FKPa8IQJzdR3RYFQfOopsM7DphaWigjUCLThEDymeHaqw2B/j5af2YE/qa3h5xo+xdOpSdVmJF2a+hje/uwf/zxIG2zSWdaGxpFnu+5wUGzZmg20i+ppw1KH4vEMZKBzLcILIG7ZwE41hSguk+sAbPwPi/RyovifuTwzFHt26EvgGW7jHhrHcwj3gtD9vLj5/fo76gEaSvfQ0vnewFdMXzsOBFdo/aU9ECgbcRGNY27ULqLqtPtB0B8cO3cS/SpNbGAxIig3HK8/OR3zw2G5tYsA9NozlgLv/tK+aEg7TDM79POI6LyHvny9gb2cgcl9egszhTPpF9A3AgJuIRhwD7rGBfbhpUBoqseuMNDKzC+fPt8J8X5pRKVWHQd5EXz/sdEVERET9u3tXnQ2nFVX+gfJP1TPYJhoYtnATEREREemILdxERERERDpiwE1EREREpCMG3EREREREOmLATURERESkIwbcREREREQ6YsBNRERERKQjBtxERERERDpiwE1EREREpCMG3EREREREOmLATURERESkIwbcREREREQ6YsBNRERERKQjBtxERERERDpiwE1EREREpCMG3EREREREOmLATURERESkIwbcREREREQ6YsBNRERERKQjBtxERERERDpiwE1EREREpKNHvvzyy6/U+0RERERE5GOPfCWo94mIiIiIyMfYpYSIiIiISEcMuImIiIiIdMSAm4iIiIhIRwy4iYiIiIh0xICbiIiIiEhHDLiJiIiIiHTEgJuIiIiISEcMuImIiIiIdMSAm4iIiIhIRwy4iYiIiIh0xICbiIiIiEhHDLiJiIiIiHTEgJuIiIiISEcMuImIiIiIdMSAm4iIiIhIRwy4iYiIiIh0xICbiIiIiEhHDLiJiIiIiHTEgJuIiIiISEcMuImIiIiIdMSAm4iIiIhIRwy4iYiIiIh0xICbiIiIiEhHDLiJiIiIiHTEgJuIiIiISEePfCWo9/V1vxmVX+Yj33IalQ+61JUTERm8Ei8kPIPEqeqqUXT3yme4fegYOsqq8FWbXV0rhM6G39JVCM36LqaEquu+5uxNV1B2JxDJCeHwV9cREdEIai7D5rwmYKkJOzOM6koiehiNTMDdfBo7y3+Lz+87A213k7Eg+jVs/naY+nhkOawluJb7JmyXXIJsTf4wfP8VhK9LRfA4ddUoqj18HKuLu5D1/cV4/YkQdW1v1YeOItvsAOJm4fQLCdrBs5qpF08Ox4GcFMTAivw8M3Y0A+vXZWFTgvq64WqrR8GRK8ivbof5nrLK39+AmLAgrEyOQropCpHiMQ2B4xLyXruAvQjBu9sWw+S1lmSD+cMibKwC1mY/jS2JYp9XnsWCfS3K09OjULRpHoKVR57ZLyB3xyXsF8lL1Eqx541FSJKfGC4L9r9VitzbgXg9ZwmyJqurNViLirDsmE18jyzxPdSVmsT+eVXaP1rb6UDb5Up8eKwZRQ021N5X1hqD/ZAcMRWZaVHInB2GwSfNnvPIledtHeHv7XrMXUjnZHLEFKzMjEdWbN98pfyjAqyvUB94kOYWIHr6H+WzjFj7H+ORNj1IXdvz/ZKeTMGerHB1rQdNpVj/jgXlYRE4siUZyqcO9phqHytJzORAmJIisTZzzgDzJwcaj53AiiIb0GubtPeD+77qZYABt/K+Adi2JQMr3YvR+1aYj1XjwF/bcarNAbmUG29A/JSJSEsOx/LHZ4nv6Ne9zwfM7bsNiJrmvH5noq8p/aObe5X4oOxdL8G25A4+r9uODy6rUdgI6qx6H5d/vmMAwbbEDscfdqDpv+7GjTZ11SiKmTVJDqALLmuUErImlNXI0RBwsQVV6l139ro2FIvbyDijCLYlQYiJEkljfCBm+ypPtIiCI7cCW0vbUXZfZPYig5eWmABRcWhoRe7hCzhl0T85fm0ZYrA8Rew/RyuKvuin0LTXokgE2zCEIjNBY583WPCpKOP7Yz8vAkQPaWpYrjUi/7Z0pwOf/sUqr9KPCI6KTmDZe/XYc9WG1kAlXUrLNFsXCmss2Pq7ejQMK2kakJZgxPoUZUnyFEiP6PfuERkR0r1t6+MCETPeAfNVK7a+fxqrP7wAT1mdFLw695X7Mm2C+qJeeu+HtTMD1M9qxuZdp7D+UJ0SDArGx8OQKW7LKxrRqKzyqLb0FsrFbZqotCvZ1XCOqR+ynPsiJQRZYQa0tnVg/8lLWLHjBPZfG0BAerEEm6VgW8M0kaF27+uZfupaHXWKCtebZmw82YrCDqnyoO6LSUBjczv2HLuEAxfVk3hCz37qXiYqT8kBuvtzYiHv2s6cwIK8MlGdI9I94O5C5fmdOPZAfejVHRy78AFOXy9D/ul/xC+Ob8Vb5hO42q4+rQPH9cNo3J4Ph1td4JFnf4mo9/epyy8x4VvqE043DqPl5d1ovqs+Hi2xoVgl3V6+hWp5hZvmGyi+AyVjdLSg0EPEXVWr7OTM2VHyLRCApB8/jc+3LxEFjrpqWOqx97dNKHYYsGaVCadfexr7cp5Slv/+tHi8CAeem4unZqgvpyEQBeK8KYgU9w5V9AQuWuznb2K/uI1MiUSSWw6wMi5IVOK6UFBmUdd4IgrwcyLdTAhEpk8bqhyoNjeL9ByANJH2ikvq+g24huVqKTYfs8E+MQQ7f/EUjvx3NV1Ki0inp19OxrvPRqsV0aHyQ2aWCZt+rCyZ09XVvYzw93YR81h897ZtemEJ9r2ahc9/MQtrRLBVW3UJb55pVV/pKgCbNrjsK7dl2xNaiaL3ftjy0wzxWWIfb4pAmkiH5eYq7HUGf5Ojlf10+xZOea38NcFcIWXggVj+uPqZwzqmk7DGuS9+vBivb3kaR7anY19aAPwdNuT+r3JUe6tk2q9g18dWNMSFYI1G6Rq5sOf7b0oXUa+uxDm67wL23hOVkbR5KHLNd3OeRpHI3z/JnovV8wPkVxufEN+z+3l1+aHahzJhTt/nfpI4uNbtbxwbymtELYdIpW/A3WbG4ZbBtFqfxrtlb+FgWyWa719F2a3fYuvZD1CpR8N3ZzmuvbYbWg3vj4SGY2LwJHUJxzit3hpWEXT/Swk61Yejwj8MSRHitrMdVRrxUdvFFrnl2vT4VJjEbWFNvby+tyZUXZZuA5EUo1NysFhRLB3DmVHYaNLIov1DEZMUzcx7uGLDsWqCKPNrmlHmMeK2iQBFqmAZsGqes4LV4+b0ULwo3qPcXKddiXO6U4fCBlGZSw2XgyWfcdTi01IR0cwMx4YEUVG83YyCi+pzOmi80IpacZuVOQ9pRvcWOwP8p0TAFDsCKXOEv3e/jAnIWW2UK3AF52p1bKET+3h6Ml7PChT3HaKy6MyjQpCWLK3rp/J37Try74jb6UakqVcOfH5MDUGIfyYVfy9VAO5Z8amnS4XoQPm/1mBPZwD+/plwEaCrq0eLoxnlUt4+wYhNz0Qh2P08HR+IyMQ5iOEgHX3Y62AezXOYxhx9A+5bF1Cp3h2yB8fwwQXft/W0HNkN2zBLka+K3sfNOvXBqDAifrZUoIgg6rJ7K5Szdi0C6YVGmEQQ1VhjlQuiXqwiGJYKrLBQJLt02pX6BC54tQj5vXqrSP1BC5B9uElk5u2oLj6LnDek1ynL6rxT2Fvet08o2uwQsRkQHNB/v2B3Uv/DT05ho/Nzth1F9q6zKLiq1XKgbN/mIunAOtBWVYqtuc7/O4uzxSfk+8rzHlSexWLxmhW/czuwPtwO6fK3TLxneZHYh786Kn+m9Pzi7UexcbcZ+ZVDSJyGaKTNF6e01K3kvIdL322X8GmNuJ0wBWmxGqf/uAjlPTpvo9jZHUlD4xkLCuGHlSm+HXdhF8GV1E0la34UkpKnIkkKwsr1O8na2pUa97TJ2mMgRspIf+8BiZ0qd+tAc4dy/uooeIrSytrY0dMCEpwUhixxW17e2DffUlWXSFcFgMzk6O68RZ9jGoKkOGUbay1yv58+7OXiPK9wIG1pko+uDA7TXRtuSrfB/pgmrxjDpL7qIv/LLRH5lprXrt/uLa9tRcEu6Xn3MsqVQy3HjmJPr7xM6t9fgbxdR7Fsm/IZGW8UYesnl2DVyPKkvu0LXj2FYqkRw3oBe3cf7/4/Kb/O+agCtb1a3lpRfqgIy3Zcwl7p/ZqbsEz6HuqS5x4UtVlQ7Pp9xSKXpaUeygB1Xynv04XGc2ex2fm/71TgqlrOrS/wVlEtRbb0+t2VHruMke/pG3A/kJLD8DV2agRxw1KN1kNarb0KR0N/l9Od6nHvSLk4fUdPTFyI0grl3o/bUa/UruVAOgoLYsX9O7dgviY/281+RWkFj497dMAtzNXN15H/m1PILmiFLUrtjygKo1ZrO/I+Fif/CbeMInySMljrWgtqB7OzOi9h11tmbDzXjsvBaj/TWD/cbGrB1t0nRYajfbmu+HoLGk+cxIoPRUbWpfY3nB2CufOMcgBRXFbvocVOVFxKWmAXp0Wv1l8fb4fco8DRLPahGeuPtaBsYhDWqv06V4mC+vI1K94sueW1W4gnzm4l+ytqNf+/raIZBeI2cn444j2c/fGpYYgXqfq3JZ7CnCacKhdndtg0PCVdYfGZVhSeaRXbHYjMeSJYioiWB4A1loq0PJSdMQCR4UoQZb7sOT/Q38h/7wHRt3To7b6SMfj7uYxGF/lW5kxxq5FvKepQfF76v0BkJfUE13od0wBvA+U7q5B3oBU342bhn5aMkWt1wUGYLfWlb25D1aheih24squV2CPltSLwjoxV8sS1M8ahsUHJa3dVORsSnFdAbCis8BCY2i+hQApKezUuOJQ8+b167LWMg0keUyDey8+GgnMX8INdZWjULKNsqC40IzvvEt5rCcDyZOX/MgMd4vPrsfqfz6K8+1wNwLTEKLy+WhmHAFHxe/25OXhXXVa6dimzVCDnrVJsFmVLwxS1bEkMQvBtUZYeFJ938JLHcqDWUo/yg5/hx5+0oCpALV+iQzDTWVH1Mv6h9rzSDXVN6pzBN4LRkOmWpd5rOIadtSfUR8MTOcHHc/HVlcM24GpdF77S6sLodLoEvq4ODMpstRXKvR+3eFwoMg4lkDYgKTlU7ptbfLF35lR7TemvY5rVz0wArmoseNMRjgOvPo2dL6j9EV/IwJGfRyBNPF382eXe2xIsMhlpppM7zVj/m1JUtw0k6u5A8ccXsKfNgLXPpePIS4t7PidnLtZOdGDvR39GodQ6785ShzeP2bD82UUoetWlv+HkaGRJBXjzTRzX6hdqr0ORs/U3znlq6LAd4il72QW8KbYhLSO15z3FkrPpaRx5bQmOiIx5SFd6Y6OwVrq0Lo7RqT5pvBXm81LlQKpQRCurtMyIxMopYhsrLdoBX40orMT3zTTF+LYbkNpNBXHhSJdLAVFBMolCdSADQYcoODVS7mtbfUYUfAX1GFDS9LVR+N4D0qa2kE4ewpWpQekQ6VIZR7JqjmsNLgTpqdLMJV3YW6LR2n/RgkNSIDkzDCaXDdTrmN68ozQfTQ/pmU1FYUXBb69gv38Idj7nYSaoUSHyO5N0BbQdf5t3GsVWXzR/6au6xIJPp88SeeBTeD1byRO3/PQpkR9KDUsO7PnsUneLrPMKiKfxDvYvmnFIHPtejQvXyrD1aAdsERH4ZJvzMxbjdZE3f5IhKmpNTdj8idaVpS7sOnkbyatEXp6Tji1yfi393xK8K83ydK8F+0ucgUIAIuPmwpQUKjd+wH+SuC89VpYY56BpRx32/LYehfcDxHcUeb6zHMhOx57XFmFnggHVpRfwS80xFCI9fnEBO8oMyv86xymsEPm6s7z12C1NHfdgCEGG2n+fRoYzGfpU17WD+IeKD/qZmWQQ7lai8pZ63wfu1VZh4HMh3sKD6+pdLW1V6PRQwR4RhjAkSUGk1I/bpZG7tqZVZEIGPBWnFmDqAMviL5tcLiE5ZzEJgkmre4FHBrz4dDJi3GciCE/Amjhx67YtUgZkWj0POaJm39ZgQfavjmL97hIUX/NSk2mqwnsi+I1MTcCWJLcCTmQoG74nBSQdyNeazaFZBClLUpCT6l5R6ynAtfqFOjPo+NQoxKvr9NkOsR9abHLLRcyjGiHr+EAED34OOlUETPOkQrYDhRVu+1cEdgVXxe3kMGRIVzw8CsdTqSIj1uya4kB1xW2Rtnq3KvqC0k0FWJMU0x20BKtXJfaf8TxbxrD4z8WWF8OROR4oPFmBjO3HsfWTKtSqwdVIGJXv3S8Hak82yVdDkpIiNQYY2rAjr+cSeO/FpduUVw7Ybzeh+OBpbK50wF8EQWuTewcA/vOnYY24bTxv6V2Jl9JhuZQONVrp9DimnVXILxGZQ58gRZoRpRy/bBIV8h+lyF33xpLIp1OxM1HkB22t2Pz2cSz79VnkVzbD7qNKiO8FYsOKBBjdsj9/cW7IDQlXlf75MpH/LpfKG82BtTaUifzPDj+sTXU2Lthg/pNFpM1A/P26ZESK9NHDD5GZc+TxK7UljSjX2j/TI7GxT14eCNN3pSuCQMEVj31bNNnL6vHbe6K8eWIu1s6UWutdGEKRtjparjgWHKt2S/uK6qYu8ZpFWOP+v1J5K7bTX6RNzW5p6rgH/7gwJLP//ojyfcDtuIiD1fmQynVfaWz7AP9o/jl2fjm4BO3Jg7u+nfrkqwHNwqKXECTPlQoAkZlcdAZYPTXYBbPVVf6RWCAF5g1WmJ0leNttlEstsxGhSBjUiSfet7sF2FWA1F1QsEkf09uEKKz5WToOrDIiTbymXJoK7DensXh7EfZo9FWz1rTIhXZmbN+BfRJnn0+p20ZfQVgjMkEt/vPD5Uys7+W2ngx6ZUpPK5te22GcHSIHMXt/f9bnLU8xKVIfYJFRn6/vFay1VVjlwC5+3rf6nXXDOS3b/nNuAZ/9EvJLRXCUEKm2xvqKqAyYpTQbiizXoMt5VaKhGYW+Of378J+ZgtyXU7BTVDKMDlEZO3cFq3Ol4MQMs+6tgqP3vTU5bGhruoL8fUXILhbbNTEUW76ndfWr9xR/vZcQD32G3YP0o1j8Vhk2lz0QAcJc/H6TCILcsxX/GGRIrXXSmALX1jpHPYq/UBoL0jRa6Xx2TDutqDWXIOefr8h97NMy5/ae495yHm8W2jA9JQ6bEt0DnzFACtyyv4vfZ4t8TwSsVksLduwrEfnuceQWjdIVHW/CQmFytgD34o8Aeb93oLG7uBCBpaj0a86q5LxaOWUq0rtnvxLlorTOGKo9NadhEoxSnuboQK1G+0natyO0r/RMMCjp3doxiMHFDpRVquVNsnbZggkxSJMaRjpbUabVpWpyGFYmeUhzIn+WKg+NX4iKqtsxdo57kCqqgyr2adh8HnB3XfwjDusSgCpzdX+k2Zfvm804I0i+dFXorGGr0wH6xxnRM82yMzDvwOc1aqtlbYvcghU/2zi4rgFhgUo/ZC80W1AMQYgxmbDztadQ9LM5yInzQ4Ddhl0HzVj9XmWvvnMNjco27v34qEsB7bJo/GBHt7BgzxUI/2hkaLWKuGbQLle1dduOmYnIfTIQwfd0aHmKiETWFHErKjXygFhZK4rLpO4kvSsUHnUHfOqgWpVz7m2pS4pPM+sapXtA36kKnVclbMgvGejYiiEIDkfasxk48tpiHHjOGZxYsfHtIuw4o2PEO9rfWyg+Zu5Jz9uKkPFOFXZUdoldEoY9L/0NkjRbbXtP8dd7SVQupffhFqTH+slpKCY1ATufndOnVVMRgOR5UlDl1lqndifxTwj3/CNPQzqmLVjven7vEHnTIVHpsfthzTMigM9wqUA7mrD/Q+UHw3KfnTWGgxc/GBNTkJPzNE6/lIjX1UrI/mMVWJZnRvVY6t8dHtRvWWRzySP9HwvDKpFu3BtQnFcrk+ZF9qTF5jtK8GltwgrXY9y9aP/wkVNMeD9bdn8wgc9tNMqfNR7TPPaYDUDMdKnM7kKj1mWuGUqjjSbnAHpRYcwvc71KqY57mGDEcq3fYCBd+XyPX2gxq/f0cAd/vPa5SH7DMyminwmfW26gve0u7knLjRsiq/cmHON9e2V98KR+3OJI2i8q/bid0wGuSuwdFBnnTZX7WB9SpwesvqxMD9fd7WTE+CF4xlyseUEE3s75fi/XIa9PXzVvrWjqMtutm0e/nJfbupBf2hNxOwPJtNRojWBBj+0IREzWEvH9E+SKh7275akIecX1HgfKDEw40t27lTj7CbtVKDwTAZ9JCnQ6sP+MM+Bzzr1txEq3S//DY4P5nFUuMBtLKvsUhIt/p1yR6neqQl8QJ3NMkhScPIUjq6QCzYH8P1SiwKXS4Ttj43v3+uEbseQ8k4ADL4tA9aVUJPWZS2443IL0FxKxRVQMa82XvMw00RNU9bTWObs1DbDiN6hj6vrDN2JZGIGdP0nB6W1PISfNtaVfbMMn55F7JwDb1iVDrxlVfcsA/3BRkZYqITnzkCPyAbvVir89PMqz4QyH/xxkSb+0KjWgdDfGifOqXGo9DsDKVI2rM1OCeqX3vkto3+6SugnANC9XCr0O1O1H/MIw+Upnr99lUCuqkY95HjRP+vH9Lv9K30uwXW1f4IJ6f6gMsUkiW/Xi3Dto/Ek26qVl0zveA/y4BEwc7X57hiiY5EtP7ai19kwHuECdxqpb2KPyXLVKYN6MqstS6RWE+c5uJ6NBmu93rdIHrrC0zu2SnAMxqS4FtNaycBCDPZ3Uy23VFdfV/oAig5bnpnb58YxedNoOiVFUOKSKx3YT9iwNhUlsy97DFcj+yPPo9IGIlKeWE/u0rE7uEuLsTtKrxacffVqP1KDd2wwnQ+K8uuDh1+zkRYqq+pmq0Lf8YDQtQu4TSsXl078O/GLxgI2R793rh2/EsiZtFmLUrlK6MkRgVYb0Q0s2vPlvXqYnc16VkruViP3g7E4i9ad+bDDbOZBj6vrDN2JZkYy02HD49+rvK6nFp2ZpW2zY8Wutq1/Sz+kL3VPCeZu+bhQER2HNi7OwUtxtLG0cYJ/7sciApFRpvvgu5J9XG1DsteJ8EbfTw5Cp1aNvfDCecz3GfZYUUdFUX6s7G256TPji2eH0FlCvdNqrega/KxVV7d9gIP35POAOC5SuQ49xwfMRkKze17LwF4g+eAhx0vLxNq8tKIaFSWNgWp0AJERLBY8NVQ0WVEsNFm7zaisikCz1vZYGNV61oloqb2aGunQ7GSUzpEBTcLkkNy1MKUhrLToEOqKCkvaY+NLO6ca6M+ieH89w0nU7XI03IiljEd79u0Rsklr9KkRwO5yPVKeWU/rst8L8hVQJ89Di44n/HKyUfi5eHe3unHt77UIvM5wMQZu5Ub66kPn0op5fsXNfViuDgH57rndFJDhEqTpXK9dnPXPOuBER1G93qB4GxESrfSR1iHfH7vceOf6p38YrIp3ar9bjvUr3AbpOLoPAKuuBy2p3kkQv3Uk88tUx9cM0rQpS92JQygVDT2XKpxcLfGGCyHOk9gUd0vaIUn/wy9mA4vwlXde52WXGIKULhrUDDaP+nY2IkWNeG6547DFmQ22DdE74IXJIQUY4lj8hpfV2fCrPoOLsTuI6CxeNJJ/v9bBHFw+4BW1IJs7FLPXu0E3BtB8+g0fUR32EhqK70Xqcn+fX+X0XIcvGRk3RGBsqtxJXf9GIMlEYeZpXOz5RmqfZhurTLTglHqfNDR/9CkODCAil2yk9049FPhYqt9BKUz4Nau7uARGFYJK0H5RWEWcGnZXilkEL+m6HhgkiUJZmCBHHyH1q9cExIl3u9tGBz8vr8bk0itlTi49Hzp+Ll/rPlqFQmnt7wF1SBsqKQrNyRUaeg9oT9aqE+69o+ot0Lw3uNJ+74uUntx1oPGdRZtyIDRvUeIXaemnbtKaCG66x/b1HjhErvy+CD7Gtew9Xej7HEsLkwc7Sj3cVqDMwvZja39Bfbb45ptFYq1VB6l5EZVV6mTEcv5YfpyNzrB0Au9roovu0jzpz9leWG1B6rlb2mUVJamiRBuA6WlBQqqSB0ZQwR2NsgqvOWmWg8IQQJPfTC9YT59SJBTWNsKvdSXrNwkUjyvfVnG99Dy+Eag0B9oXJWBptwkT10XD4z8tG6DJpZNlQ+cPvpf+CR7sj81E2Q9RaxdE0V7aI4NVLv2zp1+PE605dVAqt5Bn6lwJt1y6huslDBtdWj/35ypRfrtOiISIBG+TBjRbk7KvS+AUwaUqxZlhdm/0GQ52vurrmOg5VShl0EJanagQ+em+HO0czTsmDXAKRMMwmSedMI6f+VI9D4rZPi89AxCn7qbGkCXl3xHs8Mce3FeqmOvlSuzTrSaa3bEMUqvKcwo5WHDC79PWfnIgNJpGg71mx9f0yjTneu2A1n8XmIrFP+8y40SpfSWjs1Oo0Jv0aXSnyzojn9JivdlS/9xgTG4+N0oVRcY69d859HIfKEIPl0tWWO814r1QcE0+/lDqax3Ssaa4TAWiL9kDs+1YUf1wnNzRoT/v4cFF+rKsLxecrlSC1e057VwEwifNAakDZf+gs9mv9SvB9aRYUD2lw0CYiUjq3m0WZrDFewD85Rh7D0FhShbxyZbxGN1EpKD4gjo84dllL44ceIDvn5L7YgkNVUpk/wEHzpAutHGuYJiLR9Bo2TvJWigyFH2LD/xarZyqXUodvEsLW/wqTtKaRKPwX1O7ZjavS8puDGn1p/WFYuQMRT0xSH48FEUiW+nGLE9TuOh2gO7W/d2OneKG31/mQ/WIdst85ofxEb+5x5Hxgxq59p7Ax9ygyflWB3CaR6ZsSsSXFtQAMRNpzidgk6gO1VVewTPoJXen/DpqRt7sI2eLx4rcqcGrIg9kikJ4k0lKzBXk1UuDj6fK0PtthLTqB1blF2LpPeS9lOY3NO0rkkfJpSxOROdxmp8nRyBRBe+M9USnoryXVI3U/yYb6Hp5Vn2uW+48OZPBbZOo0edCvs1+6woD4FSnInW1A7eUmeY53535Vjs9xLDskgrCJQch90X3GjS6UH6vEih3H5Z9ozs49gVzncX1DpM33LCgW+c6mdSlD6Lrg3eh+b1+wYdd7x+XzWWvZcWYw/aFCkLlcCYQKxPHo+cU+Vz1XW2rvSVeePI0jGL1jOuY0N2Ljb85i8bYCeUrEjbtPy3lMjsh3l203Y3OVAzGzo/H602O4MjZQ6o91FZ+xyLOT9Gq8cTUjGa9/PwgxDhtyd5/AsrdOyb/o6NwvGa+dwIqjw7q06MKZd3Zg69tFcjqU8vm95eq5YYjAmnXRWCn9eNrHp7Ds19LxEa8RZeP6HaKyLI5PfMpc/P0Tw8lz1Vl+RACfd05UNH1+hZIGQ4eAWzCEYXH6O3h7zkokB0wW2dtw+GFywGI8n/A/8dp3ZvqkdbvbuHBM3/42gha6tXR3XUbX4cOwScuxcrcfyfHH+HW/QtS6+J5uJ2NCAJLi1L6Jsd76ZQ/0db5j/E4MtqUEyb8G13inC4U1VuypbIc0S13CzDDs3JSOPas0Ao8J0Vi/JR37njHKgz/M0v+VWrH3msg4Jgdh/dIYpA+jgd45sFBqAfIa+OiwHcGxYcgIFUH8FeW95KWsHTfDQrFt3aLe048NmfPnjwWxn937pw+UM+CTWo28tsYOlqNniqoBzXoSFoPlUqt/gwWfuk7pKPKbzA0ZOJIdgbXTRW5z14aCSnF8rtpgDwzE2qUJOPJKOjLD3RP7FKRnRWD9zADEjHeg+k4H9kvHVfzfzXEByFo4CwdyMrDeeb74yqh/b9+wtnWJfaa93BzsVHMzRIV7ntjOThEYHHP9ki7UvrpSsbUqydM4glE6pmPR7BjsfFJUZiYb0CqOlflqq8hnWlF4F5gWIfKZbBMObEjsO/f5Q0mdmUmcVlKDk+fBtAZEPpGOA7+QpqUNxLS77dgr57+tMHeNg0nkcTu/57treJFPL8S+pSFIMtjkdLjn/G002lwiovBEbHvFhHcXBmF2m3R8xGtE2dgWFoKcH5uw78fDnyvbPzlK6ZYm9o32LFw0Uh75SlDvf6O1fb4PzXvycf+Gp74BItknLEfoSz/Bo4+qq4iIPLIiP0+a2zcA27ZkKINYiZwqz8rz+KctNYkKtocae3MZNueJCoi31xB5JSpZu08j52qg/FP0Wb7ufEAD9rWo2/pC8IJszN61H7PeeROh/0c2Ap55Rl1WY9KWNxG+dz/iXmewTURERA+JO3UokAfN952Fi0YWW7iJxrDyjwqwvkJ94M28ufj8+Tnqg9H1MG7zgKitjdKPSnnnbNF2tnBLP5w0BfFqL4aEJ0xy33r65mk8Z8Yh5w+03GrFnqtdD3EL9yXkOecb78fa7CxskX6ghkZcY8FxrDjZhZUrFmPbQt+OwaHBYcBNNIa1XbuAqtvqA2+mhMM0Y2xkpg/jNg+IvRnlVS3wNFt0Dz9MT5iFSH9nwK2uVjH4+ObSqow+vAF3K2rLLco87/2YNnMuYti6OvIsIv2804TiCUbs+zsTf11ylDHgJiIiGovYh5sGqa2qFB9W3Ads91Bc1YFqh0FU8p8UlfxvwEDhMY71HSIiIqKvAfvtVhyQZzvpwM3JIdi2YTGD7TGCLdxERERERDpiCzcRERERkY4YcBMRERER6YgBNxERERGRjhhwExERERHpiAE3EREREZGOGHATEREREemIATcRERERkY4YcBMRERER6YgBNxERERGRjhhwExERERHpiAE3EREREZGOGHATEREREemIATcRERERkY4YcBMRERER6YgBNxERERGRjhhwExERERHpiAE3EREREZGOGHATEREREemIATcRERERkY4YcBMRERER6YgBNxERERGRjh758ssvv1LvExERERGRjz3ylaDeJyIiIiIinwL+fw9QwyEXWrgoAAAAAElFTkSuQmCC;" vertex="1" parent="1">
          <mxGeometry x="30" y="90" width="732" height="222" as="geometry" />
        </mxCell>
        <mxCell id="VZC6QLjZsNQ3-OKfmuwu-3" value="" style="whiteSpace=wrap;html=1;fillColor=none;strokeColor=#FF3333;" vertex="1" parent="1">
          <mxGeometry x="140" y="110" width="120" height="40" as="geometry" />
        </mxCell>
        <mxCell id="VZC6QLjZsNQ3-OKfmuwu-4" value="" style="whiteSpace=wrap;html=1;fillColor=none;strokeColor=#FF3333;" vertex="1" parent="1">
          <mxGeometry x="270" y="110" width="30" height="40" as="geometry" />
        </mxCell>
        <mxCell id="VZC6QLjZsNQ3-OKfmuwu-5" value="" style="whiteSpace=wrap;html=1;fillColor=none;strokeColor=#FF3333;" vertex="1" parent="1">
          <mxGeometry x="270" y="250" width="40" height="40" as="geometry" />
        </mxCell>
        <mxCell id="VZC6QLjZsNQ3-OKfmuwu-6" value="" style="whiteSpace=wrap;html=1;fillColor=none;strokeColor=#FF3333;" vertex="1" parent="1">
          <mxGeometry x="420" y="181" width="150" height="40" as="geometry" />
        </mxCell>
        <mxCell id="VZC6QLjZsNQ3-OKfmuwu-7" value="" style="whiteSpace=wrap;html=1;fillColor=none;strokeColor=#FF3333;" vertex="1" parent="1">
          <mxGeometry x="370" y="250" width="150" height="40" as="geometry" />
        </mxCell>
        <mxCell id="VZC6QLjZsNQ3-OKfmuwu-8" value="" style="whiteSpace=wrap;html=1;fillColor=none;strokeColor=#FF3333;" vertex="1" parent="1">
          <mxGeometry x="321" y="250" width="39" height="40" as="geometry" />
        </mxCell>
        <mxCell id="VZC6QLjZsNQ3-OKfmuwu-9" value="" style="whiteSpace=wrap;html=1;fillColor=none;strokeColor=#FF3333;" vertex="1" parent="1">
          <mxGeometry x="310" y="110" width="30" height="40" as="geometry" />
        </mxCell>
        <mxCell id="VZC6QLjZsNQ3-OKfmuwu-10" value="" style="whiteSpace=wrap;html=1;fillColor=none;strokeColor=#FF3333;" vertex="1" parent="1">
          <mxGeometry x="350" y="110" width="120" height="40" as="geometry" />
        </mxCell>
        <mxCell id="VZC6QLjZsNQ3-OKfmuwu-11" value="&lt;b style=&quot;font-size: 18px;&quot;&gt;&lt;font style=&quot;font-size: 18px;&quot;&gt;a)&lt;/font&gt;&lt;/b&gt;" style="text;html=1;resizable=0;autosize=1;align=center;verticalAlign=middle;points=[];fillColor=none;strokeColor=none;rounded=0;fontColor=#FF3333;labelBorderColor=none;labelBackgroundColor=none;fontSize=18;" vertex="1" parent="1">
          <mxGeometry x="170" y="85" width="30" height="30" as="geometry" />
        </mxCell>
        <mxCell id="VZC6QLjZsNQ3-OKfmuwu-12" value="&lt;b style=&quot;font-size: 18px;&quot;&gt;&lt;font style=&quot;font-size: 18px;&quot;&gt;b)&lt;/font&gt;&lt;/b&gt;" style="text;html=1;resizable=0;autosize=1;align=center;verticalAlign=middle;points=[];fillColor=none;strokeColor=none;rounded=0;fontColor=#FF3333;labelBorderColor=none;labelBackgroundColor=none;fontSize=18;" vertex="1" parent="1">
          <mxGeometry x="270" y="85" width="30" height="30" as="geometry" />
        </mxCell>
        <mxCell id="VZC6QLjZsNQ3-OKfmuwu-13" value="&lt;b style=&quot;font-size: 18px;&quot;&gt;&lt;font style=&quot;font-size: 18px;&quot;&gt;b)&lt;/font&gt;&lt;/b&gt;" style="text;html=1;resizable=0;autosize=1;align=center;verticalAlign=middle;points=[];fillColor=none;strokeColor=none;rounded=0;fontColor=#FF3333;labelBorderColor=none;labelBackgroundColor=none;fontSize=18;" vertex="1" parent="1">
          <mxGeometry x="276" y="284" width="30" height="30" as="geometry" />
        </mxCell>
        <mxCell id="VZC6QLjZsNQ3-OKfmuwu-14" value="&lt;b style=&quot;font-size: 18px;&quot;&gt;&lt;font style=&quot;font-size: 18px;&quot;&gt;c)&lt;/font&gt;&lt;/b&gt;" style="text;html=1;resizable=0;autosize=1;align=center;verticalAlign=middle;points=[];fillColor=none;strokeColor=none;rounded=0;fontColor=#FF3333;labelBorderColor=none;labelBackgroundColor=none;fontSize=18;" vertex="1" parent="1">
          <mxGeometry x="310" y="85" width="30" height="30" as="geometry" />
        </mxCell>
        <mxCell id="VZC6QLjZsNQ3-OKfmuwu-15" value="&lt;b style=&quot;font-size: 18px;&quot;&gt;&lt;font style=&quot;font-size: 18px;&quot;&gt;c)&lt;/font&gt;&lt;/b&gt;" style="text;html=1;resizable=0;autosize=1;align=center;verticalAlign=middle;points=[];fillColor=none;strokeColor=none;rounded=0;fontColor=#FF3333;labelBorderColor=none;labelBackgroundColor=none;fontSize=18;" vertex="1" parent="1">
          <mxGeometry x="325.5" y="282" width="30" height="30" as="geometry" />
        </mxCell>
        <mxCell id="VZC6QLjZsNQ3-OKfmuwu-16" value="&lt;b style=&quot;font-size: 18px;&quot;&gt;&lt;font style=&quot;font-size: 18px;&quot;&gt;d)&lt;/font&gt;&lt;/b&gt;" style="text;html=1;resizable=0;autosize=1;align=center;verticalAlign=middle;points=[];fillColor=none;strokeColor=none;rounded=0;fontColor=#FF3333;labelBorderColor=none;labelBackgroundColor=none;fontSize=18;" vertex="1" parent="1">
          <mxGeometry x="414" y="284" width="30" height="30" as="geometry" />
        </mxCell>
        <mxCell id="VZC6QLjZsNQ3-OKfmuwu-17" value="&lt;b style=&quot;font-size: 18px;&quot;&gt;&lt;font style=&quot;font-size: 18px;&quot;&gt;d)&lt;/font&gt;&lt;/b&gt;" style="text;html=1;resizable=0;autosize=1;align=center;verticalAlign=middle;points=[];fillColor=none;strokeColor=none;rounded=0;fontColor=#FF3333;labelBorderColor=none;labelBackgroundColor=none;fontSize=18;" vertex="1" parent="1">
          <mxGeometry x="390" y="85" width="30" height="30" as="geometry" />
        </mxCell>
        <mxCell id="VZC6QLjZsNQ3-OKfmuwu-18" value="&lt;b style=&quot;font-size: 18px;&quot;&gt;&lt;font style=&quot;font-size: 18px;&quot;&gt;e)&lt;/font&gt;&lt;/b&gt;" style="text;html=1;resizable=0;autosize=1;align=center;verticalAlign=middle;points=[];fillColor=none;strokeColor=none;rounded=0;fontColor=#FF3333;labelBorderColor=none;labelBackgroundColor=none;fontSize=18;" vertex="1" parent="1">
          <mxGeometry x="490" y="152" width="30" height="30" as="geometry" />
        </mxCell>
      </root>
    </mxGraphModel>
  </diagram>
  <diagram id="BWs1FrWZbe-IMuKRPwa1" name="Azure WF">
    <mxGraphModel dx="1409" dy="557" grid="1" gridSize="10" guides="1" tooltips="1" connect="1" arrows="1" fold="1" page="1" pageScale="1" pageWidth="827" pageHeight="1169" math="0" shadow="0">
      <root>
        <mxCell id="0" />
        <mxCell id="1" parent="0" />
        <mxCell id="MjxrRLAFj5rtADyUKayE-1" value="" style="shape=image;verticalLabelPosition=bottom;labelBackgroundColor=default;verticalAlign=top;aspect=fixed;imageAspect=0;image=data:image/png,iVBORw0KGgoAAAANSUhEUgAABUcAAAGDCAYAAAAI6aFLAAAAAXNSR0IArs4c6QAAAARnQU1BAACxjwv8YQUAAAAJcEhZcwAADsMAAA7DAcdvqGQAAGGNSURBVHhe7d0LfBTVwf7xB3AFAhLABEy4BCFYIhItEQ0WsYhKquBbeC20FauogCJ9xVaxSt8WW7Et1Yr/IhaoghXqi23BilhE8QIoQQxiUIMalERIkITLclnElfg/Z3Y22VzZQC7g/L6fz8LO2c3u7OycMzPPnjnT5GtDAAAAAAAAAOAxTd3/AQAAAAAAAMBTCEcBAAAAAAAAeBLhKAAAAAAAAABPIhwFAAAAAAAA4EmEowAAAAAAAAA8iXAUAAAAAAAAgCcRjgIAAAAAAADwJMJRAAAAAAAAAJ5EOApEypqpMWPGaGaWO/0N5n99usaZz3rb3GwF3TIAjchD7Q8AAAAAnCiafG249yPkatHPpmn5Hilt/DxNTHeLlaN5t03XqoCUfO0MTbks1i0v0OK7p2jpTin1pjm6Y4AvVFxSpOznF2nxS9nKOxCKX3yxSUq9cpSuuyxFsZHRrD0orHBEWOVzC5dqyr2LzTsmasQD0zQsIVRc8NxUTVmSJzVL1Zj/d4cGxhRo6b1TtLgw9HiktInmM6WZt5xlDkLXm4J+EzVvgimoTiBPq/65QM+/mauiw7bAp5iEJPUfOk6jLoo3U1YdLTNH2byX/xsrqMxHxmn2Rinmksl69IaUqj9HIFfL5y/Q0o15CthF74tRUspAXTpyhAZ2Mu9VuhzTNHHeRPNvmRqXy+FMPXzbbGUfsRPJGj1jigZHzl7EvCcOn6ZpVye65REqfYdZmjlmpqrNA8LzUfp3FUV8hmjXo+q4fx9eR6pVYV4Shw1X3NIlyla8ht0/XSM6uQ/4V2rapAVm7YjRwDsf1ZjebnlJpmbeNNt85lhl/HKGRvU4yvqq8p/LlmV8NEnTVvjtCqd5ZSuccubfpumvmxWu52jNuHeweYeQgiWTNeW5IrPCjdGcOwaq6Lkpps6YT5Binje57HlROdr65Ql5WnTXVC0vtvcrfL9GQXj5Vql8+1Wjo9Y5V4lfOS8/pUUvmPbW73wpTjuVmj5CP7zarPsRdbNUM59iu/TXD28drfQOR/vejt6mVln/WicqKfVijRiZoZSq5jtYpMyn52jp+jwV2O2EM08p6j94lEYMSHTb16pF3YafCPzZmvfAw1pl2vxq28bq2p9qtnsqztSCOYu16pMiBe360TxeyWlmWV8zTCmfVP4uyjnaMqvuPQEAAADgG6aaqChZqakxzr3cT3Od/x3bc5QTCN3N3fRuWW+zw7nKMwd8zt/1cQ9lS8yB9H2T9fCSrFAw6otRjHko6M9T1tPTNem+pSooCT21PHNA3y623HPvffwoPdu2L9ajNhhVjNJuHa+BoVkv5Wsdq1jzmuFb26NlAJECWZp591TNe9UNRpvHyNcsqEBhrlbOnaxJs7IUWiR1sMxKJSotPXTgnPvW2/I791wl2Xp7k70To/P7pThFlfm1csY0LVofCq58ze3CDCgve5W27KrNh68smLU2FNI0s1O5ylxfbu6OkU9tI76f0M0sZ/fRGPP9VeSLjXxu2yoClGNYj45FTJJSL0pXWvdvK7WnLShS3qcR75KTY5aSFdC72RHrxad5ofKYc5XawykpVeX6enqK0s37JMeFnmMlp55r1gLjE/e1HAXmLd0V7uNsveuE+VZQuVuLnHvJfc51llfi1VP16IxHNefOWgaj9bh+nVTyM5Vlg1GnLgT09voce6eUL6b89+jcmrsPNjPrZoV2qjpR1Tnb3v72Lk1/2rS3Nhj1+UrbqcxP/aH1JFJzOz+mjh0Jyr91lWbfO01Lqwg9q+X8fdmtcpsaqn+xsT4FDxQo981Fmv7zqVq63X04zLSvs++arNmmfXWCUbMuheYpW1kFwSrq9ckp8PEiTb0rFIzWmZIczbtvtlZ+bINRs9zsunW4yCxrsw7Yx31ty76j0vXOV1bW+htWVw9navbPJmn6y6F2DgAAAACiVW0/uuTkZOd//+YchQ81/Dn2fkzooD53S1kgY8qz7f/tkpXkpix5/5yhxfnmTrMkZUyeoXlzHtWjc+ZpxuQMJdmD/PzFmvNyVcFaqm780wznudOGJzklgTdXKavKINWw4eXvl8r2z0oaPkUT0yonDqk3zNAM85rh2+hU94GjCipz7kxlHTB3W6dqzB/maN5fHtWcv87R9BtSncAhsP4JLXI+/PEvs0iJ/dLlxKPlAi7jnbXKskFJzPlKj+ilVs7OVVr9sb2TqGH3z9Ocv5j5Nst/6p13aETUn70qQWWtt3Mdo4HDMxRv7uW+sbZ8eHtMUjU64vuxt/uuTAwFma3TdOM1oeVaxnyuuyOfP9q8QkW1XI+OVWyaRo0drxHndVHSmaEvMtt8t2E5Zl2wy8t+//5P80qXVZEpd+4n91DFT1fl+tptsMab98k4M/QcR/hv9+QoJxy6+EP3Y0IrnLaUrXDKed/+H6tkdz6dACs2Rr6j9aatqN7Wr5NLXmaWU8+Trx6hVNOmBdZnKjti/Yq/bHK573HGg+N1rptHJV09uuren5VEV+f8r8zT4q2mxpS2t3NMO2W+m/sn6o5r0iuFjIlX2nkzbdmcO5RuV5UjecraEH2oFPr7CutoOaH6N2OGbTOnalSKeRPzHot/P085Ecso55knlGk/TGn7auZ73hzN+OVEjbs8VG9Pdv43Z+rePyxXXkmSkuqy92X2Kq2y26aYNI1/1Cy3v8wzy2+6pkwep8HtTHnq6NLvZ7JpTx0dhmmyWzbjJ9+syupfvVKZe/zyO13ZAQAAACB61cYivj6poeAlP09b3IPZnM02aUlUcrI50A28q+wtofKCT907KSlu0JOrzMzQgXbs4NHmwLgsBYhNGaUR/e3RuJT32ion1KxOYr+0UECoYhU5p65WYHtL/cENL7uO0LiqTlM8HofXau3G0N3UURM1sPS0U5/iL7lRw7rZ+wGtWhM6dfH4llkFCWlKdw6ks5WVVXawl70xFLzF9EtXdf1Gyzni/q097bl3ci17CFYQXh4x5yvte2lKswfgWzO1do/zaN3Zs1Iz/88utxil3XCjqsi7a+Wo61EdKe3JmZvrrtduL86YZCXb0+wjgu4tnzp9u5R0Vsqx945rfq7bWzVPeZ84JWaFC/VUTUxONvMS0Vt1e662OL0PU5Ti9lS1p33b8Q3HzAqfemtPmzbTN89U5s5MzbvvNmdM0jE3j9OUxzNVVFWwXMP6FYx8DXMbd9fDWvqx26vVsqcQm/Kpy4oUyF6gKbfY55n6nD1Ptznv+7AyI34Y8L88LTS/dy0K9YyzZTlL9fBd40LlY8bptvvmKTPyO67uPexjgVwtfXiyxt1sy8ztlkma+vBiZUeV9ofbuCSlXZyhNPtDReBtZb3nPFilnL/NDIVZtq0aGmVbFVWdK9CqV0Lfc/wVY8q1t75OaUoND/FQFV+qznd/ZMkrqE3X0VponqSMscPMkjIOrNLKd5xS035naeWa0PqQ+qPy7WtsjzQl289aa9Gvw+H1f6b5HjMfn6rbxoXWg3G/rLAOGUdbz8KvZYc7KXj5YU2yr3Vv6Ee72KQktW2dolG/mqJhnUPPr3PhTYQ9rT6l5qEIjotbn6Y8l6vc5x7WZKc+mWX2s4i6XZKtebeFyh9+MyKotEOMOMtvshbZH06NaNuIGt/PfPjcZdP1a2ebYZb/Erddc5e/5Xx/94bfx35/M7U88n1MizDTPvbrpSoKZGvBL0Pf9cz1ZZ9lqh3CJMwOOeC8VtlnAQAAAHDyqr7PWGySe3CaY/OWsv/bJSujn43z/Mr91B4slJ2um5rixnWHC1TgHrwnn1U5+kvt7T6vME/VHo4H/cp5JTN0cBOXotQOTmmEoPL+PSfUO7V1mibePcwNwOrQtkI3hElUco+Kh5uxSk21/biMbebz2v+PZ5lVUnZqffZGt2uqeb2sDfaArqZT6o0OaUrrau8UaOmvb9OUx1cpL6rAp2bB9VlOb9eYvmlKbZqstH42hMmro1Prw/xa+dgC5R4x79PvRt1YZTJaoMU2AHEOTs0t4iC4kqOuR3Uo3JNzp/ne7SJxe3EqOU0ZTm/NcE/OXDfMjFVKL3cdOiaxpb1VQz1Uw//HKvmKNGdewr1Vg+Z/Z40zde+oofqRLM2+d7ZWFdqepWa9PxJUwZrZejTc0zua9atwqabZ19gaVHxqutLTkhWzJ1uLH5iqRe7vAmF5b8zQtIdXqsAGoQlJSki9WANtPTqSrbWlPwz4tfaNUPiRdHmGE7QFN87WvdMXK3tPjFnE5j1MfQzaU8R/8bAzxm+kSu9h6mDm3GlanF2kYGuzLl+UqiRfQHm55oOcFvqbGm3JCgWU3dLVv51P/fvZXnj21PpwXa3g/XmaaceBbZakEeNMWxVlb92o6tzhXOU6DWmMUnrXsrelP1NrnR7FZjU9M/q/LQ2gnNuUo5+S3y5VaW6vycLtbm391My3DezNmprau47jvKOtwxGy/jpZs9cWOMNZ+JqZZb7drEOPLnfqjVWb9SznmSmatjBbzpCvnRND26ROwzR1xmRldK3jz5jSX+mtzf92aIKfT9L0Z7JUFJFF1qeC56Zp2pIcHYxxhy6xdXvGolDP6aapunhAqF3KNutvaQ1et9r54UbdLjXLwvxfizaixvcz9S5wyKe27tABMV1TnSFI0vsmqZWZLv3+Cs2XZYcsMcsssDVLix64S/Pcdb9UfqZm3P+wVm63c52opM6puvSSUBudt7asx3bBenebknCxLnbaQgAAAAAnsxoO0cNjaAaUZ4O88NiZ3ZOU0iPZOegLjaFpyp0DjCQln+Ue/O32q8YOejUeI7o9OMbZscPM4YcNEyaNCvU6KqdIWevd/mOH/Nobeep5BVkzwwfx9ub2GovG3qLSg6EqNav4QY5jmVWh9NT6DWtDp4Nvyda79vVqOqXeYU87v0ODE+xr21Bgnqbag+cVeaUHqrXn16pVodN7z3eCIPNpL+jv9BSMPGg8Xv6XZ2qBPWXbnk5/Q1qoJ2YVyo052r5sfNIy0a5Hdai0J2eucj81/7m9OOO7JSvF+ZHA7clpw1MbrEX04oxUm/U13Fs18GmuqRHh8UaTlZSSrGQbRrm9VXNyQqFd1D1Ve4/RjFmh06LvGBD6FvI+CgWw0axfOS8uV54NuAdM1LQ7xmv8xCm6b6Rd+kVa/kqFALGwQMGLxmvqjEf16K8zzKsnKz09FEiUhit71ipzq71jwwq71pn18YVMs0TNZxp5n6ZMNO9xxzRNtPN6JFuvvBr68aFUpffYq6LdoYfi+2Touhvu0NQ/z9EcO0RDFMFlzupVzjqf1D9UB3z90pyhHQIbssqdWu+wY0P+ZVVoXq8ep2E19eQsJ8o6V9retlVce+fOURW8MF2TJo3TmEmzlWVnzNS3jItCgVZUKow5GuOMh1pLpe1rrNrW4q2jVuM6HClVYx6a45xqPud/BobanK257un/tVvP/IV7lTR8sqb/2axnN9XzaevNUzX+F6NDF7k64lfOf2Zq8m1TtGBjXbXGNTgSr8H3ms9oltmjf3Db1YBp79yQPPk7/Z0hILTJbLucbbNfa9eGttepg0NjHNeqjajx/WKVes0opbnrUNu0Uc4QJOOvSTWPlH1/MRfdoUf/bNYH893ccZH9lgNa9e+VZfXIUaCCI+kaf595n0enKqOj+d4vvzT0fqU9tguUlRkK+JO+OzC0jQYAAABwUqsxBgiPoZn36RaFxs40Zb1SpIRk2bPEnTE0w6frtktRSrhXXvtYRVw3prIaE7rQhTxsDx57P/3WKdWGCTEpg5Vue20cydWC+aHwoSrlL3BT1cV7qtE23jmIq1b4lOIIx7zMqhI+tf5IjrLNMX3uW6FAJKpT6mNSNfqBRzXjTnPQaEMse/D89HTNjjhFv1b8byvTGWfSHFA+7AZ397u9q7au1qqj9RyLRtSn09twzh03z97uHBw6EC8n+vWo7pT15NzyaUHpeKMpZ5nD5+TQ8AlOT85P8kI9kqvpxVmr9TXcW9UO5RAee7Sned2miUo+y1nhtCW3wJ7pb0TfUzWxR3Lplf3j4tuG7hTY+NVV4/pl3u+jUG0MrHm4NOid9LT7Y0awwjrYLE2jbkpXUmyMYuzFnYzSQGLjWq09bF5x9erQMjuvv/o7PcRyleOsj6auPT2p9D0edk/TDlasm5XeI14Dh4TGDS5aM1OTbh2nKbOWRnlKfY4y14fep/S9b5kXGkM4sEqrwqeNu47pdHor2jpX2t7uVbEb+B7VYb/8zoWbYpTUb5Qm3z+xVsNXlB9zdLIGR9Ej27maeqTS9tWvvVEt99o56joc1sG0zeGGPj5OoWcWquhz+38t17OEDI2+OkXxrcvW5XrVabAm/2mOpo0dHPoMwQKtfGR67S6udUy6KqWn+/naxbvrn1m2O5w75uEMXWqHnbG9v9ebZVS4SqvtjxvNUtW/n/27WrYRR3u/apV9fyl9U9221KfUvm7L+0mue3ZImbSR481+hb1gmi80HnO7wco4zz6Sp9WrzdpTmKVMZ/km6+ILa9xDAAAAAHCSqDEc9Z2VHAooPsnTcucK7PFKcbqppCjVGWMvT9lvuKfrRo6d2TxRie54cbkfOalMOdnvu713nNNbK3Iv5HGD7XUTVOb8BeUu4FEmURnXjdZ4e4qqncxepCcyQwdbFZW/wE1VF++pRueE0Oe3B3JbKh6s+ZWd7fYaCp8+aRzzMqtSolLPs2GW7XGYqZzNTjRa8yn15fgU2ztDEx+YoTHOhw4oa0PFnlMVg4mgDrq9cG04F1Z6SmSVCpS5vlLkUEvRnE5fG9GuR3Ur2R0moWjramV/atfHFPs1m4Vpvn+7spuD8dB6oWp7cdZqfW1u1iHntE5zkP9SrvMdxZs3dNa4PvaNA8p7f7XybGhaTU/VqiR0iibEO/r6FWt7cY0fX/42pMJa38G0AxVbotJAIlurV+e4PbViNHBQ5YsLJV9W4fXNbVRahRC4iveIvegOs3wna9RFdqzUoArWL9bMe6drZbnxPKtg6uLbVTc1jqx1EX19j/F0eivqOlfa3gZMOxVdPUwcPk3z5s0LXUhrQkao92F92pOtbOeiYTFK7uGuW6Xta65yqv+gxyy6ddiIaL9rEtV6FuVr1ammPiVeNFpT/jRFGU5qWFCri2sdkyq33ZFiNfjyUMuVvWqVctzT0GP6D1Z6+Mr5rqjaiKO+X11JVFKlL9Cn9EGhHsUFmVnKXL3a+Sw6b7AG1ne9AQAAANAgaj5U75CiFHvQvWet1jqd4My02/suNJZontZmhvpdlB87s+y0WP/KBVrkDMAY4t84TwvcXjc1nZIWM2CURtjQ58AqzfxbxUAvQqcRGn2JPWwJKGvhU8qu4fT6WmveX/2dgMZmrzO1amc4IA0qb9lMLXVO843RwAFpTqnjmJdZ1ZLS05xekf6PlivLjq961FPqjY+Xa8HruaFx7yqI8bnRUsekUE9W5eqVl8pOhw7mL9WL7hmNSUmh6MIGl+FTIpOvnREKVcK38aHPXtqz7xiVnU6frvE3VX86fW1FvR7VFfOdOpHAZ+b7t9+X04vTFrg9OY/kaK0zXuTxjjcaFm9exx6hm+8o01nhQj1VLbe3al7m2tB3E814o9E46voV7rVq5ioYo9T0dNMeuLcL7Hil0SQKPqW5p5LnvmXHCzR34gbq0tKkOFkpzhAG5j2axpW9vr2lpSnFOeW/ZsHDQfnapShj7BTNeGxy6ArfR3KVE764VTWy179tWhvzWS+ZXL4u3D/MqavasCp0IanI0+mH1+Z0eqs2da6svS14bk7oqvVhh4uUm18P3TJrIbgnR4tmuBfRst9huP2KaF+z5s9U5p6y+Q4G8pTnjPvY2I5/PasvRZmLtTSrQMEqfvTxNT/Vvdd4fGn9lWp77n+cqcXv2TgxXgPdwLRu2ohI5ntwv4ryPZTLvr+cDdnudi6o7PCPON3dHzOP5pw0nW9ntzBTSzeGgufUfmmVfqgBAAAAcHI6Sj8mc2DhpCl++W1vKjMRDldizX0ntNtjD7zNgU6FCxYlXTMpFEodydPy6WWnI056ZJXTa9LXbYTGXVbTAVCihrm9QgOvz6x84YQIKT8aH7owxYFMLVh8DF2QNj6hST+bFHFbEDpF1vYYGTtRac5rZ2ve3WVXK576z1wn9Ii96EaNKg1srGNfZlXqmq402xtoa+hU7KhOqd+Xq5Xzp4WumHzLJN027jbNsx+oWZIyLnf/ummqhlzp9otdNrXsasG/di9u1HWERl3kzl/peI+JSu1d4Tszn8np41OcpcwKV+11xjWMXK4Prgz1mK3Iv1Kz3SsNK5ijJ+6J+Jsq/65AS/8Q+Zzw91WV6NejOhHuyWm+Y/sth3txWil2eIXwetEsWclnOsXHLdxbNbRemfWtbIULDdvgzos9zbhODuajWL9ShmQoyQYj2fM06adT9fDc2Xr4PvPcW8ZpdvVfVjm+9MEaaAOJj90esWbdLwsyYjXwynQnRC9aMU3j7pqmmXNnatq9kzTu1qla7pwSXZMCLb9vnMb9dIqmzZytmX+crVVOj9Gqeo5FKMl2L4pmPqPTMzdCJ7O87Qy5F5LKXeCeTm+WetHKCnXB3BbUtBxqWeeSho5Sun2aaW+Xms9lr87uXIX/lsma9nzdd8usWLcrf5ZsPWEfu8VeWXy6ljsXzkvR6HLj/pr29ZoRSrIr5YEszf6Zme9xZr5tO3TbVM3Jqufej1E53vWs/gR3ZmnxzCkad5NZXj818zNumpbbwWdrO35sfWmersH97ZIz9df+8BWXFhoGx1UXbUSZeNOe2vcy35PZntl18rb77LYsVoP/K9TrM/Dmw7rNLKdJP71ND7/p/Lyhgf8VGv/0qMz2MnRhpgIV2B9qYgZqcHqdtKYAAAAATgBHPckzJaUs+XPGzgwLBwFWu1SlVDznrWmihv16hib/KE1JrcsOInyxSUr70WT98X+jOMW00wiNucIekAS06i/zqj8tunmqrnMTyqIV87R4u3M3esGAEyyV3faW9qRUTJom/mm6xg9KVnzp6YA+xSQka/DY6frj2Mq9HI95mVUpSen9Qr3C7MFcVKfUd++vwT0TFWvn97BfgRKfYruladTdk8v1Xku8aqqm356h1ISyCxr5Woe+nxm/docrMEp7qFU1z+EATkXKcnvElrLjGkYu192BsuUaKWCWf7i3T8W/qebvgv7I50R8X1WJdj2qE+GenFZEL04rHGpZvVOjuvBPVMzrlq5xpT1VrUTzUHiFi1Vq75pSv1qIZv1KGKapvx9vnmeW+6E8Zb+ZqezPAvJ1StP50c5GaSBhJenSy8v38fKdN15/vHeU0rqZz1icq6w3s5RbHFR89zQlH/XCRK2UdFaSYoIFys3KVNbHfikuWRm3m89QU718Z5V7hXLz/Z3jlEQwy96tnvZCUrsOhEJU21MtELk+u7e9Nay0ta5zpp0a/8eIdupIUMEjdtxdU5/Pi6qhqZ0K9bTyZ3E/8+FQm5/6vfGabscmrdh71l7J/Y+TNaqf+S5sIxQ0893MrE+mfU3rEf7uG9fxrWf1J773pWae3Ku3H/Ar2DRGiT0Ha/yvazd+bH1KvXyg84OglXR5RkQwbtRFGxEhZaR5rU5mYZh137/H1L22sc7V6u2FuUq/P7Oc/AdMdbHt1b1/1JijnYURoXQcZMP+SFln7TcAAACARtfka8O9DyBrpsbMzFLaxHmaGDFaQiWFSzXl3sUqiElS6nkJSur3Q404rx57a21dqdkv5ar4o0zlFuvo8wfg5BNt+4OGd3iVHnYuvBavjPuma1REL1gAAAAAJzfCUSBSbcNRd9Je4Gba1XXUM7Mq7nyFEZ7UpyzNHDPT/FtRokY8MK3mnqW10lDvE72C56ZoypLwWh2h30TNm9DwK9yJNj/1rkHD0RNv/TuRFSwx6+JzZl2My9DUP0YODwEAAADgZEc4CkSi5xaAxkL7c8LJ/tskPbEhIL9zBboYpd8+Q+PPKxsqCAAAAMDJj3AUAACgCtlzx+jhNyVfu2QN/slEjarP4VMAAAAANArCUQAAAAAAAACexPVWAQAAAAAAAHgS4SgAAAAAAAAATyIcBQAAAAAAAOBJhKMAAAAAAAAAPIlwFAAAAAAAAIAnEY4CAAAAAAAA8CTCUQAAAAAAAACeRDgKAAAAAAAAwJOafG2496t04MABbd26VUVFRTp8+LBbCgAAAAAAAAAntxrD0cLCQr377rs666yzlJCQoJYtW7qPAAAAAAAAAMDJrdpw1PYYXbNmjS677DKdcsopbikAAAAAAAAAfDNUG46+99576ty5s9q2beuWAAAAAAAAAMA3R7UXZLJjjMbGxrpTAAAAAAAAAPDNUm04ai++1KRJE3cKAAAAAAAAAL5Zqg1HAQAAAAAAAOCbjHAUAAAAAAAAgCcRjgIAAAAAAADwJMJRAAAAAAAAAJ5EOAoAAAAAAADAkwhHAQAAAAAAAHgS4SgAAAAAAAAATyIcBQAAAAAAAOBJhKMAAAAAAAAAPKnxwtGSrxTYt1+BoDsNAAAAAAAAwLOCB/bLv8/cDnzlltS/Jl8b7v1yli9froyMDHeqjgR3a8NLz2nZaznKj/yQzdurx4Xf0/XD+yqhuVsGAAAAAAAAoJKCwh16aeXr2vT+Zvn9+9zS4xcb20Z9evfS5YMvUWLCGW5pQ9mkxybM1wbnfoquf/hmDWiAnLDBeo4GtizVb++cpsee31Q+GLUO79aWVQv1q59P05Ob9ruFAAAAAAAAACKtz9qoX//2j1rz5lt1Goxa9vXs69rXt+9T3wLvL9bv/7pOxSVmYsfnKgwVG9tUWGD+K9mvTf/3Zz35dv3lhQ3SczSwcaF+9dcN8tsP6uuovkMu0xX9eirOSX/3qfDtN/T3f69ToXOKfUv1HTdFt57X0k4AAAAAAACgjhQ8N0VTltjUqWqJw6dp2tWJoYlgkTKfnqPFb+aq6LCZbuZTbJf++uGto5XewRd6jrI0c8xM82910jRx3kTzb5nsx2/Tw9uGacavMxTrloU587dthOZNiPyL6oU+jzTs/mka0cktDMuaqTH/StK0B4bJ/USO4M5MLfrrYq36pEjBI6ageayS+v1Qt/0kXfHhj+Wo4rPZ56ZmaNS1GUqpMPNZs8Zo5np3IkLaxHma6HycgHJXPKEFS7OVd8CGYD7FJCRp8LWTNaJ3uTeulu0xaoPLhnLf/95Vbz1Iy+WF8R2VsO9zFdr1LKy5KWtjyorsRP3lhfUfjh7aoMd+uVAbDpn7nb+rX9wxTD0qfo59u1WsQ1r32P/Ts3lfSU276cf3/1SD2rqPAwAAAAAA4PgdDsj/hXsBmILlmjY9S2mTpyjDTQ99LWIVYzuzBbI08+6ZyumSoRt/mKFkJwjcq9wXF+mJ/+QpZeIfNTEtxpQFFfAHzL8h786fpHkaoxk3nOuW+BQTG2P+dR3O1MM/XazC1lLapOka1dUtdx1TOPpcgdRphKb9epgSI8+RriIcDZiyu2bmKOl7N2rUkGQ50ZM/V8v/7wkt/yxFE/8wUc7HcthwdLGSHpimYQlm0i67z3O0/JmntHxzW424b6qGRQSyNhxd1G6yplwZGcWaJRBjlqlZAP6Xp2nSv30accsYDex8qnnkSxXlZKr4jGFK7xZ67tE8uWCR07OzoQy46AJdP3qUO1WXvtKmJ6fq/62zgWGUzhqhByd9p1Kgfrzq/bT6/OX/CQWjLfvo5orB6L5crfjrdE34xV+1LtBJV901VgNM5VDJVj27NCf0HAAAAAAAANSN5jGKjY0N3dra0NKnmLbutLk5waiR/fQTymo/QlPuHKW0ruHHk5Q2crIeuDZRWU+Yx51efjb8LPv7VjYF9bUqnY6NDEaNYNZa5fQeoTHp0to3ct3S45M4eITSdy/WnP9U3yPWUZKtRU9kKX74FE0emaak8Dx2TdOoyQ9odEKWnpifVRr0VmKXnX3unX/UlEEBLZ6xSLm212MEX6vw5y672WDUyv0oV/GXjtaw3vHuY/FKTo8+GLXsGKO1ct1kzZ31UNntoVt1hftQNGr9flE7RX2uu1lXnO5OHo3NFcfXfTBq1XM4ulXr1u927nW96r91YTgY3bdda56yoehj+seGz8tWuqbJ+vF/pzh3A+s2aJNzDwAAAAAAAA2mJEur1gaUdnWFnpiu2EuHaaCytPY9tyBqfq18KVupA9KVcvmlartmtbIrhIvHomBPoq67IU1FS+Zp5R63sCrvrNKqw2kaNrR8z86QWA0eOlDasDaKefIp+ZqhSi1epdW16Nvn80kHCwurD1+jUNsxRq84vY0CHy3V2Ak/D91+/phWuI9Fo67HNI0UPLxf/oA7YbVO0fW//IMT4s564AYNiHfLrcNfKWBu9aF+w9F927Vlr73TXn16neYUOVee+sWf9OTaiFA0gi8lRT3snZLtyt/hFAEAAAAAAKChfF6gwiOJSqoqQ7SaJqlrJ6lw+1F6alZUuEqrdw7UwG+b++36K73DKq3MPJ6osExM2o267rwCLZi/SpF5W6SC7YVShyQlVJeGJXVV4pFCFXzuTtekebKSOgSUt9UZEDMqqVeOUPyGmbrrwUXK2l43nzsa/l2vufdOEEUv67cTfq4JP5+vsrPq2+uKW2/WgMRTnClf2z66/o5hKh11oSRHf7/3bo2dOFX/2OKW1ZH6DUcDh9wV0idfhXfqe/0U3Tywm2IrzkGbNm4X2V0q3uXcAQAAAAAAQINKUKIdZ7NKsWrbVirYVnZt8WjkrV6t4CWXKtXJgmI1+PJU5ayv4TT2WolR+o2jlPr+Ij2RWV08anROLHdxpnJi25q5KlBelJmvr5kUPFJ+7guWTNGYMWMibhEXdOo0TFMfmqzBzbI0+9fjNO5nD2tpjt99sH4ktGmphP5lp9U/Mum77iON6IgdqbaiTupxpns3rG2K+kT2HrVK9qu4ji9cX7/hqFlJIseVKKd5e1145Qh9/7z2boHrcHgQ39MVF+24AwAAAAAAAKhDhSqoNvv0a+9eKbFztelpZSXZeuX1IhX9Z2ppcDhubraCG5fXfCp8bcQM1I0/TFTWU0+o2nx0W4GqzT79e80nq6HHbAX2Sve+ZuWTL3u1/3nz5kXcyl+pX7EpGnbHdM15bIbu+G5QKx+apGkv119A+uRv3NPpnds6+c8apt9c5z54QtmtYufs8wiHtyq/io65NpSuS/UbjsZ3U1dnnNHPteGD8rFu/nN2zNE/6e8FnfSDSbfqqjPcB3JyQmONNu2ghA5OCQAAAAAAABpKx0QlNKuhB2VJnvK3SwmdokwRrfey9HaHEZo6Y4ZmRNzGpOUpc33dhYOxl43RiLgsPbUwu1LvxMROCdLOPBVWN6ZoXr4KmiUosaM7XZM92creGaOkbhW7NkbJF6uUqydr8tWJyl29StGfnH88ntGajw4p9vRG7j16xmX6zSP368Hf31B2fSJt1z9mLdXm8BCnwe1a8djSsusRNe2mq+6aogcf+oNu7uOW1ZH6DUeVrL7nhT6lvWr95oiVz68O+v5Pp+qRX92gK85yxyMt+VzPPud+7N6p6lPPcwcAAAAAAIAKmqZpYP8YZT23VAVVBImBN1dqldyxQ6MSVOarq5T4nYFlV4h3bwP7pynvpeXKc595/BI1bNwIxa+brQVbWinGLXV828xz8ywtfb6q1DegVStXSf0HKu2oeVRAWU8vVV5Chob0douOUauYcnPoHb6Wim3dQXGRl5/f9poe+sXduv3eX2rC7X/SPz4qHZBUOj1ZfZPaK7ZlaEzSulTv8WOfYd9TD/suB9bpsf/3hgpLOuiKcCiaclrZafcl+7XuiT9rmXMRpo76/vC+1Z+SDwAAAAAAgHqT+qMblbZ7sabZiwfl+xU4HFTAn6esZ6br3vm5SrPje0abKvlXaeXGZKX3i0zCXDawDKzSK++701bwoPx+f7lb4LD7WDQ6DdO4q9pq1YoKF2dqmqpRN9qr2k/T9GeylOcPKHg4IH9+lhY9eK/mfZKmG3+U6j65smDAr6Itq7Tgvrs0c2O8Rtw2rNL4pcGD5efbmXenC6tf2S8vV45Zlv4DwdBrvb9Us/+dq6QL0hRt/9PY2DbuvWNw6a266iwpPzv6CzQd1/sdReHyhW4OGOkrBfYeqjwmadHLeuipnCrGKj1+Tb423PvlLF++XBkZGe7U8QlsnK975mwKrZBteuqKHw7TVb07KcamnyVfqfjDNfrHP/6jDTtCl+TvOnSy/vfKaPowAwAAAAAA4JgULtWUezOV/sA0Datq+NBgkTKfnqPFb+aqyIaTzXyK7z5QI24epfQOVXdpy5o1RjM1UfMmlI206V8xVZPevlgz7h3sXoS7vOzHb9NsjdejN6Wq4LkpmrKkcs9OO5bntKsrn8bvPH/biHLv5yjJ1aK7p2m5b4SmPVA+xAzuzNSivy7Wqk+KnHFD1TxeyReN0LgfpSu+3MfK0szICyoZvtaJSuo3RKP/y/aCdQtdzmdf705ESJs4TxPT/Mqe/7CeyMyT3w16fbFJ6j/yNo2+KD7qDoJPLlikNW++5U4dzXf184eGqVfpqeuHtPmfv9RDr7iTURhw0QW6fvQod6pulcsLfafId+QrBcv1VDZlPlPmJqL1lRc2SDhqFa+dr98v3CR/deM6OFqq1zW36n8u7USvUQAAAAAAACBCQeEO/fq3f3Sn6t99/3uXEhPCFwqqe/63F+r3y1vqx/8zQn0O/Ef33P+yip1HWmrAbffr+rO2a8Wjc7XurLH6xZX1kxc2WDjq2JerZU8t0rKc3ZWS4NgeF+oHP7laF8bX/dgBAAAAAAAAwDfB+qyNmvP4U+5U/Rl303Xql3aeO9UQNumxCfO1wbnfSd+/72e66hivd1UbDRuOhpV8pcCBsvEDfC1PC51iDwAAAAAAAKBGtgfpSytf16b3N8vvD1/i/fjZMUb79O6lywdfUq89RqsTPLBfAadD5SmKadOyQc4sb5xwFAAAAAAAAAAaWb1frR4AAAAAAAAATkSEowAAAAAAAAA8iXAUAAAAAAAAgCcRjgIAAAAAAADwJMJRAAAAAAAAAJ5EOAoAAAAAAADAkwhHAQAAAAAAAHgS4SgAAAAAAAAATyIcBQAAAAAAAOBJhKMAAAAAAAAAPIlwFAAAAAAAAIAnEY4CAAAAAAAA8KQmXxvu/XKWL1/u3gMAAAAAAACAb54aw9GMjAx3CgAAAAAAAAC+WTitHgAAAAAAAIAnEY4CAAAAAAAA8CTCUQAAAAAAAACeRDgKAAAAAAAAwJMIRwEAAAAAAAB4EuEoAAAAAAAAAE8iHAUAAAAAAADgSYSjAAAAAAAAADyJcBQAAAAAAACAJxGOAgAAAAAAAPAkwlEAAAAAAAAAnkQ4CgAAAAAAAMCTCEcBAAAAAAAAeBLhKAAAAAAAAABPIhwFAAAAAAAA4EmEowAAAAAAAAA8iXAUAAAAAAAAgCcRjgIAAAAAAADwJMJRAAAAAAAAAJ5EOAoAAAAAAADAkwhHAQAAAAAAAHgS4SgAAAAAAAAATyIcBQAAAAAAAOBJhKMAAAAAAAAAPIlwFAAAAAAAAIAnEY4CAAAAAAAA8CTCUQAAAAAAAACeRDgKAAAAAAAAwJMIRwEAAAAAAAB4EuEoAAAAAAAAAE8iHAUAAAAAAADgSYSjAAAAAAAAADyJcBQAAAAAAACAJxGOAgAAAAAAAPAkwlEAAAAAAAAAnkQ4CgAAAAAAAMCTCEcBAAAAAAAAeBLhKAAAAAAAAABPIhwFAAAAAAAA4EmEowAAAAAAAAA8iXAUAAAAAAAAgCcRjgIAAAAAAADwJMJRAAAAAAAAAJ5EOAoAAAAAAADAkwhHAQAAAAAAAHgS4SgAAAAAAAAATyIcBQAAAAAAAOBJhKMAAAAAAAAAPIlwFAAAAAAAAIAnEY4CAAAAAAAA8CTCUQAAAAAAAACeRDgKAAAAAAAAwJMIRwEAAAAAAAB4EuEoAAAAAAAAAE8iHAUAAAAAAADgSYSjAAAAAAAAADyJcBQAAAAAAACAJxGOAgAAAAAAAPAkwlEAAAAAAAAAnkQ4CgAAAAAAAMCTCEcBAAAAAAAAeBLhKAAAAAAAAABPIhwFAAAAAAAA4EmEowAAAAAAAAA8iXAUAAAAAAAAgCcRjgIAAAAAAADwJMJRAAAAAAAAAJ5EOAoAAAAAAADAkwhHAQAAAAAAAHgS4SgAAAAAAAAATyIcBQAAAAAAAOBJhKMAAAAAAAAAPIlwFAAAAAAAAIAnEY4CAAAAAAAA8CTCUQAAAAAAAACeRDgKAAAAAAAAwJMIRwEAAAAAAAB4EuEoAAAAAAAAAE8iHAUAAAAAAADgSYSjAAAAAAAAADyJcBQAAAAAAACAJxGOAgAAAAAAAPAkwlEAAAAAAAAAnkQ4CgAAAAAAAMCTCEcBAAAAAAAAeBLhKAAAAAAAAABPIhwFAAAAAAAA4EmEowAAAAAAAAA8iXAUAAAAAAAAgCcRjgIAAAAAAADwJMJRAAAAAAAAAJ5EOAoAAAAAAADAkwhHAQAAAAAAAHgS4SgAAAAAAAAATyIcBQAAAAAAAOBJhKMAAAAAAAAAPIlwFAAAAAAAAIAnEY4CAAAAAAAA8CTCUQAAAAAAAACeRDgKAAAAAAAAwJMIRwEAAAAAAAB4EuEoAAAAAAAAAE8iHAUAAAAAAADgSYSjAAAAAAAAADyJcBQAAAAAAACAJxGOAgAAAAAAAPAkwlEAAAAAAAAAnkQ4CgAAAAAAAMCTCEcBAAAAAAAAeBLhKAAAAAAAAABPIhwFAAAAAAAA4EmEowAAAAAAAAA8iXAUAAAAAAAAgCcRjgIAAAAAAADwJMJRAAAAAAAAAJ5EOAoAAAAAAADAkwhHAQAAAAAAAHgS4SgAAAAAAAAATyIcBQAAAAAAAOBJhKMAAAAAAAAAPIlwFAAAAAAAAIAnEY4CAAAAAAAA8CTCUQAAAAAAAACeRDgKAAAAAAAAwJMIRwEAAAAAAAB4EuEoAAAAAAAAAE8iHAUAAAAAAADgSYSjAAAAAAAAADyJcBQAAAAAAACAJxGOAgAAAAAAAPAkwlEAAAAAAAAAnkQ4CgAAAAAAAMCTCEcBAAAAAAAAeBLhKAAAAAAAAABPIhwFAAAAAAAA4EmEowAAAAAAAAA8iXAUAAAAAAAAgCcRjgIAAAAAAADwJMJRAAAAAAAAAJ5EOAoAAAAAAADAkwhHAQAAAAAAAHgS4SgAAAAAAAAATyIcBQAAAAAAAOBJhKMAAAAAAAAAPIlwFAAAAAAAAIAnEY4CAAAAAAAA8CTCUQAAAAAAAACeRDgKAAAAAAAAwJMIRwEAAAAAAAB4EuEoAAAAAAAAAE8iHAUAAAAAAADgSYSjAAAAAAAAADyJcBQAAAAAAACAJxGOAgAAAAAAAPAkwlEAAAAAAAAAnkQ4CgAAAAAAAMCTCEcBAAAAAAAAeBLhKAAAAAAAAABPIhwFAAAAAAAA4EmEowAAAAAAAAA8iXAUAAAAAAAAgCcRjgIAAAAAAADwJMJRAAAAAAAAAJ5EOAoAAAAAAADAkwhHAQAAAAAAAHgS4SgAAAAAAAAATyIcBQAAAAAAAOBJhKMAAAAAAAAAPIlwFAAAAAAAAIAnEY4CAAAAAAAA8CTCUQAAAAAAAACeRDgKAAAAAAAAwJMIRwEAAAAAAAB4EuEoAAAAAAAAAE8iHAUAAAAAAADgSYSjAAAAAAAAADyJcBQAAAAAAACAJxGOAgAAAAAAAPAkwlEAAAAAAAAAnkQ4CgAAAAAAAMCTCEcBAAAAAAAAeBLhKAAAAAAAAABPIhwFAAAAAAAA4EmEowAAAAAAAAA8iXAUAAAAAAAAgCcRjgIAAAAAAADwJMJRAAAAAAAAAJ5EOAoAAAAAAADAkwhHAQAAAAAAAHgS4SgAAAAAAAAATyIcBQAAAAAAAOBJhKMAAAAAAAAAPIlwFAAAAAAAAIAnEY4CAAAAAAAA8CTCUQAAAAAAAACeRDgKAAAAAAAAwJMIRwEAAAAAAAB4EuEoAAAAAAAAAE8iHAUAAAAAAADgSYSjAAAAAAAAADyJcBQAAAAAAACAJxGOAgAAAAAAAPAkwlEAAAAAAAAAnkQ4CgAAAAAAAMCTCEcBAAAAAAAAeBLhKAAAAAAAAABPIhwFAAAAAAAA4EmEowAAAAAAAAA8iXAUAAAAAAAAgCcRjgIAAAAAAADwJMJRAAAAAAAAAJ5EOAoAAAAAAADAkwhHAQAAAAAAAHgS4SgAAAAAAAAATyIcBQAAAAAAAOBJhKMAAAAAAAAAPIlwFAAAAAAAAIAnEY4CAAAAAAAA8CTCUQAAAAAAAACeRDgKAAAAAAAAwJMIRwEAAAAAAAB4EuEoAAAAAAAAAE8iHAUAAAAAAADgSYSjAAAAAAAAADyJcBQAAAAAAACAJxGOAgAAAAAAAPAkwlEAAAAAAAAAnkQ4CgAAAAAAAMCTCEcBAAAAAAAAeBLhKAAAAAAAAABPIhwFAAAAAAAA4EmEowAAAAAAAAA8iXAUAAAAAAAAgCcRjgIAAAAAAADwJMJRAAAAAAAAAJ5EOAoAAAAAAADAkwhHAQAAAAAAAHgS4SgAAAAAAAAATyIcBQAAAAAAAOBJTb423PvlLF++XBkZGe4UgPoSDAZ15MgRdwqoWvPmzdWkSRN3CicCW29t/QVqcsoppzg3nFgOHz6sanaBAUfTpk116qmnulM4UbDfjGiw33ziKSkp0ZdffulOAVVrzP1mwlGgkRw8eFDFxcU6dOiQWwJUz+7gtW/fXvHx8W4JGos9KNu5c6f8fr9bAtSsdevWTt21B2toXHv27NGuXbv01VdfuSVA9Ww4evrppys2NtYtQWMJBALOfrP9H4iG3W/u0KGDO4XGYuMmu99st79ANFq1auXsN7do0cItaRiEo0AjOHDggLZt26ZmzZo5O9z0KkJNbDNtDwZsoN6mTRslJia6j6Ch2V+98/Pz9cUXX+i0005Ty5Yt3UeAqtkeijZIt+19165dCUgbUVFRkROM2p1tG1jbnoFAdewPYfv373d6OnXs2FHt2rVzH0FDs/tAdttr66zdb/b5fO4jQNXsOmOPt2xb37lzZ7cUjcHWXft92O8iJibGLQWqZre54Q4odr+5IY+1CEeBRrBlyxbnf7uxJhhFtGyPCfura0JCAr1YGon95Xv37t3OgbINqoFo2IOC7du3c5DWiOxZGnl5ec6PGmeccYZbChyd/THbrj89evQglGskW7dudU6nt+0nQx0gWnZ/zf4gxo8bjccuf/vDpO0F2LZtW7cUqJnthGL3m+2P2TYgbSj8ZA40MNv7z+7g2Y00wShqIy4uzllnbE8WNI59+/Y5v3oTjKI27Dpjf9CwvVg4nbtxhNtNe4o0UBvhdcbWXzQ8e5BsbzZYIRhFbdjT6u06Y/fd0DhsD0B7xgzBKGrDhqJ2v9l2LmjIcWoJR4EGFj4w5tRKHAvba4XBzBuHPaXe1l8OznAswm0+4WjjsD9K2h+X6PmH2gqPecYF+BpHeLk39Nhz+GZgv7lx2frLfjOORWPsNxOOAgAAAAAAAPAkwlEAAAAAAAAAnkQ4CgAAAAAAAMCTToir1b+/633tDOzUlyUn9nggrXytlNgqUd1ju7slQO3ZgakLCwvVpUsXxk9Crdmr5h45ckTdu9MONTQ75uhHH33kDCpvr7oJ1IZt+3fu3Klu3brR9jcCe9VTe8XxM8880y0BomMPlXJzc52Lu3To0MEtRUOxF1Oz9bdTp07Oxe2A2igoKHAu6NWzZ0+3BA3pww8/VOvWrXXGGWe4JUB0bNu/Y8cO52r1DdX2N2o4WniwUCs/W6m1hWu178uT4ypynVt31sBOA/W9bt9zS4DaIRzF8SAcbTyEozgehKONi3AUx4pwtHERjuJ4EI42LsJRHKvGCEcb9bT6zB2ZejHvxZMmGLW2Hdimv3/4d63bsc4tAQAAAAAAAHAyarRw9GDwoLKLst2pk897u95z7wEAAAAAAAA4GTVaOFrydYly/bnu1MlnR2CHew8AAAAAAADAyajRwtGmTU7uC+V/8dUX7j0AAAAAAAAAJ6OTO6EEAAAAAAAAgGNEOAoAAAAAAADAkwhHAQAAAAAAAHgS4SgAAAAAAAAATyIcBQAAAAAAAOBJhKMAAAAAAAAAPIlwFAAAAAAAAIAnNZtquPfLyc3NVXJysjtV94IlQT3/6fPu1NFd2W+2ftVnlEYkjzC3DPWKv1jje1/vTodv6Tp9y8va4D7/zk4ler7g49AL6Gb9Ycgdur7cc7tpVLmy0C295RK9vNP9s2q0bd5Wl3a51J0Conf48GEdOHBAsbGxOuWUU9zS+pSv1a8VK6lbe3O/UOv++YGand1Zp5mpLStf1YHu7ZX/2sdq0a2jdr62UJtbpKpza/t3fm16d6c6nhGr4ree0dynn9OarHw1O9M83so+XsG7T2pufm+ldWoWmi7xa/PLT2n+0yv0+jv5apuSqsOZC/Xihs3a+Ob7OtS1tzrHhJ5aauurmvsvU4ff2aANW09VckoLffzsv/T6B6G/8bfvrKS2LZynBneu0//99Skte3mdNpR0Vnq3WKe8lHmtV/eeqTPbutN1rXidnlm+R51TOio0Rw1j3759+vrrr9WuXTu3BA3FLvddu3apRYsWatWqqkoQveDmFVp1oEfp+lm4doW2tovTzuf/Zf4P10HjE1MnXj1g6kIU61nJJj05d6t6p3WWWwvlN+/z1PyFWrF6o/JPS1HqF2u18MWN2rxxjd7/Ikm9O1WshKbeL35Kz71p6qCph/vap+nMva+G/mbTW9qYV6LEMxMUY9+gijreMXIm/Zv06octdOYZdVdDAh+v0DObfEqtWN8t835LlryuTe+9rY07TlNyj/byuQ/VpHjlQq1rnaozj+8rPSrb9h88eFBt27ZtoLYfkfbv36+vvvqqTtvOuq3Hx7+tLsfWh4Vmu223p+/sU3zfM1VFrSkvGDRHBuHWo6INWmZ22886y86RmdvXXpW/m3lNuy18/P/03Or1yj8lRruWP6eXnfeMaEMit8P10C7UPN91Y/fu3WrZsuVxt/2ovS+//NKpv23atJHPF02rfnR1vg0ObNGKvz1h9gvf1KaDHXVecjN9ELktPfVUbVwaro/2lq9Te7TSB5l+nRnenpm6sWlHR3VscrRtWRXb6aPt65rj7uDXzdSsiTtdwYbnl9nK7bQ3pfvPp5b/TKdv+5f+uTI8/+a2L15p5bbFZr7cNqoOa/dxC7f9p59+uluChmT3m08163/r1uFKVXeK31qhLa17uPueQW0262ogfp9e+edWtU0NbT+tLSvn6vX9yUo5zu2Of9UsPfHOF2p2aqIS2kW/zSl8fpZWtemns6pbBJsWauHOVKV2dKfrwnFuF+umTTg+tu0PZyZ11fYfzUnSc/RmXdJmq55+8Tpd59zG63eZd4fub/5AgYOvu+V366+lz9+rvW0uMfcifPVB6Ws8vbut+vUr0N3O9NP64KsCve4+dvd77vOBb4QEafMabbZ3P1mtzI2ZWv2ZndiirI9lDpYCyt+cb/41G5nPt+jFvy8zh2WWKf+s2PxvdtI2JOn2O+/RnT+9Vhd2cB6sIKh1HxxU4H1zsOSWbF4wVzm9btCdv7xH99x+rfqYtrJ4s1/JI0bq2p+kKvfpZbKvXs7uHAW/PVZjbzK3EX1C87ajrS62fzNmiOLXztWTH5jn7XlVsxZLQ39qXvuXd+r273YN/X0k81o5u83/ZuMQNLfCDzZpyx6zobAO2zK/try7WYWHQ0VWcPtmbfqkWMESZ0pB+zxbtt39u7ADq7VwuV/BnaHlBlTpcLGzjuUHQutPMOCX329vZq1JaqmcVzc55U4o8q7UtbVZ3w/kK3tNvltu6tWb2QqE17PDhdr8lnm9AxXWR1dwXbYOHt6sV/e4BR88qbkf9NINd/5K99x9u64911RCUy/8PYdr5OgblPrRQi2r9EOgmYediRpq66C5DepmisJ/86PrNfICvxbOCtXzqup4OYfylfOZnfOIuvSJqTfOg1WVmdI9W7TpA/N53QLnObbMPEefLNPC/IPyb67UcoSY9ys87WJnPoc3f14LzTK1Kr6msxzf3aJi810ETP2PGzBcA+JCDwWL7XML3TYg4v0jyuAxQVMn7Paj2F1z660eH++2ugJbHzoODW1PbxokZytZoU2ygUnxJ5tCddBsE1csWqLN5nPZdd1Z7209Ka045RVvznG24Zv+naWk2+7UPXeaNuaCVA2y73dVooLuezttSKRq24WgAhHvFTxg5sP+X12bEK6TFea79PsKb+/hXRXqrg4H3Lpr1rfOdbsNLn7tRR3MMPXg3js1IaOHfLZeRm5Lz+mj4fb+t8366+znDjfbzGLlRG7PTN3It/utEduyoU3LtmVlKry2rWMVP6sRDOQ781to6ox/5TNa8lFom3e0fYnw/nPFz9T9u/b9hiox6L53pX1vMw9uG1WpnpplX7oNNfPqzIdpf5x989Lvx/yNqc8V983hcTXsS8e236vVb7lHnoc3aPXOtupq6s++7dnu9tOWr1PmBwEVOtsd8/c1bdtK18Etzn5uue2PWV+z3w2qz6A09elkHnOPLZ11teK67Eyv02bznmXrfQ3rdq/hGt7L3jHvb+ehvreLEcfGn+2tUDfL3q7MMbcJJ5+TpOtCgfaqn85Nkl7Ic4tqck5Ptd33uv6t/9Il55jpegg7vwge0RsfFblTQPSaf31Ydf/bWU18Sum6V698Yg6uPjiklBtTVfiuOaTybVZx577le5K0StO1g4u18IVC3XmlW2YOqZJL5mrZB710xdmxVffE2vOqsnxDdUPc83rxsys0sssmrfZfqBu6VPMrT7Pqf/0JHrAbPHPHF6PYyE5tTWPV68o0Pf/PTSpOyFbCFbcrNpqfdzbN1c/f6KM7f5KigoWzlH/t7eq1+neae3Ckadh9Wj3jSaXcfb16vLtQ84vNzuiZq/XI31N05+iA5t77ipJuukGDelaY39YX69rRhVr2F9tPveEd+pL2pzE00deyfbqiVWgOEnzd4rTl8fkqHDdWfZ3SgDYsWqG463+stJK/a1NJH/XZmqniHkOc8EPtByj181dN+fXqs3+Nslskq+1282dm527uvC81/Ecp8hebCtLaTfNK+fXquz4NHR2v51fm64prumrT2r26cHTXanpP+uSr7gflkoPOjmeMeU7MafbfMr4OgzSk3YNaszNOBTXV8XI2ae7dq9Xn5zcopXChZn16rW4fvKVyWe81mv96Dw0fZNqguVs0ckIvrZkxS8UDxuoH55uWqvlVGtt9g2aFTwipQTBo5t22HzuWlX/Nm2L0jLMcE7V67rNK/un1intpvjacP0FXfO62AX38WjJvgy6+qa82/H6uDv5ggoa0WK0HF6Tonp84e6/H5d38PfrqZNn9+gY5zWx7Wzb92p2Knn/rZgXjuir40iw9M+B2DXc6H9VHPT7ebfXRlW+TblDMP8z/Fw1XL9N+2OOhvXvsFt/47BnNykrTDYN9Kt4VVFxM9fW8azdp7gub1WtIL8VG0xyUqtgujFL61ucVM8YsM/PY3xcF9OOriiu3CRXr5I9iyuZbZrv8t9XqMWyIYjbM18K4G3TtubWaqRpt33NIH+9l29vQTv36y9IeYLVRse6OdH7cDyr/hWeUP2hsnW6D47rFavPydSocfaESmruFFbelx9AlKdrOUpU+q89s+15O0JArYhXcbx7fXSx1MU+0n+PvNe1LlKnyM0WlUCsq1tNB2Zq7eYgmXB4r/2vz9WKvsUp5fb6KLxmprmse0cKz7tSln1TeNz/+LW7IVyVfs9/cSE7/uvbb3Ug170sPUtzL6+S//ArFvJ2lU789wTyWr7gBqSqwP378pI/8a7Ll69FWfhsA2m3b+uq3bYUvPahZRQM09gfpijX7j3Mjtz9jL3SfZbw3V794PUljRw9Sj+ZBbVoQuS7fruS1c/XlsGuVcqDYbF3t1qlYWW8W6sLq1u1N8zVfEzShbwNtF4+Y+X8tNP9dc8x7N5+gsWbBbnp6oQKjxirik5Zz7G3CyaPJ1/Y8wSosX75cGRkZ7lTdOxg8qFteucWdisaVumfwj3S2OZ4o2B7RuzPpHs3uUqTxa0J9RkPPu0RFK20v0pv1hwHS3c5j9rT6S5QYepICu5/W+PUvuFORfxOdM1p20asvDnSngOgN7NFa4y6KU5cuXZzTcxvEJ2Zj8GmakvM3q88Yc8D/lw3q1cc01AnXa2T3UMjX95arVPj8MiUMHaRCswHyjxiuwBuFumqoaS3tL2AbV2jJS7lKuf52DTrDfV1X/j9/pyUxlyq9aZZeOTBU91xTrFmzgpowoXzzuuEv/6Nndicorm0PXTxypC6suE+2YZZ+92GaLu1h7sf10oXdA6XzlmAfP7xaj8xrpZGdM5VpNoDDO9nCapjXmmU3NOZf53+7Nd0wV3ObjdXQz2Y5YchV5nMUPj9XGy4Yq4TFv9CLvh6KMxvcwuJkjb07QUuq+AxlypabM28NZNu2bfp0537d+ew2twQNpfkpTfT4j5Kc06Lj4+Pd0ur5t27SurczlfN+sZLH3+Osb4E35mphy2vNTkiMgmtnOTskF7/3iAr/y9SrWLNOPW/qXNImPRm8Xt/ftVDrzk9R7kOFGn5/X23+80Llnnmphg/pq7iKB0xmh+93z7bSpRf6lPXqXg29e6SK/zJLwXETdGHkAZmpF//zT78S4mLVY8BIjbygYiU08/DIEvn6p5kDxRh1PbePEt6PqEPGlkWPaPMlFytvcU31wzA7lrPe7qsJQws16y/ShFucSqi5j/s09qZgpbKhHZ/X3E/jlBBjdiM/DmrI74ercFam+k4YHlHHNkT8XQXm/X43O1dxpxXK3+ce3WkOwgqfNwdbka95T4oyX+iqCT9K0OpZ/1D8hOsV+3yoPUh4dpZ0ywRnx9ueArXh/OHSs+E6bpbL4xt04U1XmTbi2NiD5J07d+qXywq0dfeXbikayv8MjFf/7m3UvXt3tyQ6wZ2blflWlja/v0nBy3/v1IN6q8fHu62OFK4PdvyadukaOaKPVK5NGqK8ZyPrUtnrJxzerGf+/LyCF4zU0AFd3R8i7Wn1CeZ9QrVxg2lfwvUluH2DVix9Ubm9btDt3zWPl9b9KraONbUL387UXI3VDYfn6u+tx+qKvAr117YJpdvdcJ3sq3XhsnLvW0NbUUv2UMkON7bsfb+e3hDumo+Gcn6XGE36bgd16tRJMc6vXtGpqu46deyDi511pE7rrmF7bmUue0ZrfMN156hYrai4LbVhQnjf1FktK6yjZv1dVnCVrkpcpt88lCVfx1glnjtUP7i8h3mFSGY+/zBXuXEJpjxO6dcMVy9TZyM/6/CCsv1c5y/c7dxVZxTq1So+hz2FNmGouz8bMY/lP1Mv+SLbCecvI4UfC7VdVdfTPlr9l80ackucFv7iRfl6mi1qoFDFZ5p6ryWV9s2vqvJstdopKChQ0Z79Grco3CMYDelvo7spts1pOuOMCgePUTravnT+Px/RpgE3KGbRs0q4/Xr1cutR1/eeVHD091W8aJ0u/FauHiwYrt9e7q9i21bG1pPw8WWl/cffT5DC2z1bR74ydeQC+1emHldcl1s/o4UfJevS71+hvh1MrSmtf9Ws26V1LrJNqMft4gWZZfNvh+SaF9CPx/g0f57M/nmoPaqbNuH42CExduzYoa5du9aq7T8eJ1E4WubmAU+p5143IK0YjtrpXmdHbEQC+mDzeP0u72b9YXC8Xl/5O71wzh80u+Xrxx2ODouf5E4B0Wuhw2rT5GDDhqParCdnPa8vTx+usaN6mIb5SdNof6lLJ41V36ZljVrogMs0bgHTIM/fpFO79tH1kQdc25do1jvpFQ54tuiZWZuVfu0AswMY1Ianlylu3PdVOMNspCZdrz4RG57Ig6kqldtptMo3uIE3HtH8pubx1n/Xgzu+74Qf1Qq/lvm39DXdssidxvAGq+uyWQqMiQySjnZgVX8bg5rYcPTAoS+16+saPjvqhe05Gt9kT3Th6McL9cjHQ3T7lXEqfNasY+lmfdMyPfhyD9052v29uMTUs3mmngW768e3XBzawbAHZlf6zI5Ktk5p3lUjR7fS3F/aA7PQehbcs1nPLMjWxT8d6f4iHLJl0SxtvuhaDWhjnvP2Qi3rMEHf3/Ggnj3jTl3fx32SVamOVVTFeh35NyWmvv8pS+l3DtHmP1Wu4+VUE4KE7qtS2ciumVp9buSPHlXVsRrqZfj9rgw485j2s5GKXT6rwmv6tXrBszp0Vi917X6hepl92araAOc7u2i4tDj8/sdf38Ph6O6v29BztBHENjmgmGZHaheO+u0QLnEaO6aPfG+ZenCKqQeJ9VeP62xbbZU7IDIqtUkXq+DZgMbeEv6Bo/I6HtxuPv/yGE246ULzuaoPR0MKtWTWBqVPMH9f8b0j1dQujLPLrNgsk3zFjbleCZXqb+Q8hu9HBDE7zWu/aV77++Z9S9Zp1jw775EN4LEJh6MBswd34OuGOUBDmeb60qm/tQpHq6q7vTfpyceL9f0Jg0I9seu07pZZN2uWfBMiA4sI5bbBdv95i4ZMuCI0P+axueaxsaaNqbb+OCrU1So+68gd5etOZDhjVfwc1QUhYaHPZOt75XaiTBV1MuL5MS/N0ou+OBUHbQ/SfM39S2T7U34eK87v8bDh6IGDh1T09dEGZkV96NBkt0477RjD0Wj2pe02ZUWxaSgGaILZbtpp50cG35Oa+94piuk6Ute2nKv/teGoW6fKb9vKRK53xS9U3P6YqhEZjpbWkU2V1mVH0K/N/5yv7AG36+J3j7Jul75e5D5uPW4Xv726XB3P/+dcbW53qgo7XF96zFA3bcLxaYxw9Bu3d35lh27au/06jQ/3LLVBaIcrpcjT8d97XVsH/5fuSXpBv4vmNP0qtPA108CUOvg5C55jD5ALCw+6Uw2ll/o0na/cfrZLppRwdksVbulefagR01fXnp+pX2yQri9ep4WLsxWwp+AGpJQfVGj6Nq2R/9s/Vlf3fLpBF3ypWetMwzuqqx554HdanRBnNjzJGnLTIOfxo8l/aa7mvmPuOD1d4swCy9IzjxfId6BYwU5DNfYa+z4/0JB3H9RvHklQQmsp7vyRGm7HUzwOfTKS9Mgf56q4d6wKmqdp7OXuAyeglqea9qc77U9DKykp0UcfRdlrKC5RvqWvaLVZXTd/EFRiul+vLlitYJsCzX08x+np0Se2r9JNvXzl3B+X2zlT0z4aFLtQSzqNNOXhMdHsIOib1TLhoIoTUsrvgJRs0poDafpxF3fYi0Hp+vIv6xRzy7Xq+uff6HerExTXXEoePFZR1UK3ztndkPDfhOplQMXFMRoweqxzMNW1ijpe3cFiNOK+m659f35Ez/ROVvBggoaMOsbdrKY9NPLKNXrQnnJ8aYXXNO1X8dZc5R/+Unkf+eUbcUXpj6lOG/DnZ+TvUaysPem63VSxV93HyhRr2f1L1PWXw5Xv/D9WCS/8xnxXv9LYc92nHEXfM9s34A9jCNu+PahDhw65U1E6LUGxhav16qpc7X2nWL6L67EeO45jW+0WVatSm9RHQ7s+ot8tKFZqszbq86OL1at1lpa8ZOpJspSVVayEFnmK6Ta0/Ocqp1jrnl6ibDuU2xHzz9kjj+/gyC6z0//X6SXzW/uZo2oTEsrm+4JBSt/ziJ58KU2nbMhR0ujbpXfn6jfbh+tXVxZq7v35Gv7Lrlri/F/7XuCd28eoQwe2vQ3NHiBv337AnYpSpbprat8/Fio32MNs33JD27ZudVd3N9vAYrt9lYACHYbIntxbWHFbWnH8XfXQ0PQ1euSRuYoz+7L+QJKuvc0UH+WiwJVU8VlD29NZWtY7Tl8mDdXwb8Uq69kVSriio4rXbKuhDSpT1Wc6HrED01R8d5bS/mD3193253HT/sSaffy+Y01JZcXu9nX4dnc7a1qHUH2uXe09pVkTDexJ3W0MH354HL3to9mXPmOAkvN/p73XV9gK9hmkWLN9Shph/vh9t6x4g555LZptW1X7pBHJYDmV1+UeW57U5uYJOlicoOOOi+pju/j5avd5IV0HJ2nhfUUaPsMtqEY0bUJd1dnGcnL0HK3YG9RegCmyp2hpz9GI3qGhRw17On1Pffzix+oZ+dg5f9BTHffqaWe69j1Hu7Xppt/2/607BUQvFI4WNnDP0TpUElRgf2hAaMvXIlYxxzjuiB1Uu2zgZ59iYsuPb1gbdflaldhB/L8o/cTHPHZUXbA9R48cqWXvJ9SJUDj6UdSn1denOlvf67A+N3g9OYb3K9cT4LMlmvX+xZqQUcsdNjtulX2fiv8fRbjnaLdu3QhHG8H27dudcPTMM890SxpfnW636r3+le85GrUTYft5jHU2LNxztH379oSjjSAUjm6v9Wn19ale9zkrqsvtdDXK9RKLVgPMV5V1tpb11/Yc/eKLL9SzZ0+3BA3pww8/dK5Uf6yn1dcfs/7aCxa5U6FrXdRbLS7vBDqudOxZoVkre2nCNWVdHI6pTbDqoM6GNUbP0cb8GqKX9zuNd68k79xKxxc17GOl03/V3eWCUcuUOVexr/DYe3frutLpF/S7WgSjAADg5BN3bor2LX9STy54UrOeDerigcfwS3Z4z6ni/wBOTNRZ4ORUVZ2l/gJ1pvCNhZr1t0KlX3k8535FOMnr7Ek55uiJgJ6jOFYnfc9RNCp6jjaeE6nnKE4+9BxtXCdiz1GcHOg52rhOxJ6jOHnQc7Rxnbg9R3Gio+coAAAAAAAAADQQwlEAAAAAAAAAnkQ4CgAAAAAAAMCTCEcBAAAAAAAAeBLhKAAAAAAAAABPIhwFAAAAAAAA4EmNFo5+9fVX7r2TU8tTWrr3AAAAAAAAAJyMGi0cjT01Vme0OsOdOvmc3uJ09x4AAAAAAACAk1Gjnlbf/4z+7r2TS7MmzXTO6ee4UwAAAAAAAABORo0ajn6383c1uMtgd+rkENs8Vj8864f6TuJ33BIAAAAAAAAAJ6MmXxvu/XKWL1+ujIwMd6r+lHxdoneK3lHxoWLn/omsebPmzlAAZ7c/2y0Bovf550XK37ZdW7fma/fu3erYsYM6dUrUt3r2UKtWMe6zgJpt27ZNR44cUffu3d0S1De7vD/I+UjbC3coLy/fqa9JXbuqc6cEde3SyX0WUDO/36+dO3eqW7duatGihVuK+vbZtgJ98mmetpq6++WXX5o621ldu3ZWN3M79dRT3WcB1bOHSrm5uWrfvr06dOjglqK+FRXvUv5nof3m4uJixcXHme1uos7q2V1tTjvNfRZQs4KCAn3xxRfq2bOnW4KG8P4HH6rA7Dd/ujXP7PM0L91v7pbUxX0GULP9+/drx44dZp+tq2JiGiYrafRwFPim215QqLfefkfvvPueCgs/d0vL2A1Fv7Rv66L083Xaaa3dUqBqhKMNp6SkRGveXKe31r+jDz/e4paWads2VqnnpJj6e556JvN9oGaEow1r84cfa936Deb2joLBoFtaJvWcs3V+33N1ftq5atq0UU+kwgmOcLRh7fi8SOvNfvOGjZu0bXuBW1rmjDM66AKz3e1/4flq166tWwpUjXC0Yb2xdr057t3gdCqoyB7n9ult9pvPP08p3+L7QM0aIxxtNtVw75djdwKSk5PdKQDH4tOt+Xp26XK98eZbOnDgoFta3r79B5yDOL9/nxISOqp161buI0Bl+/btcw7U2rVr55agPgQCh/Tv51/Ukn+/oF2797il5X3xxWHl5W9zfgCxvVjO6MhBM6p3+PBhHTx4UG3bttUpp5zilqI+vJm5Xv/3z3/rw4+2OD9yVOXznUXOj5ZNmzbRWT17uKVA1ewZPy1btlSrVuyj1Se7Pf330v/otdVvmv3j/W5peXZ/2v5gabfNHTvEK7YNvUhRPRuwfPXVVzr9dC6mXJ/sj5DPv/CS/vXsMu3cWeyWlmfP3rBnc9ge4a1iYtQp8eS9ODfqn11fDhw4oNjYWPl8Pre0fvFTOVBPtm0v1NJlK7TpvRy3pGa2d+lLK1fp0KFDbgmAxvLSyte14uXX3Kma2Z2850xdr+pXcgANa+O77+k/K17R7mp+1KjohRdf0QpT3wE0Lhuo2P1m22M0Grau22217VwAoHG99MoqPf+fl5yz247Gnkn53LIXtTH7fbcEODEQjgL1xIadm96PLhgNe2PtW+bvNrpTABrD+x9s1suvrnanomN7u6xd97Y7BaAxHDh4UK+8vkY7dux0S47OHsi9+NKr+njLp24JgMawPmujst7JdqeiY/e17fAZABpPrtl+vvLaGncqOkVFu5yzPI4cObGvOQNv4bR6oB7s+Hynli57sZpT6fvq+nEXq0XW+9rulkSyp172OedsNedCEajCrl271Lx5c7Vp08YtQV37z4srnQu4lHHr7Cm9dd2Yq3TFwO9okHPrq66H39K7bkXeWVSsLl06qWOHuFABEMEOiWHb97i4OMa4rCdvb8h2epJFuvDaG3RZTJwuGnONri6tu99Rr9Zv6O2PQ8+xpwO2btVKZ/c6K1QARLDjFdr6a7e79tR61L09e/1a+sIK7S3XC/Qy3TquuzqmXaPrvldWdwf1aqlXsz5xn2N/FAmo99nfUgzfDapgh8Swp+TaIW1QP+zZFzmb3Q2qI7r9Zju8TWJCR3Pj9HpUZk+pt2fU2iExmjVr5pbWL/bOgXpgT7MtrLbnShvFnXG6Yt2pij7O/VSffx59rxd4hw1G7bhJp3GV1nqzf/8BbXin4il9bp1d94x+f/90/crmpnnm//v/rCfXhZ5h2e9myydb3SmgjN25sxdkat26NeON1qOq6l9sfAfFtXpZj9m6++Z+s7f9lqm70/XYC+4TXHbsb6AqNlyxbP1F/di2rUBb8z5zp8LaK+GM9lo2x25v35K/6X6tsfV4zsvu4yGfbTP73FVc8BTYs2ePM24hHQrqz5fBYBWnx0e332x9nFv2QwcQZjsT7N2717kQ06kN2GGMq9UD9eDfzy93BqWu2nf181+laNNvHtMKt6Sikf89zLmKLmDZZtpeyMXebDDaqVMn9xHUNRuu/P7BP7tTYRXq7HWT9RuZnbynnAfLsb1Xrr/2B+4UULaDZ3uLJiUlOT2/UT8emvGYNn+U606FXDFpsvpkT9dDr5iJS2/Vb1Jz9KsZlccTtj2L7rrjVrWN5SAaIXbIBXsxF1uH7VXq7dXqUT9sz7N//Os5dypspH7zK+lXv3nG3K953/nqoVdoQP8L3Cl4nd1vDgQCTs8zexG1Ll26uI+grm0v2KGp9//RnQqLfr+5R/ckjb/pOncKCF2IyXYosBfUtPvNDXnGBuEoUA8W/fPfevmVVe5URUcPRy8bNEDn9klxp4AQe1pBfHy8O4X6YH/Bnv6nR92psOh38jp3StCo/x7qTgEhtseZrbsEo/XrNw885FwJN1K04ag1dsyP1OY0egeijA3N7VAY9mq5qD+2Q4HtWFBe9OHoxRddoAvOp1MBymvXrp3zw0aTJk3cEtQ1u821297yot9vjju9va6/9r/dKSDE9hi1+80NPZQN4ShQD+zV+v69tOJOXtjRw9HrR49U2rdT3Sl4nd2ps6EKO3f1b9v2At037dh38lLPOVs3j/mxOwVI9jR6G7Cg/j04Y5Y+/GiLOxUSbTjatGkT/f63v1SLFgTYCLG9vflBo2HYC6k9vWiJOxUWfTg68pqr6TmKUnZ/2Z6Ky/je9W/Xrt36xf9Oc6fCot9vTu5xpv5nwk3uFNC4+82Eo0A9eHvDu5r917+5UxUdPRyd/LOJ6pl8pjsFoKHYi0E8NGOWdnxe5JZY0e/k/dewDA393uXuFICG9My/nqt0QaZow9FvnZWsOyfd6k4BaEjvvb9Zjzw6150Kiz4cvf22sTqndy93CkBDsRese+iRv1QYMzj6/eYhlw/SNcM54wonBn5OAepBL3OQZU+vrdpreqiGYPTslLOU3KObOwWgIdnxBs9O+ZY7ZcQnq0/f9oppJgXdIj1V9Q7eqT6fUr7V050C0NDK/6jYXr369FFcc59U4ha98li1p9R/q2cP9x6AhtbrW8nq0T1i3zcpWX2/00a+cN2tYd+5+5lJTu8zAA2vRYsWx7zfbKX0Yr8ZJw7CUaAetG7dShf06+tORa9581OVfkEap08DjcgOaXHGGR1CE3Gd1adPS21euUivhkqq9Z2LLih/cAegQX2rZ3LEtre9uvZOVcxHr+nJqvPQUl06J9LrDGhE9jTKfmnnuVNGYk/1Td6nNf+2vUarZ/eXL0o/n+EwgEb07XPPUdcunUMTtdlv7n+BUr51ljsFNL5mUw33fjm5ublKTk52pwDUVscO8fL792l7QaFbcnSDB13snF4AoPGcfnp7lRwp0fsffCgVb9Wmdzfpg7xD7qNVs71Wrsq4TLFc6RpoNHaMqnZtY52xg/f6t2rLe5u0YfNnCriPV8UO9n/1VUOU2udstwRAY0hMOMO5unj+Z9ulbbna8O77+nin+2A1Bl3yHQ278gp3CkBjaGu2u7ZfT/amD6Leb+7apZPZb77c7HO3c0uAxkc4CtQT2wvU7uh99dVXoR29GtjnXjboYiccbdmyhVsKoLHY0/TshTg+31msQ4dq3sE779xznGDU/g2AxtWuXVu1aXOa9u3bp1279rilVYuLa++METxwQLpbAqCx2N6jnTolqKSkpML4hZU1a9bMCUYvGzRQrVrFuKUAGktS1y5q3aqViot36cDBmn6SlM45u5euMtteO5wGcCIhHAXqkT29/qyePdS+fTsdPvyldu2ufKDWO+VbunLIZbri8u8SjAInkOTu3dShQ5z0tZy6+9VXR9xHQuypuJeag7Mhl31XXbp0cksBNLYzOnZQz+TuatG8uVN3Dx36wn0kxHfKKfpO/35Oj9G0vue6pQAaW0xMSycwiYs7XcEvgyoq3uU+UsZePO3KjMHOj5IEo8CJ48xuXZ3tb9OmTbR7z14Fg6WjjjoSEzrqkosv0pArBtGhACckrlYPNJADBw5qx+c7tbNol7OxiGnZUu3axTKIPHASyMvfpl27dzv1uGnTZjq9fTt17BDn/PAB4MS1179P+ab+7jd11/ZIi4lpoU6JCc4BHIATVyBwyNlv/nxnkfPjpD3Lyp6+2+PMJKfnKIAT12fbtqt41x7t37/f7Dc3Vft2bdUhPt45YwM4URGOAgAAAAAAAPAkrlYPAAAAAAAAwJMIRwEAAAAAAAB4EuEoAAAAAAAAAE8iHAUAAAAAAADgSYSjAAAAAAAAADyJcBQAAAAAAACAJxGOAgAAAAAAAPAkwlEAAAAAAAAAHiT9f2/XHDrEvn9DAAAAAElFTkSuQmCC;" vertex="1" parent="1">
          <mxGeometry x="20" y="50" width="1351" height="387" as="geometry" />
        </mxCell>
        <mxCell id="MjxrRLAFj5rtADyUKayE-2" value="&lt;font style=&quot;font-size: 10px;&quot; color=&quot;#0000ff&quot;&gt;&lt;b&gt;1 - Inventory Job Template&lt;/b&gt;&lt;/font&gt;" style="text;html=1;align=center;verticalAlign=middle;resizable=0;points=[];autosize=1;strokeColor=none;fillColor=none;fontSize=18;fontColor=#FF3333;" vertex="1" parent="1">
          <mxGeometry x="245" y="330" width="140" height="30" as="geometry" />
        </mxCell>
        <mxCell id="MjxrRLAFj5rtADyUKayE-3" value="&lt;font style=&quot;font-size: 10px;&quot; color=&quot;#0000ff&quot;&gt;&lt;b&gt;2 - Job Template - &lt;br&gt;Facts Specific to Subscription&lt;/b&gt;&lt;/font&gt;" style="text;html=1;align=center;verticalAlign=middle;resizable=0;points=[];autosize=1;strokeColor=none;fillColor=none;fontSize=18;fontColor=#FF3333;" vertex="1" parent="1">
          <mxGeometry x="470" y="315" width="160" height="60" as="geometry" />
        </mxCell>
        <mxCell id="MjxrRLAFj5rtADyUKayE-4" value="&lt;font style=&quot;font-size: 10px;&quot; color=&quot;#0000ff&quot;&gt;&lt;b&gt;3 - Job Template - &lt;br&gt;Common Facts set from Active Directory&lt;/b&gt;&lt;/font&gt;" style="text;html=1;align=center;verticalAlign=middle;resizable=0;points=[];autosize=1;strokeColor=none;fillColor=none;fontSize=18;fontColor=#FF3333;" vertex="1" parent="1">
          <mxGeometry x="690" y="310" width="210" height="60" as="geometry" />
        </mxCell>
        <mxCell id="MjxrRLAFj5rtADyUKayE-5" value="&lt;font style=&quot;font-size: 10px;&quot; color=&quot;#0000ff&quot;&gt;&lt;b&gt;4 - Job Template - &lt;br&gt;Common Facts set from Ansible Setup Module&lt;/b&gt;&lt;/font&gt;" style="text;html=1;align=center;verticalAlign=middle;resizable=0;points=[];autosize=1;strokeColor=none;fillColor=none;fontSize=18;fontColor=#FF3333;" vertex="1" parent="1">
          <mxGeometry x="905" y="310" width="240" height="60" as="geometry" />
        </mxCell>
        <mxCell id="MjxrRLAFj5rtADyUKayE-6" value="&lt;font style=&quot;font-size: 10px;&quot; color=&quot;#0000ff&quot;&gt;&lt;b&gt;5 - Job Template - &lt;br&gt;Refresh Inventory&amp;nbsp; with new meta data&lt;br&gt;&lt;/b&gt;&lt;/font&gt;" style="text;html=1;align=center;verticalAlign=middle;resizable=0;points=[];autosize=1;strokeColor=none;fillColor=none;fontSize=18;fontColor=#FF3333;" vertex="1" parent="1">
          <mxGeometry x="1160" y="310" width="200" height="60" as="geometry" />
        </mxCell>
      </root>
    </mxGraphModel>
  </diagram>
  <diagram id="pGj9nUVSxNoD1zpddjHS" name="VMware WF">
    <mxGraphModel dx="1983" dy="964" grid="1" gridSize="10" guides="1" tooltips="1" connect="1" arrows="1" fold="1" page="1" pageScale="1" pageWidth="827" pageHeight="1169" math="0" shadow="0">
      <root>
        <mxCell id="0" />
        <mxCell id="1" parent="0" />
        <mxCell id="dEf2hK6rVMyjdn9-MswJ-14" value="" style="shape=image;verticalLabelPosition=bottom;labelBackgroundColor=default;verticalAlign=top;aspect=fixed;imageAspect=0;image=data:image/png,iVBORw0KGgoAAAANSUhEUgAABFEAAAK9CAYAAADsT/NkAAAAAXNSR0IArs4c6QAAAARnQU1BAACxjwv8YQUAAAAJcEhZcwAADsMAAA7DAcdvqGQAAJT1SURBVHhe7N0JfBXlvf/xL4SwhOWwJECCECARCZiABCRYQQUXXGgrbfW2ahUrqGj/xWqxV6pVW7rY3qq3igutSBWtXAutgkYUkEUJYqIkQhASIEESNBFyIATCgfifZ86c5GRlAkkg5PPmdcjMM2eZM2eeWX7z/J5p9Y1FAAAAAAAAqFNr5y8AAAAAAADqQBAFAAAAAADABYIoAAAAAAAALhBEAQAAAAAAcIEgClCb1Kc0ZcoUPZXqjJ/BvKse0zTru941N10+pwxAM9eCtmEAAABNxcXdebL02s9nK3mflHj7PN2d5BQrU/PuekyrS6TYG57QrEs9TnmeFt0/S29+JSX85Hndc2Gov7isQOlLXtOid9OVU+w/TQv1RCvhqut106Vx8gSHc8yBX5Wjvhqfm/+mZj2wyPrEKE3+3WxNivQX573xsGYtzpFCEjTlf+/RuLA8vfnALC3K908Plni39Z0SrY+cYx1obrAKRt2tedOtgtqU5Gj16y9ryYdZKig1BaEKi4zWmGum6foLIqwxo4GWma1i3iu/xvAp5clpeu5TKeyimXr6lriav0dJlpJffFlvfpqjErPoQ8MUHTdO46+brHF9rM8qX46Junve3db/FepcLqUpevyu55R+zIzE6sYnZmlC8OwFzXvUtbM1+9tRTnmQar9hqp6a8pRqPeYPzEf566oK+g5u16PaOK8PrCO1qjIvUZOuVfibi5WuCE367WOa3MeZ4F2u2TNettaOMI2772lNGeqUl6XoqZ88Z31njyb+6gldH3Oc9VWVv5cpm7h1hmYv85oVTvMqVjhlvniXHltlrXBn36gnHphgfYJf3uKZmvVGgbXCTdHz94xTwRuzrDpjfYM463kzK57nyvHWrzNVYP0KG6eZT09RnFNsy31NM3+drIJAvSgJXkdqqCtl6Zr308ftbYNx3HUu2HHrYUU9rlYPa9mGFqS8rOf/tVpZhc62OjxWiWMn67++bdUbu6Rm5dsLW9XtSY5e+8XDSi40w1XqgKN+81lDPQkJlafvGP3XnTcqqaez7rnYVlSeb4v9PgmaeN1Nmhjn/8Z5gTpSpS4Zvg8f17S56UHrQomylr2gl98M7O+s/UT/OI2bcL0mXxhljbmc92Al1nbiF9Z2wlpHytePKtu4autNrduwWrbNhSl6+flFWr29QD6zPrWLUGziWE3+/iTFba/8WdUcb99Zy7oGAADQ3LhoiRKrhIQweyhrR5b917Y7U5nOAX9WxsaKq9elWcr5ygxYr4t3DgTLrAO2R2bq8cWp/gNK6yQrzJrk8+Yo9dXHNOORN5VX5n9qZdaBZzdPpec+8PfjXCnfvUhPmwCKdZCeeOftGuef9XKhnTzyWO8ZeHSt4Vi1ViXWCf79D2veSieA0i5MoSE+leRnafncmZoxJ9U6dDYaYJmVi1Jikv8AN+ujj2WdJlewTrw+zjADYRo5qtIpXBCvlj8xW69t8J/ghrYzC7NEOemrlf11fb58db7Udf4TtxAzlqWUDZXm7gSFqmvQ7+N/WMvZmRpm/X5VhXqCn9u1/LkVTmA9OhFh0Uq4IEmJA89TwtmmoEA5O4I+JTPTWkpGiTamB60XO3L85WHDlBBjl5SrcX3tEack63Niw/3PMWIThllrgWW78162POsjnRVuW7o22kE/w6esnQX2UGz8MHt5RX37YT39xNN6/r56BlAacf067Z03Rolm3S/5WCmb/EUBeZ+mW7++5ewkjay2QLOUnlFl7fssVR87P1V9NXg93DRPDz+33B9ACQ21tnHWZxRa7/uJ2a66E2F976QL4hS0ikq5KUo1ARR7Pkv08YZMM9Aw2pn6YW0njvnk3blazz0wW2/WEIQ87rbC2jdVvE+qXnvsAT33qf+3ihqVZG2NLdtS9HGVRZxu/d5GmPUcsyX2vve4Zr/q7O+sOhFq1bmSnela/Xlh9c90Ne8lSnnhJTuAUkkN24ITVpapeY88p+XbTADFmud2VllpgbI+tL6HmR7atWLZmWmGCfwEyjqdYfW9NEXP/XyGHnvPv60EAAAIcJXOExsba//1bsn0nxiYYeuEsMA6bQszZ25Z2RUnbla5fTjZLVbRzslDzutPaFGuNRASrYkzn9C855/W08/P0xMzJyraHFDnLtLz79V04J+gW//yhP3c2ddG2yUlH65Wao0BF4sJcvzhTfuKY/S1s3R3YpUIiiXhlif0hPWegceNCc6E4/IpZe5TSi22BjslaMofn9e8Z62Tzr89r8duSbBPYEs2vKDX/MfSJ73MglUcvAefCFs+WadUc/IUNlJJVa7olvtqtdZsMwNRmvTbeXr+WWu+reX/8H33aLLr714Tn1I3mLkO07hrJyrCGsr6YF3lIM8JSdCNQb+PeTxyVZQ/4NEpUbd+379cK1jf6/7g599ovUNV9VyPTpQnUddPvV2Th/dV9AD/D5lu/bYBmda6YJaX+f29O3LKl1WBVW4Px8ao6rercX3tP0G3W58zcYD/ObbAa/dlKtMOyFm8/uEw/wqn7IoVTpn2Sb9Hsc58WmdICvNYJ3KutghBGm39agZaJ2rMCDNQJShmbYFSU5w2J+ePrByUsn4L82ukpzsbCkdm2sfWu5iTUafAtYavh+lW3TDn6mGJt1t15nlrG2f9rn+apZm3uQ+w9bvidmsdnSB/bfPLSUm1t4Wx356sBGu7X7IhRekNVAejrppp1Q9re/z8PUoyC/hYjlLTqp78uthWDL/V/z5/n63J/UxBiVLWOq0vIhOVZLeeqBIEK0vVujQzEAhmF2j1Gv/6EPXt2dZ+wlqG857X04/M1D01VAo3816S8oJeMhEUOwAVpKZtwYlKX63VZv8Wlqjbn7bm+dl51rw/plkzp2mCWS8TbixfdjOtbbKt5yTNDCzPH59ZFd67ZrlS9nnltZvXAQAAVHB1yhQan+A/QcvNUbZz0Ju5xRwkRik21jrqK9mo9Gx/ed4OZyAuzjkhzFJKiv+A0DPhRl3vNI02PHHXa/IYc9RoHWC/v9oOftQmalSi9WlGoQrs5uBVmNYuf3SCHP0ma1pNqSMno3Sd1n3qH0y4/m6NK29uHaqIi27VpP5muESrnQPuk1tmVZQfvKcrNbXigC79U/8JeuDq53Edc15r0i2GxtazxUEVgeURNlKJVyYq0Rxk70zRun321Iazb7me+qdZbmFKvOVW1RAXq5fjrkcNpLxlSFaWs147rULCYhVr0nuCAmLZO/xX+KMHxVW/Su1Wu2FO65cc5Wy3S6wVzt/yJSo21pqXoBP93VnKtlsuxCnOafliUhVM3wlT5gSa65vm/tb4bU8p5asUzXvkLrvPlCm3TdOsv6eooKaT3zrWL1/we1iPab94XG9uC7qsbtIOrPKHlxaoJP1lzbrDPM+qz+nzdJf9uY8rJSiA6H1vtn9+f/Ga/yq5Kct8U4//Ypq/fMo03fXIPKUE/8a1fYaZVpKlNx+fqWm3mTLrcccMPfz4IqUfJxqRONqfvuBNc67WG/usemq3JIhV0qgqtcxj/f6mrqStCwriZSplg7UsIq1p7Z0itxq5HvqceTTpPHEnlZoV2A9EK3HsRCWaoG/Jx0r9zJ7YcEITNNIJKOfk1dAUxa3WUUpMdPYhBQVOILyiVWB6aqo/sGt8lq7M2oLZVp3wPy9UYf2s7XtdQbLa5r0kVS8sSFXJ2eOs/Y5T1tgCX86k88SZ9KPGYtI3rfr2wJvK2hZUf6fN0ONvZNnBPDvV7S5/vXz8w/KlblW65Zptnjtlpl4zF2ksx93OuPk868tnLX1Mv7b3O9aWcLGzbbReEzhG8X/OjPLtxbRfzNbLznGOX2D7+ZzSrWOT5Y9bz7WeN+uNz5X8iP81d/09KJBaZs2X816VviMAADgtubvu7Il2Dv4yzXlZxd9usZo4ypz2e5W1w5xtVKQJJMQ5p/WlecpzDuhjB1UPESQMdZ6Xn6NaD3l9XmWuSPEfwITHKaHagaRPOf953t/apVOi7r5/knOi3IC+yHdOkqIUG1P1kNKjhARzDdjyhfV9zd+TWWbVBB28O83GzfulpplDvrpSeSw9rRMr+4qqdVD367usE+DVyjmZy9QO34ZUu/VM2IhEJbSOVaJ9spjTQCk9AV4tf+ZlZVknKGGjbtWtNUZQ8rTIHKyag1zzCDrQrea461EDCrQM+cr63c0icVqFKDZRE+3WH4GWIVlO0MOjuMHOOnRCPOWtX/wtXgJ/PYq9PNGel0DrF5/1117jrLp33ODbsVQ998BzWp1vWqpY6711Upi39jk9HWg55mb9yn9Ts8177PQpIiFJSYmxCtuXrkW/e1ivOfHDgJwPntDsx5crzwRMIqMVmTBW40w9OpaudeUBRK/WfeA/wYm+bKLd2sH36XN64LFFSt8XZi1i6zOs+ugzqRG/rOhnJKDaZ1h1MGXubC1KL5Cvk7UuX5Cg6NAS5WRZX6Sz/zW1CqT0FKYr3dmAea0TbHtbUWMqj1NXjmUq3f8zSZtS7FSeiOEjK7XccKMx6mHcqCQ7AFiS+pxm/PwxvZZqLRf/pBOXneoP7PRP0phuoRozyrRaMCk9QSeSDcGbonVOalXsgKpL0/22wrcvUyuc1kQRQxPsFj5GeavAjI/LW9H4WxGZbVQgmB2hxPP9n5239GHd9cA8a9138XvUOO8lSn3xBaUeitbkKVdUTo9qaHFjlNTJ+lti1fl7Z+ixhakqaKrz+fxFmv3HRco8HOZPC7K21emLH/e37GydoLEX+itSurW+l28F1q+xg8TqP14TzTaoHtuZOj/PWuYlh0LV1UlZCuuXYKdMJY2IVkdTUP45XvnaeOSxtosm3W35czM1u2qLWquev/ar2Xo53XquNRrZ5xxNuMzfYqckzaq7gUBqoFVpSKLGJTVeyAoAADQMl433A318WCcW5oQ/0LfHwGjFxcTaB5X+Pj6scvsgMFqxg5wDgb1e1XnBv87jBeeq0TSTl2wd0IZYB5Izrq/hRKNAqRuc68CHvCoKTnmpIvWpoIPoujowraqowD4BrVVI1S9yEsusBuUH74Er2Nnp2mgfudeRymMzTdjv0YRI897mBHieHjYHyMtyyg9G68+r1avtUzeNtE+GrG97/hi75UHOuoZI6fHzvveUXjapIiaN55ZEf8uOGlTq56B7Rf8pFdyuRw2ovGVIlrJ2WH+cViER/WMVZwcTnZYhJshiTi6DWoUEq8/6Gmj9UrIjy6oRgf5QYhUdF6tY05LJaf2Smek/cXXd8mXoFD0x5wk98YTp9Nj/K+RsDUQAjr9+Zb6TrBwTCLvwbs2+53bdfvcsPXKdWfoFSl5R5SQ6P0++C27Xw088rad/PdF691glJflPYctPoPatU8pOM5Cg8ReZtc5aH99KsZao9Z2ue0Sz7rY+457ZutvM67F0rVjpD1KWq/YZRSrY658UET9RN91yjx7+6/N63qR7HG8LWZ7Sk6eUDeak26eNGf4AT7VUHof/d6roEyQrfaM1Zp14J9nRqHponHoYOvx2zbohTh4THPJmKvmpmbrrgZeP2yqnLplrVtvzEz3GP3+hoxLtVJpKJ5InIe+txzRjxjRNmeHveNVsMyZeUH3pH3dbscHfWmnazx/TchMU6zdZM74ftKUItAo8lqp1n5iCLKWn2xviSsHsqKtn6p5L/C04fPmr7VYLM/5s1YMaNrp1zbvv05f0woYS6/2mNX5HrO0SdPsvb5TdWPSYV5lvP6WZd83Sy5821Ba9bhGXzNLTf7W2M3/9k653WnZmZvsDWbHfGuMPZGVY+z97/+7VunX+fX7CBH+aWb22M5baP8+jhO9fr0Rn9emaeL2dMnX79xMqfY76T9ZjznbxMWcdyVq8yNqjB/Mq74C1v7nvMT399NO63VrpQ5Mm+PtqC2qJlbrev2UPGzNOifVNqQQAAE3O9e460MdHzo5sp28Pq2ywddBomqCbAwLTx0cgTaCbdUIYuMrf3VP31bM6z+T9HYKajg3NcNKdszQpcKeTKsLiJsg+BzmWpZdf9Of016RyR501dUJai64R9gFUrQKpDEFOeJnVpPzg3X8FO+sj/0mSq1SesATd+Lun9cR91oGhOdk1B8ivPqbnglKD6sX7sVLsfjBKtPpx5wT/t8n+k7ada7T6JFrRl3OdxlOln4P7JpRfNa7gfj1qOBUtQ7J35JX3hxI3KMpaCfxpW3bLkO05/lYLtbQKqdf6Gmj9YlLIAn2jnG29b+soxQ6yVzhlZ+WZDCOL+5YvUTGx5XcyCo/o6h/IM2EaR53rl/V5W/21sWTt4+UBoRmvOkFPX5V1MCRR1/8kSdGeMIWZTmot0ZeN9we8Pl2nddYJVN6aNf5lNnyMxthXi7OUaa+PVl17dUb5Zzy+1v+5vqp1s9pnRGjcFf5+jQrWPqUZd07TrDlvug4aBFJ68j7LlLfUOsmzz9dqSOUJiEtQnLUulqSnmxCbUk2rkW6BFj310Ij1MOrSmXri6dm6/RLrt7fm1Ze/XI//sY5WXnVy0pUs5b/PHfP8/UCVrNZqOxhxkkq98nqt39mkko26XjN/e3cN2wwX2wrTsaxpcWUPJ+nuX01SVKW9ZEWrwMwMq04HWthUC2aHKeHHs/X0X2bq+lH+YIp302t6bG5QGlBAbfNemq4X/p6ikvCJmvId/2c2uj4TNPMvz2v21AmKNauvL0/Ln3ysxk56G1q/wbHO9s2jCOeHKch3PrjfRI03gQ7TIm2DtazyV2uNCaSGJGjMKPOqem5nLHV+Xq0qPifqvERFOOtGxAgnTbQkR1mBPqkcUZfdqElDI+y+qULNB7Y2wV/zgU76b3CfOkn+YCgAADi9uQ6ihA6K9Z/IWCd9yfYdZyIUZ1+yilOCOXi0Dh7SP3DSBIL79mgXpSgnDzxrq/8KbbD0Tc51G7tZfVX+DkGfuMUcWPiU8uLLyqzxqmWUJt50o26f5qTxpL+mF1L8BzpVVe6os6ZOSGtxVqTTcsE6iMquekDmVXq6c7X7LOv7+odOfJnVKEoJw/0HXhvTU6yTcjuEUncqTyWh8gydqLt/94Sm2F+6RKlpla+Zme9RVOnE0aeDTqsecxIfUN6MukaBK/Inw00aT324XY8aVqyTnlVgndCm7zDrY5z5ma2Faf3+ZmXfnuWsF7W3CqnX+trOWofsE/Es5bxrTs+tNc76QHuNizcfXKKcTWv8d4KqpeVLTSL7uDmBO/765TFXdG+/vfLjiiprfU9rO1B1q9RtgiYONwPpWrMm0+m0NUzjLkmqtsxiL63y/tbj+sQqp8o1fIbngnus5Wud8F5g+nLxKW/DIj31wGNa7qZvkXNH2h2l2i19Up1OomtM5XEEWq/sS1fmh6lKtT7DM8qfclUfJ1IPi/ZWiQyVlOigPRAuT3d7oIK17U768Sw98d/+DmuVb81rlRNEV6ztVV13HgpchQ9Wr/m0mNv0zps3z9+p8fSJ/tYUJ8J0LPuEsw77UvTCgqrbSOuzhvvTe0wQLMXpFLq2YHZotzhNnD5bT/zEX3NL0j6u0lKh9nkveG+RUkwfX4XJmv0TExSouCWy3UKtvP+iBtY6VFEX3KhZf5mlifYVkLwaOultaFGKrnMz4ylPg0lfvVqZG/xpmWFjJigpcKcgh6vtzHE/r+HUtP0sDwynrdNq08m5uZASPk7j62xVCgAATheugyjqaZ10mWDIvnVaZ44Cw6xx52q+v6+THK1LcZrXOiePfhXN8b3LX9ZrdgcRft5P5+ll52px9MXjyoMPVYVdeL3/TgnFq/XUP6of1JbrM1k3XmROuK0TuAUvKb2OtJ56azdGY+wTOROjeUqrvwoEUnzKWfqU3rTTC6wTuwv9V6VtJ7zMahadlGgfvHu3JivV9P9y3FQey7ZkvbwqS+ZCZ1Vh9mUxS69of8sY65RsxbsVaRi+3Df1jtMKOjraH0IyAY5AM+rYG57wH/wHHrc7V+QDLQVOUEUaT5Ju/0ntaTz15Xo9aijWb2of9u+yfn/ze9mtQkyB0zLkWKbW2X1XnGx/KAER1vuYMzDrN0qxVzh/yxfDaf2Sk7KuzpYv9Xbc9SvQCsaaK1+YEpKSrO2B8zjftL5wc7YbqkQnXSXro0X+vkfMCYe/yBKrODt1yvqM1uEV728eiYmKs1ON6uYr9flPeKfO0hPPzPTfjeRYljIDnfTWpV2ixsSbAVN//J0v1JbKE5CQYGY+T2++uFzmjl3DEuodQqlXPYyN9dffkg3LlRLYBJd5lfK2P81G4dZJpX0yWqCU199U6u4aflDrdwircsLqRvoGp8+Qi2ZWns/fTvIHZ9JWl3ca7H4+G5O1Hf+vyfad40pWPaV5Tj8l5folKdEEF/ZlKvljs4SrBrOzlPyP1craV8MybNe2xmBpjdqZ2y0Ht0QLtKazfgnTQq2BbylckLJIb6bmlXcmHCzUmu9TLTRxjBOsTNGiz0wIJULjnMBKw2xnglnL1lm8PhPgKFfxOXmfpJZ3sF2QlmoHdcxt7mPd9LXVbYyS7JY1WXrnLX8oNGJUknOhBgAAnO7cB1HMiYp9nOiV11ydtUYCh40ea9g+ud9nDnOtg4wqHa9Gf3+G/+T1WI6SH6tobj/jydV2K4zQ/pM17dK6DnKiNMlpZVLjQW2QuB/e7u8crzhFLy+q/TptrT59QTN+PiPo8bL/yrJ1RJU09W4l2u+drnn3V9wF5OHX/b36ey64VdeXn9gZJ77MahQ4eN/pTwFxlcqzP0vLX5ytGdOseb1jhu6adpfmmS9kbjd9mfPq1gm64ir/4ZvpCLH8zga/dprv95us6y9w5q+8P4ooJQyt8ptZ38k+FSxMVYpzt4QAO+8/eLn+2Zw81sC7XM85d0WQL1Mv/HfQa2p8nXUi+sfg5wR+r5q4X48aRKBliLlNpvUn0CrEiDNpXYH1IiRWsQ1xi1JLoPWLf72y1reKFc6fLubMi0nRcbHGHZ+L9SvuCudW5unzNOOnD+vxuc/p8Ues594xTc/V/mNVUt6PwDanhU2lEw6Pxl3l7wy1YNls+04ZT819SrMfmKFpdz6s5C/9z6pdnpIfmaZpP52l2U89p6f+9JxW2y1Q3F6tDgR5nP6PrFpQayqPI3D3Lp9JM3ATDK2qnvXQc9Hkik5DZ/jr95SfzNBzdiccYUq6YbKzPH3WCeEiPfUrs32bprtMXx2/TbbrXNioiRpT99eqrizd6QDbmi27NVSQPtY6aX60oE6D3c/niajHtiJykqZdbW8ptPrZeVVarkVbv6/ZelvbYfMbVPv9vMpaOU+zf24tu9umWeu8tRydO7FEX3GF6+BlhEmpKm+FZh4zNck5QbdbqDXwLYV9X6Vq0VOzNO0n1rb/p1bdmTZbyaZDs1r6l2ly7ZI0wb6bn7UNMEH28ER/Cq+jIbYzFSKsbbI/WFJg7RPN+nLXI/79Ydx3JivWfM7ORZo53VqPrDoy83UnoHntZJe/b6BljVd5+Wbdjtb4ywihAADQXNQjiGKOzSsO2uy+PQICB8NGtwTFVc3LaW2dvP76Cc38YaKig66ehXqilfjDmfrTg1XzzmvQZ7KmXG4OXGs6qA3SLkE3OZGMgmXztGi3Peier8Q+Aa14FJW3zFBYou7+y2N2PwER5VdDQxUWGasJUx/Tn6ZWbzVxwsusRoGDd8NlKs/AMZpwdpQ8Zn5LvSopC5Wnf6Kuv986IA/qFyTq6of12M8mKiGyorPF0E7+3+eJXztpUpbyq9s1zXPgRN065Up1WtiUM3n/wct1b0nFcg1WYi3/wJW/qq+p5XU+b/Bzgn6vmrhdjxpEoGWIEdQqxAic6BpDE47fgalb1vuWr3HlLV+MKGtSYIXzWCferqIDx+dm/bJOSB/+w+3W86zlfihH6R+mKH1XiUL7JGqk29ko70fAqH7CYTpD/dMD1yuxv/UdC7OU+mGqsgp9ihiYqNga0j8q66joQdEK8+UpKzVFqdu81glarCb+zPoOruql9fmBq+RGXak8AR7rxNtpPeMqGFpFveuh6TT0jw9ryoXR/t/KCAlVxNkTrPIndPvwQK231tnx1na6m9kO+FTi9VnbgSjFXnK7Hr7jBFqFfbLauTuStY6fa5cEsebT+eLlnQa7ns8TU59tRdR3pvjTWWpouRZoFWhU//1iNcbaR0Q5d7PyFlvL0N7XzdLMhr71fgOKGDreqj8ehVmz7Sv2ytc6TFFmuf+6pv5lTo2Ey8aVL/fAnbnKNcR2JkjcddZ7mdt6m99wn7USd/X4787TbYJmOZ8TetRaj0wdsbYXE25/TLPqvBhUWXlg2Dh7rMY4ac8AAOD01+obizMMIFjqU5ryVKoS756nu4OytKrJf1OzHlikvLBoJQyPVPSo/9Lk4Y145Xbncj33bpYKt6Yoq1DHnz+giaTOmaKnNlgn5GcnKSYiVhOnTqh8oouGdbxtgdttGE6BLL3289lK3iclTH1e9wRaewIAgNNeQ13/BmA6Cv4wRam5/i4wG83XmUqxPsecNKGxObfHrvaY1QR3LDmVn10bd/NUsC3FWkcz6769PU7eabYtMEG06uvGFM16w04MRZCSlGR/2qC5w1AiARQAAJoTWqIAteEqLoDmjG3Yaafgvcc0+60clezzp6ZGf3+2Hrb73wEAAM0FQRQAAIAmYDqqtTuibRelxOun6fZLohumk28AANBkCKIAAAAAAAC4QJ8oAAAAAAAALhBEAQAAAAAAcIEgCgAAAAAAgAsEUQAAAAAAAFwgiAIAAAAAAOACQRQAAAAAAAAXCKIAAAAAAAC4QBAFAAAAAADAhVbfWJzh4youLtbOnTtVUFCg0tJSpxQAAAAAAODM5zqIkp+fr40bN2rQoEGKjIxUhw4dnCkAAAAAAABnPlfpPKYFigmgXHrppRo4cCABFAAAAAAAcMZKTk52hipzFUQxKTxJSUlq06aNUwIAAAAAANCyuAqimD5QPB6PMwYAAAAAANDyuAqimE5kW7Vq5YwBAAAAAAC0PNziGAAAAAAAwAWCKAAAAAAAAC4QRAEAAAAAAHCBIAoAAAAAAIALBFEAAAAAAABcIIgCAAAAAADgAkEUAAAAAAAAFwiiAAAAAAAAuEAQBQAAAAAAwIXTI4hSdlQl+w+oxOeMAwAAAACAlst3SN79B+zH6RQraPWNxRmuVXJysiZOnOiMNRDfXqW9+4aWvp+p3OKjTqGlXXfFjL5SN187QpHtnDIAAAAAAFCjvPw9enf5KmVs2iKvd79TevI8ni6KHzpYl024SFGRvZ3SppH/1mN6aMmX9rBn/E/15+/3t4ebSm1xkFPSEqUk+0395r7ZemZJRuUAilG6V9mrF+ihe2drfsYBpxAAAAAAAFS1IfVT/fo3f9LaDz9q0ACKYd7PvK95f/M5jarsS618+m/6v+xD9mh+nj+AYni//FKmMYrvi/f1v0+/p9xT2DKlyVuilHy6QA/9LU3eMmsktJdGXHGpLh91tsLtVif7lf/xB3rlP+uVby+UDhoxbZbuHN7BjAAAAAAAGkyqnprylPV/bRJ197y7rf/9vJnJemnhm0rfWWKf0IZ2ilLcZTfq1mvi5HEuz+e9MUuzFuf5R2oQde1szf52lDNm2Zesh3/+pqLveVpTEpyycmb+Fin6d7M1KdIpqpP/+2Qm3q4/3Z2kMKfUL09vPjBLOd+bp7sDX8jh5nvZ8t/UrAcWWe9UwTw3etQkTfthkiJCnUKjhufaIidr9u8myV4CJVlKfvFlvflpjj9dJTRMUf0n6MZ7JyvOZVaGaYFiAhxN5ZEHf9E4LVLKvtTSP/1F/84xjSw6KDK6jQpzDti/h18beaJ7yJfzpUrM6FlX6tFfXqrIRmwWUlscpGmDKIfS9MyvFijNBJbOuli/vGeSYqrGR/bvVaEOaf0z/+tfgK3760e//aku6epMBwAAAAA0AJ9KvP7AgbHxxRmapyl64pZhTkmowjxh1v8mOPKwZr1RoqSbpmny8Ai1tcqOFG7UoufnKaX9ZM3+9SRFmRPa0hJ5DzvvmJes2Y+lKnHmLE104iah7T0KCwoQ5Cycqac3SAVnTdbzP0uyP6vCiQVRUkPClHjnn3R3YnAYpeYgiuvvZdiBkRxNdgJLvhKvivI3asnfX9bqAwm6+49WeeAj7edm6YonblVgadqsefN0Mt/Sq+W/m6FFbSbr7lvGKcosk9ICZaYUKvLbSYq2n3x8819+zW4p0lQuvOB83Xzj9c5YA9rznn7z27eVaxpbuNJBl9z7W/0oxhltBKdFOk9u8tv+AEqHeN1WNYCyP0vL/vaYpv/yb1pf0kdX/2KqLuxklZft1L/fzPQ/BwAAAADQQEyQxCOP8+hozu1DO5aPe5wAimkt8vziAiXe+bBuvyhWEc70iJhxuv33MzVu7yI9vcRpc9EurOL1Xc3rrc/oGni/ygEUKUcpG6TEWycrIWOd1pU6xSclUZOvjVDqiy8p/XjvV5/vVYPQMP9zp/z2T5oyMFVPPbfa30qiXKg6Ou9Z/rADKEaWMrdFaMINkxTX05nWM1ZJ9QigGKYPFLcun/FbzZ3zP9Uej97kPMGF+nxevfS+VPfeEOeMHF/kVT9t1ABKXZowiLJT6zfstYf6Xf09jQ4EUPbv1tqXTPDkGf1fmj/PydY6Vj/6nn8hlqxPU4Y9BAAAAABoSnlr1igncqImV2rZ4Wgdp8mTopWXklo9deV40ldodehYjY1L0oQxWVqxyutMOBn50vBpmtw9Rc+9WvfF+Ab7Xq09GvftifKkr9E6118hVKEhB5W3pyJh5UTUpw+UZU/8SlOn3xv0WG8trS+V/ZLzBBcaus+VcmVH5d1X+b37jb9Tf37yfzT3qT/qwe+fXSk9y1dyQD7XrVYaVtMFUfbvVnaRGeiu+MGd7SIpQ8/88i+avy4oeBIkNC5OdnCpbLdy99hFAAAAAIAmlP9FnnRWlL8fjxp4+kQrLD/HhC/qJXXtakVcPM5+34RRI1XwbrJy/JNOTusoTZo2SV1XzdNr2U5ZDRr0ew2IVqyylLXDGT+uBE36doRSn/mFHluYqrwGaYVTP5fPSJBn60ea74yfKhnz79XUu+/XQ0t2OyWWodfp3u/HymMa7rRuo37j79BtYypSWQrff0bT775X0/+6Xg0RequPpguilBxymjaFKrTKp464eZZuG9e/cqc9Rpcu8tgDX6vwa3sAAAAAANDEos6qo1OS7uHqqnzl1SeKUpqi1Z8maOJF/jM+JYzXOKUqJdc/etL6TNaUy6Xkvy9SXh0tFhrse7X2p+n4jtl/HKaPlimaEvSY9UZFu5aobz+sJ+6doNANz2nWHdM04/E3ldlkEYGLFd9Xyk1/3xk/dXw1tKiIHNC/SsfAUnxcrDNUwbfvQJUUqsbXdEGUEBM+qUW77hp91WR9d3h3p8BRGujkqIfCe9gDAAAAAIAmlvdFHZGEvYUqUqSiXHX+6uddlax0X7qeuyMQYHhYyYUFWv1uuvOMkxd7/RSNO/Cmnv5P7Qk5Dfa9yvxnrqHWeW8Fc3ejeZoX9Kh0ZyKLJ26S7vnT83r+L/dowrHleuze2Vq+z5nYmG46X4O96fqfFc74acb7tb8rkGDZO3c6Q0Ha1BFnaCRNF0SJ6K9+duubL5W2+YBdFJD7hukT5S96Ja+PfjDjTl0duGNSZqa/L5TWPRXZ0y4BAAAAADShyLOsE/8v8mrtG8S7O0clkdFyH0Pxat26AiVNf0JPPBH0+NUkdU1LVXpD9XXROk43/iRJRUuf15s1xEoa9Ht9lqlMxSp2gDNeT6Hd4jTpvpma3DNLaz4scEoby8W6d3gv5e9Y6IyfWiNu+x/NeexhPXhNH6dEKlm3QP/7wd7ybj+8GQv1t/cr4gjhI2/Qg3/4reb88lKFO2VNpemCKNYKNWK4P4fJ3KVnS1DF8KqnvvvTh/XkQ7fo8kFOfyllX+rfbzjdyQ5NUHwTzikAAAAAwC9q7FhF5ydrUWoNiRNlWUp+N0fRTt8mruQma8VXIzVuVNBda8wjJklJntVanlJTj5knJnT4Tbp1RIEWzVujEnP31yAN9r3K8vTmv1ZLoyZqnJOddGI6KqzKPDaK8XHqpyytrUeHso0ttFNnhffsHpTCc0gZC2Zr+j0P67577tV9z6xXYXkMoY0ih1rfoUuHal2FNIUm/cj4SVcqxnxi8Xo9878fKL+spy4PBE/iOlc0wyk7oPUv/FVL7c5ke+m7145o8iY6AAAAAABLt4maZm4b/MzDem5Vlgq8JfKVlqgge7Xm/eoxJYdN1rRL3UcPMles1sFRSap+Q9sojbs4Wunvrw7qLNSnkiKvvN7gR6DbBzfClHjLTUrcnazk7U5RwEl+L1+xVzmpb+qp/56lRd4k3XpLYpXzVp8OVppv61HszLk3XcuXZSrHKisptb6jt0CZbzynRdujlTgiwv8cFzyeLs6QezdfGCvvp89omTNeHyfyea4cytD8hRnV+zcpPSBvtU53jyrjpWeceEHTa9q4Tddv6f/dFm9Hl0q2LtJDDyxWWun+io5kyo6qMPN9PfPb3+pvaYfson7X3FyR3gMAAAAAaHL+TlDHy/f+45o14y5Nu+MuzXpihQ5efI+e+PUkRbk9syxLV8oGaeSo6iEUwzMqSdHb1mhdeb8gBUp+bIZmzAh+vKB69ZwSlqRbf5ggVer01a/+36uis9hpP52h2S+lSt+6W4/96XZVv1NyuuZVmm/r8bvk8vSh3HXPafa9M3TXHdN0172z9NwnEbrpd7M0qR59y8QPHewMuTT+To3oXb/bGger9+e51a6n+nV1hi2h7do4Q0FCg8rCuivypFr9nLhW31ic4VolJydr4sSJztjJK1z3ov6wIEPeOnPdOmjw9+/U/xvfh1YoAAAAAABUkZe/R7/+zZ+cscb3yIO/UFRkI7Vy8O3W0ide1JbEW+w4QNrz9+pvnzrToifpz/dfLGUs1P+86tPVv7xBoxupUUxAbXGQpm2J4ggfc4v+/Ls79d2h3WvIYWojT8y3dNsjD+teAigAAAAAANTIBDSm/eQmZ6xxmc9ptACKEdpHV/9iVnkcoN9ZvfzlRu9eMg1PPPHX6dHfNX4ApS6npCVKJWVHVVJ8qDynLbRDZ4UROQEAAAAAwBXTIuXd5auUsWmLvN79TunJM32gmBSeyyZc1LgBlJr4Dsl76Kg9GNqus8La2YNNprY4yKkPogAAAAAAAJxGTqt0HgAAAAAAgOaGIAoAAAAAAIALBFEAAAAAAABcIIgCAAAAAADgAkEUAAAAAAAAFwiiAAAAAAAAuEAQBQAAAAAAwAWCKAAAAAAAAC4QRAEAAAAAAHCBIAoAAAAAAIALBFEAAAAAAABcIIgCAAAAAADgQqtvLM5wrZKTk50hAAAAAACAM9/EiROdoQqugyg1vRgAAAAAAOBMU1schHQeAAAAAAAAFwiiAAAAAAAAuEAQBQAAAAAAwAWCKAAAAAAAAC4QRAEAAAAAAHCBIAoAAAAAAIALBFEAAAAAAABcIIgCAAAAAADgAkEUAAAAAAAAFwiiAAAAAAAAuEAQBQAAAAAAwAWCKAAAAAAAAC4QRAEAAAAAAHCBIAoAAAAAAIALBFEAAAAAAABcIIgCAAAAAADgAkEUAAAAAAAAFwiiAAAAAAAAuEAQBQAAAAAAwAWCKAAAAAAAAC4QRAEAAAAAAHCBIAoAAAAAAIALBFEAAAAAAABcIIgCAAAAAADgAkEUAAAAAAAAFwiiAAAAAAAAuEAQBQAAAAAAwAWCKAAAAAAAAC4QRAEAAAAAAHCBIAoAAAAAAIALBFEAAAAAAABcIIgCAAAAAADgAkEUAAAAAAAAFwiiAAAAAAAAuEAQBQAAAAAAwAWCKAAAAAAAAC4QRAEAAAAAAHCBIAoAAAAAAIALBFEAAAAAAABcIIgCAAAAAADgAkEUAAAAAAAAFwiiAAAAAAAAuEAQBQAAAAAAwAWCKAAAAAAAAC4QRAEAAAAAAHCBIAoAAAAAAIALBFEAAAAAAABcIIgCAAAAAADgAkEUAAAAAAAAFwiiAAAAAAAAuEAQBQAAAAAAwAWCKAAAAAAAAC4QRAEAAAAAAHCBIAoAAAAAAIALBFEAAAAAAABcIIgCAAAAAADgAkEUAAAAAAAAFwiiAAAAAAAAuEAQBQAAAAAAwAWCKAAAAAAAAC4QRAEAAAAAAHCBIAoAAAAAAIALBFEAAAAAAABcIIgCAAAAAADgAkEUAAAAAAAAFwiiAAAAAAAAuEAQBQAAAAAAwAWCKAAAAAAAAC4QRAEAAAAAAHCBIAoAAAAAAIALBFEAAAAAAABcIIgCAAAAAADgAkEUAAAAAAAAFwiiAAAAAAAAuEAQBQAAAAAAwAWCKAAAAAAAAC4QRAEAAAAAAHCBIAoAAAAAAIALBFEAAAAAAABcIIgCAAAAAADgAkEUAAAAAAAAFwiiAAAAAAAAuEAQBQAAAAAAwAWCKAAAAAAAAC4QRAEAAAAAAHCBIAoAAAAAAIALBFEAAAAAAABcIIgCAAAAAADgAkEUAAAAAAAAFwiiAAAAAAAAuEAQBQAAAAAAwAWCKAAAAAAAAC4QRAEAAAAAAHCBIAoAAAAAAIALBFEAAAAAAABcIIgCAAAAAADgAkEUAAAAAAAAFwiiAAAAAAAAuEAQBQAAAAAAwAWCKAAAAAAAAC4QRAEAAAAAAHCBIAoAAAAAAIALBFEAAAAAAABcIIgCAAAAAADgAkEUAAAAAAAAFwiiAAAAAAAAuEAQBQAAAAAAwAWCKAAAAAAAAC4QRAEAAAAAAHCBIAoAAAAAAIALBFEAAAAAAABcIIgCAAAAAADgAkEUAAAAAAAAFwiiAAAAAAAAuEAQBQAAAAAAwAWCKAAAAAAAAC4QRAEAAAAAAHCBIAoAAAAAAIALBFEAAAAAAABcIIgCAAAAAADgAkEUAAAAAAAAFwiiAAAAAAAAuEAQBQAAAAAAwAWCKAAAAAAAAC4QRAEAAAAAAHCBIAoAAAAAAIALBFEAAAAAAABcIIgCAAAAAADgAkEUAAAAAAAAFwiiAAAAAAAAuEAQBQAAAAAAwAWCKAAAAAAAAC4QRAEAAAAAAHCBIAoAAAAAAIALBFEAAAAAAABcIIgCAAAAAADgAkEUAAAAAAAAFwiiAAAAAAAAuEAQBQAAAAAAwAWCKAAAAAAAAC4QRAEAAAAAAHCBIAoAAAAAAIALBFEAAAAAAABcIIgCAAAAAADgAkEUAAAAAAAAFwiiAAAAAAAAuEAQBQAAAAAAwAWCKAAAAAAAAC4QRAEAAAAAAHCBIAoAAAAAAIALBFEAAAAAAABcIIgCAAAAAADgAkEUAAAAAAAAFwiiAAAAAAAAuEAQBQAAAAAAwAWCKAAAAAAAAC4QRAEAAAAAAHCBIAoAAAAAAIALBFEAAAAAAABcIIgCAAAAAADgAkEUAAAAAAAAFwiiAAAAAAAAuEAQBQAAAAAAwAWCKAAAAAAAAC4QRAEAAAAAAHCBIAoAAAAAAIALBFEAAAAAAABcIIgCAAAAAADgAkEUAAAAAAAAFwiiAAAAAAAAuEAQBQAAAAAAwAWCKAAAAAAAAC4QRAEAAAAAAHCBIAoAAAAAAIALBFEAAAAAAABcIIgCAAAAAADgAkEUAAAAAAAAFwiiAAAAAAAAuEAQBQAAAAAAwAWCKAAAAAAAAC4QRAEAAAAAAHCBIAoAAAAAAIALBFEAAAAAAABcIIgCAAAAAADgAkEUAAAAAAAAFwiiAAAAAAAAuEAQBQAAAAAAwAWCKAAAAAAAAC4QRAEAAAAAAHCBIAoAAAAAAIALBFEAAAAAAABcIIgCAAAAAADgAkEUAAAAAAAAFwiiAAAAAAAAuEAQBQAAAAAAwAWCKAAAAAAAAC4QRAEAAAAAAHCBIAoAAAAAAIALBFEAAAAAAABcIIgCAAAAAADgAkEUAAAAAAAAFwiiAAAAAAAAuEAQBQAAAAAAwAWCKAAAAAAAAC4QRAEAAAAAAHCBIAoAAAAAAIALBFEAAAAAAABcIIgCAAAAAADgAkEUAAAAAAAAFwiiAAAAAAAAuEAQBQAAAAAAwAWCKAAAAAAAAC4QRAEAAAAAAHCBIAoAAAAAAIALBFEAAAAAAABcIIgCAAAAAADgAkEUAAAAAAAAFwiiAAAAAAAAuEAQBQAAAAAAwAWCKAAAAAAAAC4QRAEAAAAAAHCBIAoAAAAAAIALBFEAAAAAAABcIIgCAAAAAADgAkEUAAAAAAAAFwiiAAAAAAAAuEAQBQAAAAAAwAWCKAAAAAAAAC4QRAEAAAAAAHCBIAoAAAAAAIALrb6xOMO1Sk5O1sSJE50xAAAAoOkcOXJERUVFKikpkYtDV7QwoaGh6tKli/0AgIZSWxyEIAoAAABOW8XFxdq9e7cdPGnfvr1at6YhNSrz+Xz2w+PxKDIy0ikFgJNDEAUAAADNyrFjx7R9+3aFhISod+/eateunTMFqOzrr7/W3r17FRERoR49ejilAHDiaouDEMoHAADAaWn//v12IMWcGBNAQV1M4CQsLMwOpABAYyKIAgAAgNNSaWmp3QrFnBwDx2PWExN0M6k9ANBYCKIAAADgtOQi6xwo16pVK2cIABoPQRQAAAAAAAAXCKIAAAAAAAC4QBAFAAAAAADABYIoAAAAAAAALhBEAQAAAAAAcIEgCgAAAAAAgAsEUQAAAAAAAFwgiAIAAAAAAOACQRQAAAAAAAAXCKIAAAAAAAC4QBAFAAAAAADABYIoAAAAAAAALhBEAQAAAAAAcIEgCgAAAAAAgAsEUQAAAAAAAFwgiAIAAIAzlm/LSq3f44xYct9fpi0FGVq8KENep8x6lra8NVcrdzqjtfBuXKkM50XejYsrnr9zpT2cu9F5T2t8aUaJPcnIfX+lcp3hcl5rHv4+V3PNo9K81MYnn88ZrEHakqXKd4a1M8M/n2WFWv+6/zMWpnmt+XA+z3ks3ljlU615yjjOMqifuucZAJojgigAAAA4c5SWyFfmDPus4e4+pa7Kdgq2aOWWDoo5lqv8tDSt3+cU71up1LR8Ze51xq338HqD3sfhCc3Vms9MVMCn9M3rlbre/775n2aqpL1UuCtXduhkb4HWLHpR6504SuGWTBX6ByscylXb86Zq6k+sx+R4eawiX4nX/7n+Z1h8KvFaZcU++bYt1MJ1XpWUBpWX1BKh2Jur3EPW5yYvUNYw/2dcOzRM/S42w9coyhela0zZMPOpQax5yrWXgfV51ufY82N9tv15QZ/lCwwHlpM9UvU11nCleXamBX0/X6k1ZL1HYDoANAcEUQAAAHDa+bLkSxUcKnDG6mH3Es1d6W9hkfufF7U2dLTi9qXKDndkrNeRYUkKtQajL4pU1nJ/+5D8D/IVNSbcHtaepZr7f1tU+HW2tuQHTvcdg+MVuiXDOvFPUYbvOo32pSpXXm3ZE67BvZ3n2Dpq7OQ4pb6a5g+quFG6RSnWfBTuXqwnXzZz61PGvCe1eOMWbdmyXTs25Sp39xZlF1rlL8/V2q8Llf+Z+fTaefp0VX7aFnmtrxHaznxrtzL04q+e1BLr/bf8+8+a85FPqf94RVvMpNL1evF1a6h8Oa3Viy9nmLmt8poSFQbNs2/jAs19M1v52dbv8w+zXPK17Nk/a/7b1m9jTQeA5oIgCgAAAE6pYl+x0gvT9e/sf+svaX/R3Svv1n1r7tOWvfZpe/0MTFL4tvXyKlcp3jiN7ubRhfGFWrtZyvjkiBJGOMGEHpco8XCKss3zDgzWhd38xerWT213Zyj7cKQG96kSeGgdr8Gts5S9abs8I0coIfKQMnZvUW5YgmKcp5SLuEQ39E/R/22sPUCQ9a6TWvN+rhQao9g+XhUWS75iExrJ0JrS8bph3GiNHnmOBvXzyHPOaMVb8xQe7lNmWqHCzomxW7DUJnTYzfrZhSVaO+/PenJ5ebKPK76Ysbr2/HiNvjRB+sqrpGFHtD7DKk9LV9jIeOV/nCWfNR+FhR6F5abYAZaqr4kMmueMddZ7XD9Cg0dcpyvaZSjVtD4JHazLvzvWnt6Qns14Vl+VfOWMAUDDIogCAACAJvON9S/bm613c9/VcxnP6f619+vOFXfqT6l/0r+y/qVdxbt0Tvdz9F+D/ksJ4dbJeL310xUxBVr/UYp8Qy60gwyhIxN15OP5SvElanQ7/7OsUo2I8Wrtq2vkO3e03TrF1i5eN9//I43WO06LkGChio3wavH7UtxgyTM0XIWvp0rnWiM18Ey4Qf0+eMUfMKhB7GVOOs/F/ZT9yhyldR+h0efHVQRGymoOwERO/Jl+Nsl6zT/myGl0U6vQPiN09bQbFLstraLPlBMQOjpJHTavV0q2R2OHWOOtQxUZP9qa39G64YGpineeV5tQawEH0qNM2k9bs8Bbt/UXNLCt+7bqoZSHtH7PeqcEABoOQRQAAAA0mj0le/Rh/od6ecvLenT9o5qybIoeTnlY/8j8h1K/SlW39t00aeAk/Wz4z/TkRU/q8XGP66fDfqqrB1wtT7u62lnUzjMyQumvHFLcaCc00m6EErypanv+CP+4wwQGtPGo4oY6BUZxhpYtSVH6dq/CwsOcwgqRQzwqDB2seHMU3XuEwgt8Ghj8+ko8umRyuPI3OaN1CI8MVebaFK18PVWFdquYEboiKkVzlyzT0rcy5B0QJ6UsVcZun3JXL9ayjRnKKwtXeHv75TXa8taTmvv6Mi17eYGy+o9QpFN+QlrHK06LtbbrWPWzRsMvTtL+l+do6btLtWBRWvU+X4ygeY6fGKv0vy21lu1cvdPlQo2uchaS/dovNT+j+t8T8f+G/z91b99dT218Sv/c+k+nFAAaRqtvLM5wrZKTkzVx4kRnDAAAAKjOpOVs9263H6a1ifm7/8h+Z6rUv0t/DfQM1MAu1sP627dzX2dKzfLz81VcXKyBAwc6JU2szKeSAxUdoYaGeRR2opknphPWw+XvpDBPWEXrlwZg7s4Tec3V9QuUNPI81YtppWICK1X/1kNRUZEKCgoUExOj1m1a64VNL2j17tUa2mOopgyZol5hvZxnAsDx1RYHIYgCAACAejNpOYGASeCRdzDPmSqFdwi3AyUxnpjyoEnbkPqlbxBEcS9j+UpFTrhETve47pxOQZQGEBxECTX5Q5b3ct/T/Mz5CmsTpluH3qrRvUfb5QBwPARRAAAAcMJMWk7VoMmxb47Z0zq06eBvYRJ4dBlop1OcrFMeREGzUlMQxcgqytK8zfOUeyDXThMz/e0AwPEQRAEAAIArB44c0Pb9lQMmNablOAGT46XlnCiCKKiP2oIohgn4BdJ7hvQYoluH3Ep6D4A6EUQBAABANeZQMHu/v/+SwCP/YMV9XCI6RFRrZVLftJwTRRAF9VFXECUgOL1nytApSuqd5EwBgMoIogAAAEB7Du4pb2US6Py17Bv/vWfNiWWlgIn16NbOvlXMKUEQBfXhJohimPXetEohvQdAXQiiAAAAtDB2Wo5pXRKUmlNTWo7d+av196xOZzlTTg8EUVAfboMohknvmbdpnlbtXqUh3YfYnc6S3gMgGEEUAACAM5hpTVI1YFJnWo71aNu6adJyThRBFNRHfYIoAe/tek/zN5PeA6A6gigAAABnEBMgqRo0OV3Tck4UQRTUx4kEUYzg9J6r+l+lH57zQ2cKgJaMIAoAAEAzFUjLsfswcYImpixgQJcBlQImp1tazokiiIL6ONEgimECkCaQEkjvMa1Seof1dqYCaIkIogAAADQD5Wk55rHfHzgxncEGmLScQB8mgUdo6/qdMDYXBFFQHycTRAlYvmu5Xtz8ojq06WDfBjkpkvQeoKUiiAIAAHAaKk/LcYIm5m9NaTmBwEnXdl3taS0BQRTUR0MEUQwTuDSdzuYcyCG9B2jBCKIAAACcYubOOOUBEydo0hLSck5EyaFD2rp1mw4eLFFc3GB16dxJrVq1cqYC1TVUEMWw03s2v6BVX6xSXPc4++49pPcALQtBFAAAgCZkbqFaKWBiPfaUVKTl9AzrqYFdKgIm5nGmpuXUx6fpm/TJpxnW389UUnLIKZXOHTJY8efGafiwc+Xp0tkpBSo0ZBAlIDi9Z8qQKRoTOcaZAuBMRxAFAACgEQXScuzOX03QZP92BQ6zOoZ2rBYwaUlpOW7s3Vuk91au1vKVa1RW5k9nqsl5w+N18dgLdM6gGKcE8GuMIIph6rPpdJb0HqBlIYgCAADQQKqm5ZjASbGv2JkqDfAMUEyXis5f+3Tq40xBTYoPluhfi9/U2g8/ckrq1q/vWbrue5MUGzPAKQEaL4himPSeeZvn6f0v3ven9wy5Vb07kt4DnMkIogAAAJwAV2k5JljSpaLz1zat2zhT4cbby1Zo0b+XOmPunD/yPN3wX5PVrl07pwQtXWMGUQJI7wFaDoIoAAAALuQdzKsWNPnG+mfYaTlOwCTQyoS0nJNTVOTV4399Tnn5Xzollqtu0Z36QhoxQpFOkXRI2e/+VfPXO6OWqVNuUOKIYc4YWrrCwkLt27dPZ599tkJCQpzShme2CabT2Zz9Obqy/5X60Tk/cqYAOJMQRAEAAKjCe8RbLWASnJYTCJQEgiak5TS8D1M2aN4//umMOW6aqUf1mB56yRoef6ceTcjUQ0+8758W5IKkUfrxDT9wxtCSmX50cnNz1aZNG0VHRzuljcecQplASiC9x7RKiexYEfID0PwRRAEAAC1acFpOoPPXL0sqWj/0CutVLWhCWk7j+79/vaFly1c5Yw6XQZTwHt318K/uc8bQUh0+fNhugWL+9u3bVx07dnSmNL4Vu1bYfaW0b9Pe7ieF9B7gzEEQBQAAtChV03JM4CQgkJYT6MPEBE087TzOVDSlF+a/qnXrP3bGHC6DKG1DQ/XTO29xxtCSmfSdXr16qUuXLk5J0zHbFxNI2bl/J+k9wBmEIAoAADhjuU7LMYGTLjGK6hTlTMGp9spri7Ry1QfOmMNlEKV7t6765X13O2NoqUwKT6dOndSqVSunpOmZfpPMbZBJ7wHOHARRAADAGeFo2VFt3185YFJrWo55dCEt53S24v21enXhYmfM4TKIEn9unP7f9NucMeDUK0/vCWmvKUOn6ILIC5wpAJobgigAAKBZyivOU/Z+fx8mgUdAp9BOlQMm1sPTlrSc5mT7jhw98/yLKvLut8f7xY9QzIVX6sKC2frN63ZRra7//nd06fhxzhhwetjh3WF3Okt6D9C8EUQBAACnPW+pt7yVSaDz14O+g/a0Vta/qgGTqI6k5ZwJglN6LvzODRrcbqeWLfxAuXZJzQb2j9YdU3+sbt24xTROPya9Z96meVr5xUoN7jZYtw69lfQeoJkhiAIAAE4rdlqOaVkSlJpTU1pOeeev1iOkVYgzFWcS0xrlX/9eqq3bKjr/rUvHsDD94HuT9K0x5zslwOmJ9B6g+SKIAgAATqndxburBU0CSMvB1m3bteTtZcrcss0pqVmP7t105RUTdNFYbiWL5mHH/h12p7MmvWdi/4m64ZwbnCkATmcEUQAAQJMpKi0qD5QEgiak5eB4dn2xWx+nblT6Z5v1xe58p9SvS5fOGhp3jkYmDlPCuUOcUqD5MIGUQHqPaZXCdg84vRFEAQAAjSKQlmP3YeIETL4q+cqZKvUO610taEJaDury9d59yt/zpQoLv9axY2Xq6uminj0j1PcsTjrRvJkgigmmtAtpZ/eTQnoPcPoiiAIAABpEeVqOCZzsz7bvRBHQObRztYBJl7ZdnKkAAJPeYzqdNX8nRk/UDYNJ7wFORwRRAABAvVVKyzGP/UFpOa1aaWAXf6Ak0Pkrd58AAHdI7wFObwRRAABAnXxlvmoBk0ppOR17lwdNAg/ScgDgxAWn90wZMkXfivqWMwXAqUYQBQAAVPJF8ReVgiamaXlA57adqwVMSMsBgIZn7tpjAimk9wCnF4IoAAC0YIG0HLvzVydoUnK0xJ7WulVrf6AkKGhCWg4ANK15m+dpxa4VOqfbOXans6T3AKcWQRQAAFqIqmk5JnBScKjAmSo7QFI1aGICKQCAU8uk95hOZ9uGtCW9BzjFCKIAAHCGOm5ajhMwCXT+asoAAKen4PSeK6Kv0I2Db3SmAGhKBFEAADgD7CvdVylgYh7V0nKcoIn5S1oOADRPldJ7htyqqE6k9wBNiSAKAADNzJGyI9UCJjWm5QQFTUjLAYAzx/tfvG+3SgkNCbUDKaT3AE2HIAoAAKe5QFpOoPNX06Q7wNwZp2rAhLQcADjzmX2BaZVi9guk9wBNhyAKAACnETdpOYE+TEzQpHfH3vY0AEDLFJzeYzqd7dOpjzMFQGMgiAIAwCly5NgRbd9fOWBSW1qOHTjpMlCtWrVypgIA4Gen92x+QaGtSe8BGhtBFAAAmsiuA7sqBU1qTctxWpmQlgMAcIv0HqBpEEQBAKAR7Du8T9n7/X2YBB6Hjh6yp4W0CqkcMLEevcNIywEAnLwXN7+o5buWa1C3QXarFNJ7gIZFEAU4RQ4dOiSv16vS0lKnBKjQvn17eTwe+y9OHVNHDxw4oGPHjjklNSv7pkylx0rtx+Fjh1V6tFRHy446U2XfPaF9SHu1C2nnf7Rpp1bWPzRfrVu3VlhYmLp162YP49Q4evSoioqKVFJSIheHrmhhQkND1blzZ/vR0pj0HtMqpU2rNpoydIoujLrQmdL0Dh48qP379+vIkSNOCVChQ4cO9jFvu3btnJLTH0EU4BTYu3evvvrqK7tvA7PBoI8DBDOb38OHD9vDvXr1sk/S0LTMb/DFF1/YB37mILxNmzbOFMDPBNbMCUHbtm3Vp0+fZnXwd6Yw9XP37t0qKyuzlz/BLFRl6qipq127dlXv3i2vtV/O/hy7n5RTmd5TUFCgr7/+2q6fZnvJMS+CBR/zRkVFqUuXLvbw6Y4gCtDEzEHfrl271KlTJ/sEmYM+1MRcXf3yyy/tq6vR0dF2lB5NZ8+ePfbV7fDwcIJYqFVxcbFdT80JvKmnaDomcLJ9+3b7hMycHNNqD7UpLCzUvn37FBERoR49ejilLUt5ek/XQbp1aNOl95jWJ3l5efaJcc+ePQmgoEY+n88+7jLBlAEDBjSLixK1xUE4qwMaiTkxCwkJUWRkJAEU1Mq0fDAnBuaAw6wzaBomHSezMNNe5p26dCKAgjqZYLgJtJn0TBMgR9MxqXYm2GxOzAigoC6mjprUOxNIaaluGXKLbht6m7K8WXpw3YNam7fWmdK4zDI3rU/MRUMCKKiNafFr1hHDbNubM87sgEZiDrZpVQA3TLDNrCuBZo5oeOZuOfZtITe9oF+t+5Vue+82Ldi0wJ7WuSN3xsHxmUCKQT1tWqY/MbONNCfHwPGY9cQE3cwV75bqorMu0qNjHlW/zv30XMZzemnLS86UxsMxL9wywTbTAqW570sJogCNxGTKEY2HW2ZdcZFdCRf2Ht6rj7/8WAu3LtQfPv6Dpi6fqgc+fEB/3/R3rclbo3at22li9ER9d+B37edTT+EG68mpwXYR9UE99YvuHK2Hkx7WhL4TtCxnmX6z/jf6ovgLZ2rjYNnDrTPhmJc+UYBGsm3bNvuKSEvs4Az1Z3KJzZWzgQMHOiVww6TlBN9aePv+7So8VOhMlaI6Rtm3FY7xxJTfYjgg0G+R6eCsY8eOTilQM9M3R3Z2dovub+FUyM/Pt/ukYdsIN0yKpungNCYmxk4dgLTqi1V2p7Pmlvumn5TGuHvPli1b7E59zfYROB5z7GUCKc2hjzE6lgWaGEEU1AdBFHdyD+RWCprkHMhxpkiedh4N7OIPlAQCJx1Daw+OEERBfRBEOTUIoqA+CKLUzOwr522ap2xvti7vd7luirvJmdIwCKKgPgiinKTDxw4rd3+uWrc6fbOKOrftbD/C2pCLi/ohiIL6IIhS3deHv64UMDEPs98w2rRu4w+WBAVNeoX5OytziyAK6oMgyqlBEAX1QRClbvM3z9d7u97T2V3PtlulnNXpLGfKySGIgvogiHISluxYYnfy92XJl07J6SuxZ6LG9hlr/wXcIoiC+mjpQZRAWo65ShYImJggSoC5TWPVoMnJIoiC+iCIcmoQREF9EEQ5vlW7V9mtUsxF7ClDp2hs1FhnyokjiIL6IIhyglbsWqF5m+c5Y81D13Zd9bPhP1Ns11inBKgbQRTUR0sLotSVlmO2t1UDJnWl5ZwogiioD4IopwZBFNQHQRR3zD7Y3K2uodJ7CKKgPs6EIEqT59EUlRbZd0dobsx8byzc6IwBANwyLUo2fLlBr219Tb/f8HtNfW+qZn04q+JuOW3aaWL/ibor4S79z9j/0V8v/qvuOe8efSfmO4oPj2+UAAoAAC2Vuf2xuXvPpf0u1bLcZXp0/aONfvce4EzS5EEUX5lPWUVZzljzsufgHmcIAFAT02fJ5r2b7ZTN//30fzVj1Qz7YYZNmfeIV6N6j9LNQ27WI0mPaN5l8/Tg+Q/qhnNuUFJkknqG9XTeCQAANKab427WbefeZrcIfXDdg1qzu/ld6AZOhSYPopi7JzRXR8qOOEMAAMOk4az8YqXdqsS0LjGtTExrE9PqZFvRNkV3idb3z/6+ZibO1LPjn9UfvvUHTTt3mi7te2mD9GsCAABO3EV9LtKjYx5V/8799fxnz+sfmf9wpgCozel7WxwAwGklkJbzz63/1O82/E63vXebfvXhr+y86g/yPlCHNh10Zf8rddewKmk5A0nLAQDgdGXSe36d9Gs7vefd3Hft9J5dxbucqQCqIogCAKjm8NHa03KW7liqA0cOaHTv0bplyC32FawXLntBvzr/V/rROT9SUm/ScgAAaG5Mes/Uc6fa6T0PrXuI9B6gFgRRAADV03KW15yWc//I+/Xc+Of0+2/93j7QmtB3ggZ0GeC8CwAAaM7G9RnnT+/pQnoPUBuCKADQwhQeKtRHX37kLi1nXOW0nHN7nKuw0DDnnQAAwJnGTu8ZXZHe88j6R7TrAOk9QABBFAA4g5m0nE1fb9KbO97Uk58+qZ+t+pnuWX2P/vrpX92l5XQgLQcAgJYokN6zc/9OPZTykFbvXu1MAVo2gigAcAbJ2e9Py/nbpr/pgQ8fsNNy/vDxH7Rw60JlF2XbqTc/OPsH/rScCaTlAACA2tnpPUn+9J65n80lvQewEEQBgGbKTsvZUyUtZ50/LefDvA8V1iZMV/W/SncPu1t/GfcX/e/F/6sZ583Qtwd+25+WY00HAACoS9/Ofe30nsv6XUZ6D2AJedjiDNcqKytLsbGxztjJOfbNMb2x/Q1n7Hhu0x+vuEc3x07WZOuR1GGx+g96SffE+ccDD1P+3lfW08/9o14a1F+Lc9P8L9dV+u8JD+n2Qc5z+w9W6Y7Bui3oPf2PJPXIfk+BV9UmsmOkxkSOccaAuu3du1ehoaHq1KmTU1J/3o0rta3DAPVqb4YXa93hOA3oak3YuVIriwYoJCdD6t1LX72/VLk9B6lXqHlVrla+79WA/h6VbFumhf9eofWb96vrOQPUvY2Z7lf40Urlhg9QuF3mVUbyRoW02aYFn4Yo0XqtX77Wv/ye9kXH2fNQp7JsrVyxTwMGdrdHg+fdfv/3t6l9/14qq2Oe7Hn/+0K9tz/CPw+u3rO9ti16SW98mKbs4gid1dej9vsztHjBG1r7SZrSdrZVbFzQc77uqF4DpIxVuerVP1wh9ltlaFl6iGK65WvZa//Sig1btL+rtaxbb3beJ1sl3c9SdNeKheD9eKHWHRmq7jmL9dLStdrfPdH/25ygAwcOqKysTN26dXNKKjt09JC27tuq9XvWKzknWa9+/qr+nf1vu28T0/Fr+5D29m2EL+l7ib4X+z3dPORm++qRKTur01ncXrgGPp9P+/fvV+fOndW2bVun9MTVWKci9umdt75SVFwv+dcen7a89YIyQk9ufXHHZ33HEIXYK3k9lGZo/v/8UxsPRWhoTHd/HamFWYYhtX1A2lItbTVIg8wm0KpjGXt6qZf1nQs/WqgFyR8qbXsr9fKl6DWr/qSZumoegbpfzlqOG79Sr97BZafGN998o3379qljx44KCyMA2VSKi4t15MiRWreN9Veo9e9X3/6HbltgHQcG1UtrW7tg2T5Fl9fdhlCxLzyx90zTnGfzNWpkpDPuqEedtSqtdfRfyzP2WHV2q1Vn7bevqHvBdTa2T6HeDuxf7cd+RYwYoOAamrvRf2zScMvNvcOHD6ukpETdu1vLod4bPxzPsIhhCu8Qrve/eF8rdq1Q9/bd7Y7nCwsL1b59e3v7eHJqrp8xvvWae6LHp3XwbZyvx17bqEM9h1rHgG7Xl1rqYbmTrefV1bmvPR4X9fr4++KGZY69WrVqpa5dG/1A6KTVFgc5rVuiXDVqlLT7Jt30jv9x/2fS39b6h1/dm6fNWyrKjdus3yFPZ+s2/6gjT6uc168qHaKLzv2b7rfHX9Xmg5v1qj18v/7mPBs4nXhCc7XmM+uAxzoZSt+8Xqnrs+3y/E8zVWJtmQt35arEGi/8co0W/2O9PWx2QJlbCq2/GVrwVgdd+5Opmnr9hepnB1gqhHfI1YqPzXtbvGla4w1X+N4i5a5fqYwyf7Ey1mjNznzlHnLG6+Bbn6rUz1LLX1uyKzPodSXK3WLmte55sufdl6ipF/ezx9y9p/W3rfUa6z2v7blGcxflSody1fY86zPM50yOtw7ugp7TP1UvLipR2I4VSin1v5P34zUqCg9XxqtL1GGyed11urCPNXOB95lyrSLWzdXCwEWXPcv07+QMZe61fqNh12rqeT57uCGZ/GNzgPK3z/xpOdOWT/On5Ww7flqOaXKLJlBaIl+grvisdaptDXXKWofy09K0fp+/WPtWKjUtv3x98RV75S12XhPEZ50ElJcGPsf66/V6VeJM8JUEv9Ynn7U+B5f5rHVl4Trr+c56Xun51gGZr8ynEm/Q5zh8aStUNOYW/eDiGIVa3yv4Mw37fczrSrO18PWUis+r5bvYrOWQa77zV0u1INtfF6dOilcvU3+s4URrfhJNmVP3K1h1d5fZnlnvX2q9t70M/PNc4zKyv1Pl+UVLZ60TQSuEr8RT4/a/sChXKautk39Hxqo1yt7j38daL6pWD8pZ66VdlwLrftA6anNe63+9RzHnxTgBB/+66i1/0+p12Civb854TSrV2UAdcL6fUf4eR71a8/oSbQm8X2BeA9uxSpy6V6XOhnni/ftwa7/ns/ezl6hqrQ0cm7iqs2h2Auk9AzwD7PSe+ZnznSknwl39VJ3Hp1XrUpCq+7pK9dOntNVFuvCWH+iSvtZY8POq7ktq2xfW9JlWDQ/U8xPZb1V9jXyV97Xl0wLLonwbZB0RB82Pr8Z5q7leH39fjKpafWMurRxHcnKyJk6c6IydnCNlR/STd3/ijB3HuX/Ucx1W6fYNbzkFFa4a9UcN++p+/T7HKTCtVi6U7i86W3/U/U5gxbREuUgFy/1BktsufE4Ru253XmNNu3CYNq79vaq/e82GdB2mAcd+4IwBdUvofliezp3Uu3dvp+QElKVp7jxp6o0HNee1jopvnaXoG69Q9rPvqN8d18m7ZKkir7la+dbf0A45Sul2i6aO2KI5z0rT74jU0r8sVpfrp2qsCQhUs0Xzny3Qj+4Yq5J35+idwdN1XcFSLf66UIWdfqSpY0KV9o8F8na3Nuwjp+vqOr+GV8vmrVX8RQe14strdYP12vwlc5RW/rp8LX02TSPuGKG0OufJRPfNvI+whuvxnkvydfU11mv2LdOcZTGaftEWLd56ocYPs54WGiZPWKGWBj9n+WBNH7JSc/b9SNO/VaJl1vIcbC3P0Lf+rMWdbtDUCyMVakLMJnqfd7Wutl7mNcsoxlpG/a3PnZ+hEcOytFjTNd3MatoczQkMn6C8vDx9eeBL/fPrf6rwcKGOlR2zy0Nahyi8fbh6tO+hHh2sh/W3U+iJt25ChfZl7dWrtJeioqJO7OrZ9oWas+MKTZ/gUe7rc7Rlwnjlv1alToVa61BGqHK81jr3/X7WOjxfWzocVGa36bp2z1yt6D1eSSElChscr8h2zvtafB/M0SvWc24e4tP6v7+isCvD9c6/pbEju8jTb6xivlygF/OTNL5nilbsGa+pV+Vr7i/WKPwH4xW1dYlSB/1M1+Y9qRcPjdc140ZocOHCys/vvUwPrumgsWMSNfr8wEmd4VX2q3O0UON13cQR8m1eKUX2U+qiVCXdd4P6bZyvJzMGauygjurqydGif5Vo/CTrM3ct0eqq38W0RImy6o+pr4G6NDRD85/O1Ogp12pwt4ptQNqzc6Q7pqt6FbLqm113re3Zb+eocMx1GlG2RksOXqP7IpZUXkZTLlfuvBWKvCRJhStTFHnjDYoPWqYny7QUy87OVlFokbxtvE4pGluPIz2s9dOjgQMHOiX15dOaZ19RxB03a3Dpes19LUxTR1r7mirb/8Ili1W4t1Aea/80OjRN81/xKtw6KRkxrZ9WPJuvpIn9VKhIjR5Y+eps/hKrnu3tpwvPS1JSRJpefC9S4y8o1IoPI3XLD0r0ystHdPWkjlr6eo4un5qktL+b/dblKnx5rjKHjFfsthXKOPsW3WztuyvX4fs0fVi21qyWovqkanFaku670Ru0jwwIrrOjrRPQZcrtGqOSpe9IP56uC3dW1Nlwqy6+83KKYi+9QqP7bdFCe15DVdJusOLNPjlon1de9y4LrbHO1rXfS7OPTax983Hr7M3WcY3zogZSVFSkgoIC7W6/W0dbHXVK0Vg2fLlBn+/7XLOiZ9mtCiIiIpwpbrmrn/2s/Ultx6f93puj/AuuUL9Ca3dVaX9mSZtfsa8rX+ed+nl1mBY+s1C69Dpd02at/ly+TwzT2r8H7Ut+lKD0ecHbgGzNudeafv0VVl19R1vif6abhwUf0wYdn9Z7vzVeuX+q8ppRqfrzfP++doS1jZm7tIvGj5HWvL9f19xxtfRWYBs0UiEfrVBnU6+s4+n5L4fq5h/H16te174vbli7du2yW6JER0c7Jaev2uIglRrSn3Y+u1//GfWcXrrihyrZ+2qNwZRy555tbTnvt15zmzThv3XVZ4HgSJQuuuIlXWQN5e2+SfeXB13q72DpMf35nUxnDKjb3P9qgA1D63gNbr1Y2ZsOyTPyZiXkZ2jt7i0qDEvQJdbk4BS08Ak3KHbO/yljqLXBtEXq6p/eoOx1C/XnV0N1xfTrFF+pBfpgXdhthdZ6E+TLDlfSZVZRgdQ2/hJ53kuRb0RbZXYZax2WLan0OTXa9Y5SizvKUxiq/A9WyjvmcmdCVcebpyCu39OyaaF+n/6OQnsl6tofxkj7t2i/tZy2mHaU4YOtHZ7194sULX5tjTL2JGj6T/tZy/ZChT+7Vl5rR5YVniT73a/6mW7YnqKFf1mg0CusE2DrWCD99d8rPTlU4aOu1Q3W++QvWaaw796syB1Z5hUNylxJ+LLkS2fMzwRTTFnVcpy8Ae0H6Ee9fuSMnYCBSQpftl7eCYOV4o3TFd0Gq7BqndpjPXpcosQvrXpsDaYfGKxrolJl9iThfdoqNy1biVdfUimAYoSOTNSR1zKkmBKltxuta9JWKG7ydI12gplp/85V2IhYFR7tqpJtafaBnS9mrK4936r//XKV+rFXkf3Mqedo6+TIev6bVZ7f+6Aix9ysy8/3v18Fj2LO8b8uppu1Tvbvp7TdXumI1zpVkzLWHdT4O8aWH2B5ukuj463PLqv9u1TSLl433xWutHdf1J93xOqGu6znuz2JMvV0Qrz5ptZBd6FCr6y8jKZ+laYVpREKL7ROhNvlKmWLFG8CqQ3s04JP9YH3A2cMjW1Sj0k6z3OeM3YiQpU07IheMatKcbrCRk6VhoRV2/4Xqq3iL/HYrclGtM5Ul4vGS0utvV/rcEX4Vii1cLCuGFk5gOIXqsETrtVYq57lL8mSz7RqKfQoLDdFW7xROtgtXuE9PYrslK/Q8nOVDK0pTtL0EYOlEaHKmpdq7XM7VqnD1hlhaIxi+6Qpt9iqi8W1Be6q1FnFqHBbobwhPvkOVa2z+YruHq14c6JZWqK2u9OUffhqXTIw+ASwisass43YHt6kuxYdLXLGcPpyVz+N2o5Pw8N9WpFWqMGXjbbqQVUV+7r8JUsq189uUxXX3XqFqQ9p71TsE/csVVbwvmTreEVX3QacPb5yXR1WS2rPCey3oqq+pk90+b42f0mOoq+ersHWsUDMvvlavFMaG7QNkjpo4SbrCL84VTrPWpa1OZl6Ddvp3RIlyFWjntNFh24vT92p3BLFtDj5oYaUh4RKtHmLaXFS0RIlz3r9d/SfoEBM/VuiDA8/Tz+KudMZA+p24Ksv1LFj2Mm1RLHkL5mrBVvbavyMmzXiq6Wa/5q10o+drputIyL/1R5/SxTzN3LfSs35t3UQV5qonwVfqartitGuhZq78pB83S/X9GusHYBz5Th+7Ryt8XkUMfEGxX8Q3PqjZrmvz9eWcd/VaOvkqXD5Am25YLou3DRH7wyYruvsi4fZWjgvT9dOMZt6R43zVNESxf17xmpZoJVJQKWouxG4mj1CW16eo3xrB3SJdbCZ+/pcrSzxKfzyqt/PmY/vWq+r9D4ZWvDAYuV2sr5Fcb71rvH6wc+namxuw7REKSgu0OO5j+vsrmfrurOvs/OO0Xh8h33yfuk98ZYoFu+7C7TeE6qCY/7WUtXqlLMuXl46V6/sDFOHc2/Qdb6g9cXn1RZrPUwdeZ9uONv/ngEZry1USaRPOQNu0NiNc5Ry3nRdax8kWdP+PkclU6ZrdPlBT1ArLusz53w8QtOjFpd/TrXn19V6KjCt8wI9+fl4+3tkOFenZP31TQu8T9BnGlW/S00tUYI+L7hlmauWKPaVPWs7F/S5wcvounbW9/7Q+t7frS1P/eQEWqKEdQ1TmIc+UZpK8dfF8h3ynURLFEtZhhb+X4kifdYJyI3X2eknVbf//v1pvHXSskY+T4Su+WG81pavc9bqvdvav/5HumW6dSJnv6lf8Hpc+Ja17xxWUU9NK5GVf18gX3yi+g0crcHhgSvU/bTk2RJNvWO09Zwtmj/Pq5unhFarw1cULdSWS817ZzjTVLnOBQTqbIw1j4s8mmodIJh5MfMV+e/gOhv4fP93MiEX72Zrm2W3compUk8r9psBlVqD1rENKW+Jcrw629d5QQMKtETp1qebQtrQJ0pjMmnHJsU4/2D+SbREsbion8c9Pi3N18rnF9utry4JrqBB62n1+mlNDux7gtdn61i7pn1JxTbAowVV6qq9vy8XqGcu6kC1/VZwHQ28pqLeB38H7/L5WjH4ZiV9ErQcrGU5f16h+rUrUD9rWVq1ul71mpYo1dUWB2k2Mae3DhWpa4ernLEqooepf+kqu98T+7G7SP17Vn7uWxs2qKj7RVX6S6mf1q1bKbJrBx48XD2sbUODiBziUWHoYH+T194jFF5gHUwO9U+rptslurZXvnWqbylcowVzFmjpu0s1d0VHJQ22n1FZ3yR5Nuco9luVdxT9JsRaJwsRGu2mHz9rg73SO1iX9PTI4/Eo5pJY5azNlefC8dKiP2vBu8u04M9L1PGiJIW6mSejPu/pvKSqrHfnau7frceiDPsKesDgyfFKf3mNna/db7RHmbmxutDseFSoNS/P0YIly7T0+RXqeH5NMxevG373kP77gf/Wf39/sAZ/f6rGNmCco2u7rro57ma7o9jHP3lc2d5sO5DCo3EeXdp2cZb8ifOMjFD6K4cUN9pZE2upU6Gjk6SNRxUXVHdLMqx1bV269TuHKaKzUxgkfoi0eF1XjbVONCK/laj9ixZq2bsLtXKnNW1itFL+tMAen7s813lFFQPipJSlytjtc/f8qsKjFLp1jVKWL1RqoX9FH3F5pFL+tlTLrJOkDG+M4spStDQjX/uP813KbV6qJ/9uvscCLdgRqxE9nfITFLyM1PMSJe17UXNMHX51sdIKs7Xwl/Ot7WHgr5T92i81395AnjjTSXNN6xOPxnm0C2mAnKzW8YrTYq3tOra8/47K2/+AfroiJlvZ4cFXtHO1ZtEypW3Ok3qEq67wWfjFSdpv7UfMPm7BojQVlnlVkF+orIx0rUleqezyfkridU3/dM219zfvqMtFJphSXXhkqDLXpmjl66kqdLM/7hwpT36qVq5dqjX+LtSq1NlIxXTK1IrV2fIWZ1hlKUrf7lVYeB3fqjHrbPEaPfm7ZSoM/A2qqyfLdHha0/rEo2EenxR8oic/fVL7j+zXT4f/1FnqJ8h1/az5+DR39WIt25ihvDJr3uroybVa/XTKq6m2L3G/DXCj7v2W/zmVVexrPdZ38DnHAi/uHqzxQQEhm7UsL+nxjt5pn+QPoNSm3vW66v604epqc3Vat0QxrU9+2N1ZVY9u1qvLK1qNBLdEqdpKxe4fZUKEVi3fqGFBfaJU7mOl/i1RRvQcoXvOu8cZA+q2bds2+w4OJ9sSpcGYTqcOOJ1UWULDPAqrLQJRVZXXygSIAluOkDB5TMuME1FtnrL14p8ylfhf11TLOz9d+XZnKG31EqWe8981X9V3ybREMb2vm6utJnhiblOceyBXVw+4Wv816L+cZ6EhHTx40L4acjItURrMydTPk2Q6xyvvf+5k6nNVwS1R3Gro5WA63jMB6Kp/T0CgJYq50tqjRw+nFI0tPz/fvkPPSbVEaUD1qS+Vrnxvnq/5h2+2W5GerEarszW0GDs+q86Wd9Rp1dn2Vp2tT9yrAeuoEWiJEhMTY98hEQ3raNlRvbD5Ba3ZvUbn9jhXtw69VREdIrRly5YTb4nSkEynq4fL10a71WDjrwUnWQcamL+Ptum6PBBoaqh6bRZkA9VVWqI0src23F7RuiQogGK8taGiU1nzvIoAivE33W8//y39PhBAMT67Pyidx5pWjwAKgKYQr1vuukaDezefpvKh4TEafNV03RLoiqYBxHhi9OiYR3VRn4u0dMdS/X7D7+kTBc1PaJjCTvVRRuDzq/4FmkD4sDjtX7ZQixfN1/z1g3X5cGfC6aq1VWebOu5AHW02TCvZB9c9aAdQJg2YZN8d0ARQcLrI1/rX5mixxtsp6+Uaql5TVytpNn2inA5oiYL6OO1aouC0FtwSJdh7u97T/M3z1aFNB/uKT1LvJGcKTtZp1RIFpz1aopwap1tLFJzeaInSOJblLtNLmS/ZdwecMnSKzu9VuVfy06YlCpoFWqIAABrVpX0v1cNJD9tXe57e+LT++fk/nSkAAACNx9w18PmM5+0AiknfMa1kqwZQgJaIIAoAnOZMes9vxvzGn96zk/QeAADQuEz6zkPrHtKavDWaNJD0HSAYQRQAaAZat2qt2869TbcMuUWb926285JT9qQ4UwEAABrGspxlenT9oyoqLdL/G/7/dN3Z1zlTABgEUQCgGZnQd4Kd3tOzQ087vefVz191pgAAAJw4k77zXMZzemnLS4rvEW+n74zqNcqZCiCAIAoANDPld+856yK9tfMt/W7D77SnZI8zFQAAoH62Fm2103fW5q2103dmjpxJ+g5QC4IoANAM2ek9Q/3pPZl7M+0Dn5R80nsAAED9mPSd36z/Dek7gEtNHkT5+tDXatO6jTPWvJjbegHA6cSk9zyS9Ig/vSed9B4AAOBOpfSd8Hi7E3vSd4Dja/IgSmTHSA3pPsQZa16iu5z+97IG0PIM9Ay003suPuti0nsAAMBxbd231e6k3qTvfHvgtzUzcabCO4Q7UwHU5ZSk81za91L7oL85Gd17dLMN/gA485n0np8M/Ul5eo85MFqXv86ZCgAA4PdOzjv6zUe/0f4j++30nR+c/QNnCgA3Qh62OMO1ysrKUmxsrDN28kxrlB7te+gb61/psVKFhoSqfZv2p+WjY2hHXRF9hSbHTqZzJbhWVORV/p49+qbsG7Vr115t27Z1pgA1O3DggMrKytStWzen5MSYAPXwiOHaVrRN7+W+Z29jTRNdVLdnz1cq8nrVNrStVUfbKSQkxJkCVPfNN99o37596tixo8LCwpxSNCafz6ddu3Zrv7V97Nq1q0JDQ50pQM0OHz6skpISde/enW16DY6UHdHfPvubluxYYh8b/Py8n+vsrmc7U0/MwYMl2pmTax3DfGPVU49at6bLTdRt//79atWqlb1dP93VFgdpZR0UfOMM1yo5OVkTJ050xgDU5OixY0pZ/7E+3bhJ23fmWCfFxXZ5RHgPq/IN0PD4oRqWMNQuA6rKy8uzTxgGDmyYVnpm0/7C5hf0/hfvK657nG4dcqt6d+ztTG259nz5lTZ8/Kk2ZmzSri/y7MCVMXBAtOLOOduuo/369rHLgGBmXcnOzlZERIR69OjhlKIxfLZ5iz75NEPpGZtV5N1vl5kT4vihgxV/bpxVT89Vp44EslBdUVGRCgoKFBMTQ9CtCpO+Y44LdhfvttN3Tqb1yf79B/TJxs+U8VmmMjZllu9Lu3XrqgSrjp437FwNtvapQE127dplB1Gio0//rjJqi4OckpYowJlm67btWvyft/TWO8v15VcFOnLkiDNFKik5pC+sk7XNW7bqQPFBhYd3V0cO/lBFQ7VECTA7pxE9R6hru656N/ddrdm9xm5N17dzX+cZLc+aD9brX4uXakPqJ/JaJ2bB1xD2FXm1LWu7cnfttpad1K/vWc4UwI+WKI3P1Mulye/p//71hrbvyNXh0lJnin/57/mywA6s7LV+hy6dO6t794bZXuLMQUuUmpn0nac2PmUP3xl/py7rd5k9fCK2fJ6lN95apnfeXWkf8wbvS83yz8n9QhvTN9vHwn2iImmNjWrOhJYoBFGAk/TF7nwtfuMtbbQO7Ori8x21Dgpz7L8mOs/OHcEaOogSMMAzwE7vyfJm2cGUw8cOt8j0nrUfrte//r1EhV/vdUpqZk7iMjZtUedOndQ/uuUGnFAdQZTGdejQIf37zWQtX7lGx475r2rXJi//SzsdLzKyl33lGwggiFLZkWNHNHfTXC3dsVQJ4Ql2+k5s1xM/p/t8W7Yd5DSBlLocPXpU27J3WH+PadDZA/ktUMmZEEQhaQ04CYesnfV7K1Ypc8s2p+T4zMncilVrnTGg8QXfveftnW/bd+/JP5jvTD3zbdmapXfefd/O23bDnCy/v/pD+2ARQNNY/cF6rVrjvjPs7TtztXptio4c8TklAIJ9vu9zPZTykD7I+8BO3/lF4i9O6u47pmX1KmvfaFpsumWOd9d++JEzBpw5aIkCnASTC7roP285Y1VcdZ1u7r5JG2vY13z1VaHOHTpYnTp2dErQ0pk87saMyrey/rXU9J73Vqy262qFS3XntIEKGXy1bv/Oxbpk3Lf8j8EdtDJ1u/2M4uKDCm3TRgnnclc2+Jk+i7xerzp37qwOHTo4pWgI3v0H9PqiN7Xf6UvMdtUtuvPscI26/vv6dqCOjhuhfqUfle9XTUvQvn37KLJ3L38BWryDBw/arZrCw8NbdAenDZm+E5D6SbqWvP2uM2aM0M3Txqp9m6G6acrVury8np6tsNWfKnB50VzASDxvmEJD2zglaOlMq07TZ1GXLl2cktMXLVGARvD51jqaM/boofBaYiR79xXZ/agAhml6bJogmzSBxja+73g9mvSo3cnsnPQ5euXzV5wpZyZzcla9pVh366Sru9Yv+Kse+u1jyrb2hNnW34eef8+Z7mfSeky+N2CYAIpBAKXhbc783A6IVNKjpyJ7vKdnTN388IBU/JFVX/+q+eud6Q7zWsAwrQhNaqypoy01fcSk7zyb8axe3vKynb7zmzG/0cheI52pJ+cza59YWReF9+4hz/qF+oOppzlWUY7197cvaqn/CbadObus/fBWZwwtXXFxsX1RormnxRJEAU7Cjp25zlD95eXvsfvA4NFyH8eOHbNPzPbs2aM2bdrYOdxNwfSTYtJ7LjnrEju9Z/ZHs8/Y9B5zu3FT106Eea0JeNb02/FoOQ/TOaK524dpLWZairVv395ZQ9BQdlcNoNTD51uza/zdeLSsh7kYsXv3bvvkrKXePcuk7zy47kE7fec7A79jp+/0aN9wyyLzc/ep61Xt5pi3xT/MMa/Zj5pj3nbt2jV4H4BNjVscAyfhgV//zjq4/toZq+KmO3Xv7mf0Pyuc8SrizonVVVdc4oyhJTMnZb179z4lJ2crdq3QvM3z1C6knW4deqsuiLzAmXJm2LT5cz3x1PPOWMB1evQh6aFHF9pjNz80U3r0Mc23xyqbdNWlGhQ7wBlDS2YCKKaeouG98I9XtS7lY2fMcdNMParH9NBL1vD4O/VoQqYeeuJ9/7QgbduG6qd33OKMoSUz6Tu9evWSx+NxSlqO5JxkLdiyQF3adtGUoVM0smfDtD4JNu2u+yrdiUe6WPc+FKeMR5/RMjMaXGerGJ4wRBMu/pYzhpbMtEAx+9Lmctem2uIgBFGAk/Cb3/+l9g62jhNEOX/keZr8nSudMbREpg8UsxPp1KmTU3Jq7Ni/Qy9sekE79+/Ulf2v1I/O+ZEzpfkzV87+8uSzzliA+yDKj3/0fQ2JG+SMoSUyJ2bmoM9cOUPjWPDPf9mdOVfiMojSratH9997lzOGlsr0r2D2pS2tH5TSY6X2hRDT+sSk75iLIQ3Z+iTYPTMfsvsLq+A+iDLuwiRddcV4ZwwtkTnmNfvRpkhdb0gEUYBG8Nzf/qGP0zY6Y1UcJ4jyve9erYmXs0PB6eEb69+8TfO08ouVGtxtsH0gFtkx0pnafJl0nF89/Hv71uIV3AdRfj3rPp3Vp/kvB+B0Zm5r/M//+7cz5nAZRDl3yGD97O6pzhjQcpj0HXMBJO9gnp2+8/2zv+9MaRyP/eVpbcsK7s/PfRDlxzdcp7HfGu2MAc1HbXEQ+kQBTkJsTB3N/F+qPYBiOjzr1/csZww49czde0zgxDy27Nti51V/mF/lynAz1L1bVyXED3XGLNFxGn1xF4UePeQUSPNrCaDED41Tz4iWmVsPNKX+0X3VpXNnZ0zqFz9Cl3QKlS9QTVc8U2MAxYijpRhaIJO+89uPfqtiX7FmnDej0QMoxtAh5zhDlohYjRjdXWHyyd/ltuWlmgMoPbp3U3Q/jnlxZiGIApyEhPgh6te3jzPm3uhRI0gRwGnJdDZrOp2N6hilZ9Kf0YLPFzhTmq/hwUGUqP6Kj96rZQvedApqNzJxWLPJ2QWas5iB/XXe8HOdManfwDjFfP2+5r/uFNTCnJglnpfgjAFnPpO+Y++btyzQsPBh9v46sWeiM7VxmboWFeX0CxV+lgYPbqOMtxapyg2zqhk+7NwTOlYGTmchD1uc4VrVdn9koKXrGBZmd2pnbt92+HCpU1q3s2MG6MorxttXyIHTUbd23XRJ30tUVFqk93LfU+beTMV2jVXnthVXipuT8Ige9h1W7LtpfZGltI2Z2ll+6axml1z0LV126cUKaWH59cCpEhbWQXu+/Er79hUp9/MMpW3aVXGFuwbt27fT1RMv1eBzznZKgDObaSX6eNrj2rx3s74T8x3ddu5tCmvTdLeJ7dSpo8n9VebnW1X21Q5lbNykLXkVrTprMnhQrC6bcJHddxHQHNUWByGIApykvmdFqU1oG23fkWPfWq8u5qrZ1VdeprjBHPTh9Hdez/PUrX03vZv7rtbsXqPwDuHq27mvM7X5MLePNukCpaWldsDzeC68YLQd6OxsDhgBNInu3bupR/fu+vrrvfp67z6ntGYeTxd9++ordPG4M+tuYkBtkncm6+n0p+3OOe9MuFOX9r3UmdK0BvTvp7ahocrN3a0jxznmjRs8yKqnl9stzYDmiiAK0IgGRPdTnz5Rdq/w5kqauR96sK5dPRr7rSQ7gDLo7BinFDj9DegyQCN6jlBWUZYdTDl09JB9B4DmxqTlDOgfbedm+476VGidqFU1cEC0Lr/0Yl15+Xh5ujTPVjdAcxYR3kN9oiLVoUN7FR88qIMHS5wpfqa1yvCEczXx8kt0QdIopxQ4c5n0nbmfzdVbO9+y03fuHXGvYjyn9jjSBEXCw7tL33yjfUVFOnr0mDPFLyqyl30x4tLx4+z9KtCc1RYH4e48QAPbnZevnTlf6MCBYoWEtLYDKDHWTsRcZQOaM3MbxRW7VuicbufYHdCaflOao5KSQ9r1RZ7y8vfo8OHD1glbB/uA8JyzYxUa2sZ5FoBT6cuvCpSXt0cFhV/bFyZM65PevXraV8KBlsCk75i77+QfzNd3Y76r78V+z5ly+sjevtOuq979B9QmJEQRET3UJzLS/gucCbjFMQDgpJlbIJtbIYeGhOrWIbfqW1HfcqYAAICG8PbOt/XK56/I09ajKUOnNFnnsQAq4xbHAICTFrh7T5+OffRsxrP2HQIAAMDJO3zssH33HRNAGRbRtHffAeAeQRQAQL3079LfPrAb33e8knOS9duPfqu8g3nOVAAAUF9b9m7RQ+se0of5H9rpO/eNuE/d23d3pgI4nRBEAQCckClDpugnQ3+irfu26sF1D+qDvA+cKQAAwC2TvjN7w2yVHC3RPefdc1r2fwKgAkEUAMAJu/isi+1WKWd1OstO73l5y8vOFAAAUBeTvjMnfY6dvjM8YrgeTXrUviMegNMbQRQAwEkx6T2PJD1ip/e8k/OOnd6zu3i3MxUAAFSVuTfTTt9Zl7/OTt8xty8mfQdoHgiiAAAaRHl6T9FWPZTyEOk9AADUwKTv/G7D70jfAZopgigAgAZjp/ckkd4DAEBVh49WTt/5TdJvSN8BmiGCKACABhVI75nQd4Kd3vObj35Deg8AoEUz6TsPpjxop+9cG3Otnb7TrX03ZyqA5oQgCgCgUdwy5BY7vSerKMvO+16bt9aZAgBAy/HWzrfs9B3TEsWk70yOnexMAdAcEUQBADSa8vSezmfpuYznSO8BALQYh44estN3Xv38Vf/dd8Zw9x3gTEAQBQDQqKK7RJPeAwBoUYLvvlOevtOO9B3gTEAQBQDQJILTex5c9yDpPQCAM1J5+s6xw/r5eT8nfQc4wxBEAQA0GTu9Z8yj6te5n53e89KWl5wpAAA0byZ95+n0p+30nfMizrP3d+f1PM+ZCuBM0eobizNcq+TkZE2cONEZAwDg5L24+UUt37Vcg7oO0pShU+zbIp8q+/fvV3FxsY4ePeqUAH6tW7dWx44d1bVrV7Vq1copRVM7duyYioqKVFJSIheHrmhhQkND1blzZ3Xq1MkpaXqb927WvE3ztKdkj52+Q+sToPmrLQ5CEAUAcMqs+mKVXtj8gkJahejWobfqwqgLnSlNZ/fu3Tpw4IDatGmjkJAQpxTwKysrk8/nU7t27dSnTx+1bdvWmYKmYgInpp6aQIpZ/gSzUJWpo6auduvWTb169XJKm45J3zGtT7q262rvy0wrFADNH0EUAMBpKedAjn31LtubrcujL9dNg29ypjS+L7/8Uvv27VOPHj3UvXt3pxSozATZzLrSoUMH9evXzylFUzCHqdu3b7f/mpPjsLAwZwpQWUFBgd1aqWfPnk22PTfpOy9sekEpe1LswIlpVUnnscCZo7Y4CH2iAABOqejO0Xo46WFd2vdSLctZpkfXP6ovir9wpjYec1XbBFC6dOlCAAV1MmkC4eHhdouIgwcPOqVoCl6v125lYE6MCaCgLhEREXagc+/evU5J4zLpO6aTdBNAMak7Px/xcwIoQAtBEAUAcFq4ecjNuu3c27Tdu92+LeSavDXOlMZRWlpq/zX9XQDHYwIpRmC9QdM4fPiwnWZHPYUbZj0xfVuZwFtjWrpjqX6/4fc6cuyIHTwxfaAAaDkIogAAThsX9bmo/O49z2c8r5cyG+/uPYFsVvpXgBuB9cRFFjQaEMsb9dHY2/OSoyV6euPT+ufWf1bcfYf+T4AWhyAKAOC0YgIodnpPv0u1LLfp0nsAAKiNSd8xrSSD03dMR7IAWh6CKACA09LNcRXpPSbvfM3uxk3vAQCgJsHpO/eOuJf0HaCFI4gCADhtBdJ7+nfur+c/e17/yPyHMwUAgMZl0nee2viUnb4zoucIe380PGK4MxVAS0UQBQBwWjPpPb9O+rWd3vNu7rt2es+u4l3OVAAAGt6mrzfZ6Tvr96y303fuOe8e0ncA2AiiAACaBZPeM/XcqRV37yG9BwDQCEz6zh8+/oOOlJG+A6A6gigAgGZjXJ9x/vSeLqT3AAAaVomvSvpOEuk7AKojiAIAaFbs9J7RFek9j6x/RLsOkN4DADhxJn3nwZQH7fSd78V+j/QdALUiiAIAaJYC6T079+/UQykPafXu1c4UAADcW7JjiZ2+c7TsqJ2+892Y7zpTAKA6gigAgGbLTu9J8qf3zP1sLuk9AADXDvoO2uk7r219jfQdAK4RRAEANGt9O/e103su63cZ6T0AAFfsu++k+O++E0jf8bTzOFMBoHYEUQAAZ4Qfx/24PL3nwXUPkt4DAKgR6TsATgZBFADAGSOQ3jPAM8BO75mfOd+ZAgBo6Uz6zl83/tVO30nsmUj6DoATQhAFAHBGCU7veS/3PTu9J/dArjMVANASffb1Z3po3UP6aM9HdvrOjPNmkL4D4IQQRAEAnJFMes+0c6f5795jHTiT3gMALZNJ3/njx3/U0W+O6r4R95G+A+CkEEQBAJyxxvYZazfXHugZSHoPALQwdvrOp0HpO2Me1bCIYc5UADgxIQ9bnOFaZWVlKTY21hkDAKD5MM21LzrrIhX7iu30nvTCdDuoEtYqTPv371fnzp3Vtm1b59knolDr389Vr/7hCjGj3gwtSw9R6LYFSlOiBnS1nyTtWa8Fy/YpOq6X2jtFNdqZoYxWvdTLfpJXGe9vU/v+x3mNzSefL0QhR7do5QafBvTt7C/euVLL9pylmHB77urP+j6LF7yhtZ+kKW1nW8Ueb/4D81HLx6UtWSoNGiR77gLfta21DP+1QG+vS1O2YtX585e0cLn1eeYzrUduSKziegd9qjVPGXus1wWWbRP45ptvtG/fPnXs2FFhYWFOKRpbcXGxjhw5om7dujklJ6bwo5XKDR+g8DZmzKpXyRsV0mabFnwaosT+gZSOfK1/+T3ti45z6l8tyiqvr0Mja3iyz2cdZZtKkKuV73s1IPAZVn1cWTSgYrtQK2seF72kNz40dSBXbWOOM08Wn/WZIbVWvKVa2mqQBnWyhoPqT+FHC7Ug+UOlbW+lXr4UvbZ0bXm9S9sfEbRsDGueNn6lXr0bLgWmznk+AYcPH1ZJSYm6d++uzKJM/SXtL9pWtM1O37llyC1qH3KchQgAQWqLg9ASBQDQIgTSe0z/KCa9J/3rdGdKffmsg3TrBMnhK/EobMcKpZT6x70fr1FReLgKi3KVsjrDX2jJWLVG2XtyVWJGfCXyer0KepsKe3OVe8gZtp6du8V5jflc6zXe4BeVmvcpka/MmrptoRaus95TkfJ9Yn2W85QtqzPVYUBo9c8s9Vmvs96z2BTU8N4Bh6wTuPOmaupPrMfkeJnTJ1+J9Vzzuf5nWJzXW+9VPh/28qjjfQ3nuxYmL1DWMP9nXDs0TP0uNsPXKMoXpWtM2bAqJ23WPOXuNQPW51mfY89P4HsEfZavts/FGc9nnUiX//pWPfG0z9WKj50Sb5rWeMMVvrdIuetXKsOqP7aMNVqzM9+pf7Wvu1XXV5upS4H6VebVmteXaItdRwqVuaXQ/xxjb6YyzbrrM8HGoNdUY9X9ton+eveTaxXvr3jVthvldbE0WwtfT3HqgVVeHKgTNQjUn6+WakG28xmT4tVr2LX2cKI1X4mm7OJ+/ueXs+Zpl/+7+KztR/n2x4xXWd5mm1RpmViqvka+yvPckJbvWm6n75R9U6b7EknfAdCwaIkCAGgxortEK7FXot1PytbCrYrvFH8CLVHKlPL3V3Ro5HCFl67XC//n1ZXnf62l24dqVL9irV6Wr+GXDVVJllddD21V4eBEndU6TckbuyvWOjmJHFGqN57frO59Qqz5CNVZ3apcGc3fpE+PRems0FKVllonYOn7FD1qgHa+PFcftolQq3X/0rIjQzW81TLNXVKqXuFe5R/qLH26TKv2dlZERD8N1Vqt0SgN9WRoaWqErhzVS9tSVqs4JEQrXnxHHS9IUGnyU5qz/kuFtu+uve8u0JbwKIXs9Cq0T/fKLU2Kt2nbgUEaFOmMl27Rh2uLZb2TXnynoy5I6KyMeU9q1ZGO1rnjIR3OTlGKPR+99NUbc7W5yvvmb92mzoGWKPnWe3cepKGtP9d7Ge019JxwhbUNXJUu1raP8xU50nlusPJ52qgX/nuhvojortIPXtQbh0fpWPJrlX6bxGG9nBednEBLlC+PfqmtB7fa6xCPxn8cPXxUbb9pW++WKGUfzdUrxaM0PMKn9fNfk/eK0fr67a0aOjJaxWveVv55V2hoyXZ5u5Zoa8FQJfYNUdo7n6r7gFL5okap9N/PVVt3A0JLqq6v+Vr6whKV9uquLf95WyVnhWjDii0K8fRSrz6lyvhYGjXSqUD5G7TBqpujvnpBM9/4SrE9fFrxyjK1GjFcvexWMgHW+r+1WIPKK55PW6rU4c4b5+vJVUfUUft16PBWpXxYqM49e+mb1H/qrdJe6l6Ur9JuvdTZvK9T1+yWKIH607dUn69IV/vBgxTeKdTfks6S//EGaeQoBT65QmCepOQ//FnrvolS2Bdv6MWMXrpg/8LKy/u8Xvp4XtAyGRqhtD9Vfk1S10/19vv+ee7Vq3P555+MQEuUBbkLNDR8qH4+4ueK7hztTAWA+qktDkIQBQDQonRp28VO79l/aL/CW4WfQBAlRFG+DUouStTQnLe1deCVShjSWTveytBZMbla9eVwXTrEo/yt2xWT1FqpmYMUl7dKOQmjFLItX5GjYlT84Srt6JGgpCG91L6V87YB+Rlatds6cSwpVOHXXyk7p0xxSSV658OzdMukeEWe211bk7dq0Pm9tPndjfLFjNCoGI88JRnKCL9W15wTovZ9DmvV24c0KuRjbfBcrlF9Q+UJ8Wnnl17t3bZDnceOUuetaTp8wY91RWxnKe9DrcrproTz46unDFgnXG8vWqWMz53m/QP7qe2Rncov3mvNW2eNHfmV/rV+gH7yvVE6KypcPYLmo6yG960piDI4drhGdcvVyoUL9HbRACUNNFPdBFHytX57tH78neE6q+d+bdjWXd8ZkFn5t4lwXnOSAkGUdV+v0xu73tAnBZ/waIKHqaOR7SPrHUQJ6VWmDe/uU+LgXL39eYyuHDZYnbOXKqPvIOWuztfwCUPlsda/7bGj1Tp1kwads0erdg3VqNZblR81SjH7a68TIb2rrK9haXr7s86K6lqm9t5PldpxrPp+fUjDvzNa4crXhpqCKFqv7LNu0JUJkUoI+VBvFI1SYm//U/ys9f/tf2nVpi1K+2S/IkbEqF+VOvzVvz/UgFu/r1F9IhUefkgZmyJ07dWDFFbymd7+1KdBI0ZpgMcJTdQYROml4SO6K/f9hVrwzn4NGDVAna3t0fGDKJ21bXOILrzuQsXEhCjj/RIlXd2r8vLutbnyMgkZrs57q7xmfNfyeW6IAIoRCKKE9wjXTUNuUruQds4UAKi/2uIgrayDgm+c4VolJydr4sSJzhgAAM3fwYMHtWvXLkVFRdn9XNRLWYYW/l+JIn05ir7xOplG77mvz9XKEp/CL5+uq62TIdP3R+Q18Vrz7Br5PBG65ofxWvtsmkbccbV9cuLbvVJz/iPdMv0SO0WmnOm7IOpq+z2s0xkttV/TT0ueLdHUO0ZbZVs0f55XN08xwz55Ny/U3LQk3TfkHc3RdE0fYV7n0/q/v2I984jip0zViOwFevLz8Zp+TaQynp0j3TFdkUvmKG2kf15tpfla+fxi6cfTdUnwDO2x5ifPmh/7faXsl5/UlkvN6zI051lp+h3SnDk+TZ9u5seSNidoPixV3te/XPzLoPJ3NQLf10wPHq6ifJ7SnHmwPswqm/PxCE2/qrDab9MQysrKlJ2drfae9mrXhROzpnJo7yEdO3xMAwcOdErcy3htoUoifcoZcIOu62sV7LLqyspD8nW/3K4LgfUvfu0crfF5FDHxBsV/EFQvaqsT5Zx1dLK0+ENr3ftuYE0NXnet+vpsgX50x1iFWlN8H8zX4sibdV2RVU+OWvXkfFM2R690m66bh/hf7We9x5J8XX2NU5G2Va/Dsv76pk3XaDs5P6guGD6vtljbpNSR9+mGs83koLpWpU4b+UHbgzTn/YMmOwLzFBn0/So+t9LybmfVx1qXSeA11rYjeJ4bQFFRkQoKChQTE6PQULPEAeDE1RYHoU8UAADqq3W84rRYa7uOLT9J7zfao8zcWF1YHhAw+umKmGxlh48OCpTkas2iZUrbnCf1CJe7LkrjdU3/dM1dskxLn39HXS4aLRVnaNmSFKVv9yos3HqXAXFSylJl7Db9C4RqxJAipbZO0gizpw+PUujWNUpZvlCpheH2OwbLXb1YyzZmKK8sXOFVW6JUER4Zqsy1KVr5eqoK7cYBI3RFVIp/3t7KkDdoPty+75a3ntTc15dp2csLlNV/RPWgSX1U+W1KVj+p3ycXVvt7ojq37azIjpE8mujRoU0HZ8nXX/wQafG6rhprAihG3yR5Nuco9luV17B+E2KVnR2h0UGNXepad6utrz0vUdK+FzXH1IFXFyutMFIxnTK1YnW2vBqsywen6cnnl1r1da6e3DRYVzjxoOyVC7T03YWa83G09Rx/Wa1qqMMjLo9Uyt/M+1r1zRujuLIULc3I1/4Maz7WpSvbG6aIas24gmxeqif/vlDL3l2gBTtiNaKnU36CKi3vasvE/5zKgua5av0sXqMnf7dMJ15TAaDx0BIFANAinVRLlAZkOoYs7ygyJEyeTqf46qnp+PFwYIZCFeYJs6+gN5RKLVHcOtl5Mp1cmmBS1b/1EGiJEhERoR49ejilaGz5+fn2HXpOpCVKg2mMOlG1xZbphPVAReesoWEehTVoxava6suFxp6nqhqgntISBUBDoiUKAAA45UI7NGxQxpXA0U7Vv8CpEuqRpykrQmiYwk739Z56CqCZYPMEAMApZK7uejzO41S3QjHahVXMTwO3QjHiJ1yi6glFx9HI8wTUqTHWv/gbdEO8M2y0Ni1cAp/RCC0+4i/RJfVN12nseQKAZoogCgAAAAAAgAsEUQAAAAAAAFwgiAIAAAAAAOACQRQAAAAAAAAXCKIAAAAAAAC4QBAFAAAAAADABYIoAAAAAAAALhBEAQAAAAAAcIEgCgAAAAAAgAsEUQAALZLXu1+lR47o0KHDKisrc0oBnC6++eYbFVn11Lv/gI4c8TmlAACcWq2sHdQ3znCtkpOTNXHiRGcMAIDmqbBwrzakfqL0zzZr1xd5Ki09YpcPOjtGceecrYT4IeoT1dsuA4KZQFt2drYiIiLUo0cPpxSNYcvnWfpkY4YyPstUQeHXdlmHDu01NO4cxZ8bp2FWPW3fvr1dDgQrKipSQUGBYmJiFBoa6pQCwImpLQ5CEAUA0CJ8mLJB76/+UDt25jol1Q0cEK2x3xqtMaNHOiWAH0GUxneguFjLV67Ryvc/UMmhQ05pdaNHjdDF4y7QgP79nBLAjyAKgIZUWxyEdB4AwBlv3fqP9a9/L60zgGJs35GjBf9cpDUfrHdKADSF0tJSLVn6rpa+/V6dARRj/YY0LbLq886cXU4JAABNhyAKAOCMtnVbtpKXrdT+/QeckrodPXpU76/5UNuydzglABrb6rUpWrFqrTN2fKZ+mteY+goAQFMinQcAcEZb+Pp/9O6K1c6YcanunCalHYzT1QM6OGWWr9L00PPvOSPSRWPH6IfXXeuMoaXz+XzauXOnevXqpW7dujmlaAgHDhTriaeeV+6u3U6J5apbdKe+kEaMUKRTJB1S9rt/1fyghmJ3TL1ZwxOGOmNo6b7++mvt3btXsbGxatOmjVMKACeGdB4AQIuz3zo52/z5NmcsoLsie3fX+gV/1UO/fUzZ1p4w2/obHEAxTKeWXxUUOmNo6bxer/23Q4egwBsaxKbMzysHUIwePRXZ4z09Y+rmhwek4o+s+lo5gGJs2rzFGQKs1aS42O50mAAKgMZEEAUAcMYqKvJq9+58Z6x+9u4r0j7rYRps8mi5D5MuUlhYaK0L++TxeLgrTCP44gTrqPH5tuwafzceLetx6NAha1u/W0eOHKHjZwCNjnQeAMAZa9Pmz+00gcqu06MPSQ89utAeu/mhmdKjj2m+PVbZpKsu1aDYAc4YWjITQImMrEgsQcOZ949X9WHKx86Y46aZelSP6aGXrOHxd+rRhEw99MT7/mlB2rZtq5/ecbMzhpaud+/e6tq1qzMGACentjgIQRQAwBkrc8s2/eV/n3XGAtwHUW764fc0JG6QM4aWqHXr1nYKD2k8jWfBP/9l3368EpdBlK6eLrr/3rucMbRUJn2nU6dOpPEAaFAEUQAALc7Xe/dp1q9/r2PHjjklhvsgykMP3Ku+Z0U5YwAaw3srVuu11//jjDlcBlFMkPOen97ujAEA0HBqi4PQJwoA4IzVo3s3DYsf4oxZouM0+uIuCj16yCmQ5tcSQBk65Bz1jCC3Hmhs/aP7qlOnjs6Y1C9+hC7pFCpfoJqueKbGAIoxZDAtxQAATYsgCgDgjDYs+PanUf0VH71Xyxa86RTUbuSI4WrXrp0zBqCxxMYM0HnDznXGpH4D4xTz9fua/7pTUAvTSmzEeQnOGAAATYMgCgDgjDbcOjm7eNy3/CPr3tbf5i/Syhz/aG0uGjtGo0YOd8YANLak8xM1oH8/e3jtfxbobws/UK49VrPQ0FC7nkaE01oMANC0CKIAAM5oYR066JqrLtPYbyU5JXUbM3qkLp9wsdq1beuUAGhsg86O0bevvkIDB0Q7JbUzqT/XfvtKXTT2AqcEAICmE/KwxRmuVVZWlmJjY50xAACal/bt2tn9LnTr1lWlpUe0d1+RM6VCv75n6bIJF+nKy8fbzwPQtHr2DFdUZC/7tsUHDhSr5FBF30WGKU+IH2LX0bHfGu2UAgDQOGqLg3B3HgBAi7J//wHlfrFbeXl7dOjwYfvWtaYD2XPOjrWG2zvPAnAq7c7Ltx57VFDwtY6VHVNXj0eRvXvq7NiBzjMAAGhc3OIYAAAAAADABW5x/P/bu0McBYIggKK9CjMWzw24/xHmCggybgQCQ0JQ7Irx/M26nfdUVR3hJ50GAAAA+AMRBQAAACAQUQAAAAACEQUAAAAgEFEAAAAAAhEFAAAAIBBRAAAAAAIRBQAAACAQUQAAAAACEQUAAAAgEFEAAAAAAhEFAAAAIBBRAAAAAAIRBQAAACAQUQAAAAACEQUAAAAgEFEAAAAAAhEFAAAAIBBRAAAAAAIRBQAAACAQUQAAAAACEQUAAAAgEFEAAAAAAhEFAAAAIBBRAAAAAAIRBQAAACAQUQAAAAACEQUAAAAgEFEAAAAAAhEFAAAAIBBRAAAAAAIRBQAAACAQUQAAAAACEQUAAAAgEFEAAAAAAhEFAAAAIBBRAAAAAAIRBQAAACAQUQAAAAACEQUAAAAgEFEAAAAAAhEFAAAAIBBRAAAAAAIRBQAAACAQUQAAAAACEQUAAAAgEFEAAAAAAhEFAAAAIBBRAAAAAAIRBQAAACAQUQAAAAACEQUAAAAgEFEAAAAAAhEFAAAAIBBRAAAAAAIRBQAAACAQUQAAAAACEQUAAAAgEFEAAAAAAhEFAAAAIBBRAAAAAAIRBQAAACAQUQAAAAACEQUAAAAgEFEAAAAAAhEFAAAAIBBRAAAAAAIRBQAAACAQUQAAAAACEQUAAAAgEFEAAAAAAhEFAAAAIBBRAAAAAAIRBQAAACAQUQAAAAACEQUAAAAgEFEAAAAAAhEFAAAAIBBRAAAAAAIRBQAAACAQUQAAAAACEQUAAAAgEFEAAAAAAhEFAAAAIBBRAAAAAAIRBQAAACAQUQAAAAACEQUAAAAgEFEAAAAAAhEFAAAAIBBRAAAAAAIRBQAAACAQUQAAAAACEQUAAAAgEFEAAAAAAhEFAAAAIBBRAAAAAAIRBQAAACAQUQAAAAACEQUAAAAgEFEAAAAAAhEFAAAAIBBRAAAAAAIRBQAAACAQUQAAAAACEQUAAAAgEFEAAAAAAhEFAAAAIBBRAAAAAAIRBQAAACAQUQAAAAACEQUAAAAgEFEAAAAAAhEFAAAAIBBRAAAAAAIRBQAAACAQUQAAAAACEQUAAAAgEFEAAAAAAhEFAAAAIBBRAAAAAAIRBQAAACAQUQAAAAACEQUAAAAgEFEAAAAAAhEFAAAAIBBRAAAAAAIRBQAAACAQUQAAAAACEQUAAAAgEFEAAAAAAhEFAAAAIBBRAAAAAAIRBQAAACAQUQAAAAACEQUAAAAgEFEAAAAAAhEFAAAAIBBRAAAAAAIRBQAAACAQUQAAAAACEQUAAAAgEFEAAAAAAhEFAAAAIBBRAAAAAAIRBQAAACAQUQAAAAACEQUAAAAgEFEAAAAAAhEFAAAAIBBRAAAAAAIRBQAAACAQUQAAAAACEQUAAAAgEFEAAAAAAhEFAAAAIBBRAAAAAAIRBQAAACAQUQAAAAACEQUAAAAgEFEAAAAAAhEFAAAAIBBRAAAAAAIRBQAAACAQUQAAAAACEQUAAAAgEFEAAAAAAhEFAAAAIBBRAAAAAAIRBQAAACAQUQAAAAACEQUAAAAgEFEAAAAAAhEFAAAAIBBRAAAAAAIRBQAAACAQUQAAAAACEQUAAAAgEFEAAAAAAhEFAAAAIBBRAAAAAAIRBQAAACAQUQAAAAACEQUAAAAgEFEAAAAAAhEFAAAAIBBRAAAAAAIRBQAAACAQUQAAAACCFFEOh8N4Pp/bBgAAALA/KaIcj8exruu2AQAAAOxPiiin02lcLpdxv9+3CwAAAMC+pIgyTdM4n89jnudxvV497QEAAAB25+v9Y5s/ejweY1mWcbvdxuv12q4AAAAA/9+vIgoAAADAXvniGAAAACAQUQAAAAA+GuMbPsO/jB1UaHYAAAAASUVORK5CYII=;" vertex="1" parent="1">
          <mxGeometry x="20" y="10" width="1105" height="701" as="geometry" />
        </mxCell>
        <mxCell id="dEf2hK6rVMyjdn9-MswJ-1" value="&lt;font style=&quot;font-size: 21px;&quot; color=&quot;#0000ff&quot;&gt;&lt;b style=&quot;font-size: 21px;&quot;&gt;1&lt;/b&gt;&lt;/font&gt;" style="text;html=1;align=center;verticalAlign=middle;resizable=0;points=[];autosize=1;strokeColor=none;fillColor=none;fontSize=21;fontColor=#FF3333;" vertex="1" parent="1">
          <mxGeometry x="280" y="360" width="30" height="30" as="geometry" />
        </mxCell>
        <mxCell id="dEf2hK6rVMyjdn9-MswJ-8" value="&lt;font style=&quot;font-size: 21px;&quot; color=&quot;#0000ff&quot;&gt;&lt;b style=&quot;font-size: 21px;&quot;&gt;2.1&lt;/b&gt;&lt;/font&gt;" style="text;html=1;align=center;verticalAlign=middle;resizable=0;points=[];autosize=1;strokeColor=none;fillColor=none;fontSize=21;fontColor=#FF3333;" vertex="1" parent="1">
          <mxGeometry x="510" y="360" width="40" height="30" as="geometry" />
        </mxCell>
        <mxCell id="dEf2hK6rVMyjdn9-MswJ-9" value="&lt;font style=&quot;font-size: 21px;&quot; color=&quot;#0000ff&quot;&gt;&lt;b style=&quot;font-size: 21px;&quot;&gt;2.2&lt;/b&gt;&lt;/font&gt;" style="text;html=1;align=center;verticalAlign=middle;resizable=0;points=[];autosize=1;strokeColor=none;fillColor=none;fontSize=21;fontColor=#FF3333;" vertex="1" parent="1">
          <mxGeometry x="750" y="360" width="40" height="30" as="geometry" />
        </mxCell>
        <mxCell id="dEf2hK6rVMyjdn9-MswJ-10" value="&lt;font style=&quot;font-size: 21px;&quot; color=&quot;#0000ff&quot;&gt;&lt;b style=&quot;font-size: 21px;&quot;&gt;3&lt;/b&gt;&lt;/font&gt;" style="text;html=1;align=center;verticalAlign=middle;resizable=0;points=[];autosize=1;strokeColor=none;fillColor=none;fontSize=21;fontColor=#FF3333;" vertex="1" parent="1">
          <mxGeometry x="755" y="290" width="30" height="30" as="geometry" />
        </mxCell>
        <mxCell id="dEf2hK6rVMyjdn9-MswJ-11" value="&lt;font style=&quot;font-size: 21px;&quot; color=&quot;#0000ff&quot;&gt;&lt;b style=&quot;font-size: 21px;&quot;&gt;4.1&lt;/b&gt;&lt;/font&gt;" style="text;html=1;align=center;verticalAlign=middle;resizable=0;points=[];autosize=1;strokeColor=none;fillColor=none;fontSize=21;fontColor=#FF3333;" vertex="1" parent="1">
          <mxGeometry x="510" y="500" width="40" height="30" as="geometry" />
        </mxCell>
        <mxCell id="dEf2hK6rVMyjdn9-MswJ-12" value="&lt;font style=&quot;font-size: 21px;&quot; color=&quot;#0000ff&quot;&gt;&lt;b style=&quot;font-size: 21px;&quot;&gt;4.2&lt;/b&gt;&lt;/font&gt;" style="text;html=1;align=center;verticalAlign=middle;resizable=0;points=[];autosize=1;strokeColor=none;fillColor=none;fontSize=21;fontColor=#FF3333;" vertex="1" parent="1">
          <mxGeometry x="745" y="500" width="40" height="30" as="geometry" />
        </mxCell>
        <mxCell id="dEf2hK6rVMyjdn9-MswJ-13" value="&lt;font style=&quot;font-size: 21px;&quot; color=&quot;#0000ff&quot;&gt;&lt;b style=&quot;font-size: 21px;&quot;&gt;5&lt;/b&gt;&lt;/font&gt;" style="text;html=1;align=center;verticalAlign=middle;resizable=0;points=[];autosize=1;strokeColor=none;fillColor=none;fontSize=21;fontColor=#FF3333;" vertex="1" parent="1">
          <mxGeometry x="990" y="360" width="30" height="30" as="geometry" />
        </mxCell>
      </root>
    </mxGraphModel>
  </diagram>
</mxfile>
